<svg width="100" height="80" viewBox="0 0 100 100" fill="none" xmlns="http://www.w3.org/2000/svg">
    <path
        d="M11.7734 8.97656L9.68308 6.82472L9.66749 6.83987L9.65212 6.85524L11.7734 8.97656ZM15.4297 9L13.2778 11.0904L13.3081 11.1215L13.3393 11.1518L15.4297 9ZM16.7188 22.4297L19.6175 23.2027L19.62 23.1932L16.7188 22.4297ZM15.4297 25.0312L13.2787 22.94L13.2778 22.9409L15.4297 25.0312ZM11.7734 25.0312L9.6216 27.1216L9.63675 27.1372L9.65212 27.1526L11.7734 25.0312ZM10.5078 22.4531L7.60657 23.2166L7.60911 23.2261L10.5078 22.4531ZM1.69531 25.9688L-1.06306 27.1483L-1.05836 27.1593L-1.05358 27.1702L1.69531 25.9688ZM6.19531 31.5234L4.50407 34.0013L4.5132 34.0075L6.19531 31.5234ZM19.4844 32.2734L20.8161 34.9616L20.826 34.9567L20.8358 34.9518L19.4844 32.2734ZM23.7031 28.7812L21.3215 26.957L21.3153 26.965L21.3093 26.9731L23.7031 28.7812ZM26.2109 23.7656L23.3375 22.9036L23.3342 22.9146L23.3309 22.9256L26.2109 23.7656ZM25.5078 7.94531L22.7551 9.13813L22.76 9.14924L22.7649 9.16031L25.5078 7.94531ZM21.0078 2.46094L19.3437 4.95711L19.3528 4.96313L21.0078 2.46094ZM6.40625 2.48438L8.04327 4.99837L8.048 4.99528L6.40625 2.48438ZM1.76562 7.96875L-0.959846 6.71503L-0.963304 6.72255L-0.966721 6.73009L1.76562 7.96875ZM13.0391 16.0781C13.0391 14.3182 13.1882 13.0886 13.4039 12.2905L7.61172 10.7251C7.20242 12.2395 7.03906 14.0568 7.03906 16.0781H13.0391ZM13.4039 12.2905C13.5212 11.8564 13.6404 11.5523 13.7419 11.3495C13.8438 11.1456 13.9068 11.0858 13.8948 11.0979L9.65212 6.85524C8.59193 7.91543 7.98762 9.33425 7.61172 10.7251L13.4039 12.2905ZM13.8638 11.1284C13.916 11.0777 13.9103 11.0981 13.8394 11.129C13.8052 11.1439 13.764 11.1576 13.7184 11.167C13.6729 11.1765 13.6327 11.1797 13.6016 11.1797V5.17969C12.042 5.17969 10.7081 5.82902 9.68308 6.82472L13.8638 11.1284ZM13.6016 11.1797C13.5732 11.1797 13.5325 11.1767 13.4836 11.1664C13.4345 11.1561 13.3876 11.1405 13.346 11.1218C13.2593 11.0829 13.2394 11.0508 13.2778 11.0904L17.5815 6.90964C16.5532 5.85104 15.1922 5.17969 13.6016 5.17969V11.1797ZM13.3393 11.1518C13.3271 11.14 13.3888 11.1963 13.4888 11.3927C13.5887 11.5888 13.707 11.886 13.8227 12.314L19.6148 10.7485C19.2348 9.34254 18.6146 7.91148 17.52 6.84816L13.3393 11.1518ZM13.8227 12.314C14.0388 13.1137 14.1875 14.3365 14.1875 16.0781H20.1875C20.1875 14.0698 20.0237 12.2613 19.6148 10.7485L13.8227 12.314ZM14.1875 16.0781V17.8359H20.1875V16.0781H14.1875ZM14.1875 17.8359C14.1875 19.5734 14.0397 20.8221 13.8175 21.6662L19.62 23.1932C20.0228 21.6622 20.1875 19.8485 20.1875 17.8359H14.1875ZM13.82 21.6567C13.5739 22.5796 13.3238 22.8936 13.2787 22.94L17.5807 27.1225C18.6293 26.0439 19.2386 24.6235 19.6175 23.2027L13.82 21.6567ZM13.2778 22.9409C13.2394 22.9805 13.2593 22.9483 13.346 22.9094C13.3876 22.8908 13.4345 22.8752 13.4836 22.8648C13.5325 22.8545 13.5732 22.8516 13.6016 22.8516V28.8516C15.1922 28.8516 16.5532 28.1802 17.5815 27.1216L13.2778 22.9409ZM13.6016 22.8516C13.6386 22.8516 13.6846 22.8555 13.7355 22.8664C13.7865 22.8772 13.8318 22.8928 13.8688 22.9094C13.9449 22.9435 13.9505 22.9656 13.8948 22.9099L9.65212 27.1526C10.6694 28.1699 12.0125 28.8516 13.6016 28.8516V22.8516ZM13.9253 22.9409C13.9271 22.9428 13.8575 22.8703 13.7516 22.6545C13.6463 22.44 13.525 22.1243 13.4065 21.6801L7.60911 23.2261C7.98337 24.6296 8.5813 26.0507 9.6216 27.1216L13.9253 22.9409ZM13.409 21.6896C13.1873 20.8471 13.0391 19.5915 13.0391 17.8359H7.03906C7.03906 19.8616 7.2033 21.6841 7.60659 23.2166L13.409 21.6896ZM13.0391 17.8359V16.0781H7.03906V17.8359H13.0391ZM-2.82812 17.8594C-2.82812 21.2267 -2.26332 24.3416 -1.06306 27.1483L4.45369 24.7892C3.62269 22.8459 3.17188 20.5546 3.17188 17.8594H-2.82812ZM-1.05358 27.1702C0.184518 30.0029 2.03252 32.3144 4.50408 34.0013L7.88654 29.0456C6.4206 28.045 5.26861 26.6534 4.4442 24.7673L-1.05358 27.1702ZM4.5132 34.0075C7.08615 35.7498 10.1314 36.5391 13.4844 36.5391V30.5391C11.0873 30.5391 9.27323 29.9846 7.87742 29.0394L4.5132 34.0075ZM13.4844 36.5391C16.1482 36.5391 18.6215 36.0489 20.8161 34.9616L18.1526 29.5852C16.941 30.1855 15.4143 30.5391 13.4844 30.5391V36.5391ZM20.8358 34.9518C22.933 33.8936 24.701 32.4376 26.097 30.5894L21.3093 26.9731C20.4865 28.0624 19.442 28.9345 18.1329 29.5951L20.8358 34.9518ZM26.0848 30.6055C27.4477 28.8261 28.4461 26.8166 29.0909 24.6056L23.3309 22.9256C22.8821 24.4646 22.2086 25.7989 21.3215 26.957L26.0848 30.6055ZM29.0844 24.6277C29.7352 22.4584 30.0547 20.1982 30.0547 17.8594H24.0547C24.0547 19.6456 23.8117 21.3229 23.3375 22.9036L29.0844 24.6277ZM30.0547 17.8594V16.0547H24.0547V17.8594H30.0547ZM30.0547 16.0547C30.0547 12.6437 29.4831 9.51231 28.2508 6.73031L22.7649 9.16031C23.5951 11.0346 24.0547 13.3094 24.0547 16.0547H30.0547ZM28.2605 6.75249C27.0314 3.91621 25.1683 1.61593 22.6628 -0.0412588L19.3528 4.96313C20.8161 5.93095 21.9529 7.28691 22.7551 9.13813L28.2605 6.75249ZM22.6719 -0.0352135C20.1106 -1.74276 17.0692 -2.50781 13.7188 -2.50781V3.49219C16.1496 3.49219 17.9675 4.03963 19.3437 4.95709L22.6719 -0.0352135ZM13.7188 -2.50781C10.394 -2.50781 7.36286 -1.72546 4.7645 -0.0265341L8.048 4.99528C9.51214 4.03796 11.356 3.49219 13.7188 3.49219V-2.50781ZM4.76923 -0.0296192C2.24446 1.61442 0.336991 3.89582 -0.959846 6.71503L4.4911 9.22247C5.35051 7.35418 6.53679 5.97933 8.04327 4.99837L4.76923 -0.0296192ZM-0.966721 6.73009C-2.23508 9.52794 -2.82812 12.6582 -2.82812 16.0547H3.17188C3.17188 13.3574 3.64133 11.0971 4.49797 9.20741L-0.966721 6.73009ZM-2.82812 16.0547V17.8594H3.17188V16.0547H-2.82812ZM52.5022 33V36H55.5022V33H52.5022ZM52.5022 1.00781H55.5022V-1.99219H52.5022V1.00781ZM42.7522 1.00781V-1.99219H41.8204L41.0526 -1.46431L42.7522 1.00781ZM38.9788 3.5625L37.3147 1.06635L37.3075 1.07113L37.3003 1.07595L38.9788 3.5625ZM35.2288 6.11719L33.5292 3.64506L32.2288 4.5391V6.11719H35.2288ZM35.2288 14.4609H32.2288V20.2229L36.9491 16.9186L35.2288 14.4609ZM39.9163 11.25L41.6032 13.7308L41.6138 13.7235L39.9163 11.25ZM42.2834 9.63281V6.63281H41.3601L40.5965 7.15203L42.2834 9.63281ZM42.7522 9.63281H45.7522V6.63281H42.7522V9.63281ZM42.7522 33H39.7522V36H42.7522V33ZM55.5022 33V1.00781H49.5022V33H55.5022ZM52.5022 -1.99219H42.7522V4.00781H52.5022V-1.99219ZM41.0526 -1.46431C39.8144 -0.613053 38.5684 0.230501 37.3147 1.06635L40.6429 6.05865C41.9203 5.207 43.19 4.34743 44.4518 3.47994L41.0526 -1.46431ZM37.3003 1.07595C36.0432 1.92451 34.7862 2.78088 33.5292 3.64506L36.9283 8.58931C38.1713 7.73475 39.4143 6.88799 40.6572 6.04905L37.3003 1.07595ZM32.2288 6.11719V14.4609H38.2288V6.11719H32.2288ZM36.9491 16.9186C37.7194 16.3795 38.4895 15.8481 39.2594 15.3245L35.8856 10.363C35.093 10.9019 34.3006 11.4487 33.5084 12.0032L36.9491 16.9186ZM39.2594 15.3245C39.261 15.3235 39.2625 15.3225 39.264 15.3214C39.2655 15.3204 39.2671 15.3193 39.2686 15.3183C39.2701 15.3173 39.2716 15.3162 39.2732 15.3152C39.2747 15.3142 39.2762 15.3131 39.2777 15.3121C39.2793 15.311 39.2808 15.31 39.2823 15.309C39.2838 15.3079 39.2854 15.3069 39.2869 15.3059C39.2884 15.3048 39.29 15.3038 39.2915 15.3027C39.293 15.3017 39.2945 15.3007 39.2961 15.2996C39.2976 15.2986 39.2991 15.2976 39.3006 15.2965C39.3022 15.2955 39.3037 15.2944 39.3052 15.2934C39.3067 15.2924 39.3083 15.2913 39.3098 15.2903C39.3113 15.2893 39.3128 15.2882 39.3144 15.2872C39.3159 15.2861 39.3174 15.2851 39.3189 15.2841C39.3205 15.283 39.322 15.282 39.3235 15.281C39.325 15.2799 39.3266 15.2789 39.3281 15.2778C39.3296 15.2768 39.3312 15.2758 39.3327 15.2747C39.3342 15.2737 39.3357 15.2726 39.3373 15.2716C39.3388 15.2706 39.3403 15.2695 39.3418 15.2685C39.3434 15.2675 39.3449 15.2664 39.3464 15.2654C39.3479 15.2643 39.3495 15.2633 39.351 15.2623C39.3525 15.2612 39.354 15.2602 39.3556 15.2592C39.3571 15.2581 39.3586 15.2571 39.3601 15.256C39.3617 15.255 39.3632 15.254 39.3647 15.2529C39.3662 15.2519 39.3678 15.2509 39.3693 15.2498C39.3708 15.2488 39.3723 15.2477 39.3739 15.2467C39.3754 15.2457 39.3769 15.2446 39.3785 15.2436C39.38 15.2426 39.3815 15.2415 39.383 15.2405C39.3846 15.2394 39.3861 15.2384 39.3876 15.2374C39.3891 15.2363 39.3907 15.2353 39.3922 15.2343C39.3937 15.2332 39.3952 15.2322 39.3968 15.2311C39.3983 15.2301 39.3998 15.2291 39.4013 15.228C39.4029 15.227 39.4044 15.226 39.4059 15.2249C39.4074 15.2239 39.409 15.2228 39.4105 15.2218C39.412 15.2208 39.4135 15.2197 39.4151 15.2187C39.4166 15.2177 39.4181 15.2166 39.4197 15.2156C39.4212 15.2145 39.4227 15.2135 39.4242 15.2125C39.4258 15.2114 39.4273 15.2104 39.4288 15.2094C39.4303 15.2083 39.4319 15.2073 39.4334 15.2062C39.4349 15.2052 39.4364 15.2042 39.438 15.2031C39.4395 15.2021 39.441 15.2011 39.4425 15.2C39.4441 15.199 39.4456 15.1979 39.4471 15.1969C39.4486 15.1959 39.4502 15.1948 39.4517 15.1938C39.4532 15.1928 39.4547 15.1917 39.4563 15.1907C39.4578 15.1896 39.4593 15.1886 39.4608 15.1876C39.4624 15.1865 39.4639 15.1855 39.4654 15.1845C39.467 15.1834 39.4685 15.1824 39.47 15.1813C39.4715 15.1803 39.4731 15.1793 39.4746 15.1782C39.4761 15.1772 39.4776 15.1762 39.4792 15.1751C39.4807 15.1741 39.4822 15.173 39.4837 15.172C39.4853 15.171 39.4868 15.1699 39.4883 15.1689C39.4898 15.1679 39.4914 15.1668 39.4929 15.1658C39.4944 15.1647 39.4959 15.1637 39.4975 15.1627C39.499 15.1616 39.5005 15.1606 39.502 15.1596C39.5036 15.1585 39.5051 15.1575 39.5066 15.1564C39.5082 15.1554 39.5097 15.1544 39.5112 15.1533C39.5127 15.1523 39.5143 15.1513 39.5158 15.1502C39.5173 15.1492 39.5188 15.1481 39.5204 15.1471C39.5219 15.1461 39.5234 15.145 39.5249 15.144C39.5265 15.143 39.528 15.1419 39.5295 15.1409C39.531 15.1398 39.5326 15.1388 39.5341 15.1378C39.5356 15.1367 39.5371 15.1357 39.5387 15.1346C39.5402 15.1336 39.5417 15.1326 39.5432 15.1315C39.5448 15.1305 39.5463 15.1295 39.5478 15.1284C39.5494 15.1274 39.5509 15.1263 39.5524 15.1253C39.5539 15.1243 39.5555 15.1232 39.557 15.1222C39.5585 15.1212 39.56 15.1201 39.5616 15.1191C39.5631 15.118 39.5646 15.117 39.5661 15.116C39.5677 15.1149 39.5692 15.1139 39.5707 15.1129C39.5722 15.1118 39.5738 15.1108 39.5753 15.1097C39.5768 15.1087 39.5783 15.1077 39.5799 15.1066C39.5814 15.1056 39.5829 15.1046 39.5844 15.1035C39.586 15.1025 39.5875 15.1014 39.589 15.1004C39.5905 15.0994 39.5921 15.0983 39.5936 15.0973C39.5951 15.0963 39.5967 15.0952 39.5982 15.0942C39.5997 15.0931 39.6012 15.0921 39.6028 15.0911C39.6043 15.09 39.6058 15.089 39.6073 15.088C39.6089 15.0869 39.6104 15.0859 39.6119 15.0848C39.6134 15.0838 39.615 15.0828 39.6165 15.0817C39.618 15.0807 39.6195 15.0797 39.6211 15.0786C39.6226 15.0776 39.6241 15.0765 39.6256 15.0755C39.6272 15.0745 39.6287 15.0734 39.6302 15.0724C39.6317 15.0714 39.6333 15.0703 39.6348 15.0693C39.6363 15.0682 39.6379 15.0672 39.6394 15.0662C39.6409 15.0651 39.6424 15.0641 39.644 15.0631C39.6455 15.062 39.647 15.061 39.6485 15.0599C39.6501 15.0589 39.6516 15.0579 39.6531 15.0568C39.6546 15.0558 39.6562 15.0548 39.6577 15.0537C39.6592 15.0527 39.6607 15.0516 39.6623 15.0506C39.6638 15.0496 39.6653 15.0485 39.6668 15.0475C39.6684 15.0465 39.6699 15.0454 39.6714 15.0444C39.6729 15.0433 39.6745 15.0423 39.676 15.0413C39.6775 15.0402 39.6791 15.0392 39.6806 15.0382C39.6821 15.0371 39.6836 15.0361 39.6852 15.035C39.6867 15.034 39.6882 15.033 39.6897 15.0319C39.6913 15.0309 39.6928 15.0299 39.6943 15.0288C39.6958 15.0278 39.6974 15.0267 39.6989 15.0257C39.7004 15.0247 39.7019 15.0236 39.7035 15.0226C39.705 15.0216 39.7065 15.0205 39.708 15.0195C39.7096 15.0184 39.7111 15.0174 39.7126 15.0164C39.7141 15.0153 39.7157 15.0143 39.7172 15.0133C39.7187 15.0122 39.7202 15.0112 39.7218 15.0101C39.7233 15.0091 39.7248 15.0081 39.7264 15.007C39.7279 15.006 39.7294 15.0049 39.7309 15.0039C39.7325 15.0029 39.734 15.0018 39.7355 15.0008C39.737 14.9998 39.7386 14.9987 39.7401 14.9977C39.7416 14.9966 39.7431 14.9956 39.7447 14.9946C39.7462 14.9935 39.7477 14.9925 39.7492 14.9915C39.7508 14.9904 39.7523 14.9894 39.7538 14.9883C39.7553 14.9873 39.7569 14.9863 39.7584 14.9852C39.7599 14.9842 39.7614 14.9832 39.763 14.9821C39.7645 14.9811 39.766 14.98 39.7676 14.979C39.7691 14.978 39.7706 14.9769 39.7721 14.9759C39.7737 14.9749 39.7752 14.9738 39.7767 14.9728C39.7782 14.9717 39.7798 14.9707 39.7813 14.9697C39.7828 14.9686 39.7843 14.9676 39.7859 14.9666C39.7874 14.9655 39.7889 14.9645 39.7904 14.9634C39.792 14.9624 39.7935 14.9614 39.795 14.9603C39.7965 14.9593 39.7981 14.9583 39.7996 14.9572C39.8011 14.9562 39.8026 14.9551 39.8042 14.9541C39.8057 14.9531 39.8072 14.952 39.8088 14.951C39.8103 14.95 39.8118 14.9489 39.8133 14.9479C39.8149 14.9468 39.8164 14.9458 39.8179 14.9448C39.8194 14.9437 39.821 14.9427 39.8225 14.9417C39.824 14.9406 39.8255 14.9396 39.8271 14.9385C39.8286 14.9375 39.8301 14.9365 39.8316 14.9354C39.8332 14.9344 39.8347 14.9334 39.8362 14.9323C39.8377 14.9313 39.8393 14.9302 39.8408 14.9292C39.8423 14.9282 39.8438 14.9271 39.8454 14.9261C39.8469 14.9251 39.8484 14.924 39.8499 14.923C39.8515 14.9219 39.853 14.9209 39.8545 14.9199C39.8561 14.9188 39.8576 14.9178 39.8591 14.9168C39.8606 14.9157 39.8622 14.9147 39.8637 14.9136C39.8652 14.9126 39.8667 14.9116 39.8683 14.9105C39.8698 14.9095 39.8713 14.9085 39.8728 14.9074C39.8744 14.9064 39.8759 14.9053 39.8774 14.9043C39.8789 14.9033 39.8805 14.9022 39.882 14.9012C39.8835 14.9002 39.885 14.8991 39.8866 14.8981C39.8881 14.897 39.8896 14.896 39.8911 14.895C39.8927 14.8939 39.8942 14.8929 39.8957 14.8919C39.8973 14.8908 39.8988 14.8898 39.9003 14.8887C39.9018 14.8877 39.9034 14.8867 39.9049 14.8856C39.9064 14.8846 39.9079 14.8836 39.9095 14.8825C39.911 14.8815 39.9125 14.8804 39.914 14.8794C39.9156 14.8784 39.9171 14.8773 39.9186 14.8763C39.9201 14.8752 39.9217 14.8742 39.9232 14.8732C39.9247 14.8721 39.9262 14.8711 39.9278 14.8701C39.9293 14.869 39.9308 14.868 39.9323 14.8669C39.9339 14.8659 39.9354 14.8649 39.9369 14.8638C39.9384 14.8628 39.94 14.8618 39.9415 14.8607C39.943 14.8597 39.9446 14.8586 39.9461 14.8576C39.9476 14.8566 39.9491 14.8555 39.9507 14.8545C39.9522 14.8535 39.9537 14.8524 39.9552 14.8514C39.9568 14.8503 39.9583 14.8493 39.9598 14.8483C39.9613 14.8472 39.9629 14.8462 39.9644 14.8452C39.9659 14.8441 39.9674 14.8431 39.969 14.842C39.9705 14.841 39.972 14.84 39.9735 14.8389C39.9751 14.8379 39.9766 14.8369 39.9781 14.8358C39.9796 14.8348 39.9812 14.8337 39.9827 14.8327C39.9842 14.8317 39.9858 14.8306 39.9873 14.8296C39.9888 14.8286 39.9903 14.8275 39.9919 14.8265C39.9934 14.8254 39.9949 14.8244 39.9964 14.8234C39.998 14.8223 39.9995 14.8213 40.001 14.8203C40.0025 14.8192 40.0041 14.8182 40.0056 14.8171C40.0071 14.8161 40.0086 14.8151 40.0102 14.814C40.0117 14.813 40.0132 14.812 40.0147 14.8109C40.0163 14.8099 40.0178 14.8088 40.0193 14.8078C40.0208 14.8068 40.0224 14.8057 40.0239 14.8047C40.0254 14.8037 40.027 14.8026 40.0285 14.8016C40.03 14.8005 40.0315 14.7995 40.0331 14.7985C40.0346 14.7974 40.0361 14.7964 40.0376 14.7954C40.0392 14.7943 40.0407 14.7933 40.0422 14.7922C40.0437 14.7912 40.0453 14.7902 40.0468 14.7891C40.0483 14.7881 40.0498 14.7871 40.0514 14.786C40.0529 14.785 40.0544 14.7839 40.0559 14.7829C40.0575 14.7819 40.059 14.7808 40.0605 14.7798C40.062 14.7788 40.0636 14.7777 40.0651 14.7767C40.0666 14.7756 40.0681 14.7746 40.0697 14.7736C40.0712 14.7725 40.0727 14.7715 40.0743 14.7705C40.0758 14.7694 40.0773 14.7684 40.0788 14.7673C40.0804 14.7663 40.0819 14.7653 40.0834 14.7642C40.0849 14.7632 40.0865 14.7622 40.088 14.7611C40.0895 14.7601 40.091 14.759 40.0926 14.758C40.0941 14.757 40.0956 14.7559 40.0971 14.7549C40.0987 14.7539 40.1002 14.7528 40.1017 14.7518C40.1032 14.7507 40.1048 14.7497 40.1063 14.7487C40.1078 14.7476 40.1093 14.7466 40.1109 14.7456C40.1124 14.7445 40.1139 14.7435 40.1155 14.7424C40.117 14.7414 40.1185 14.7404 40.12 14.7393C40.1216 14.7383 40.1231 14.7372 40.1246 14.7362C40.1261 14.7352 40.1277 14.7341 40.1292 14.7331C40.1307 14.7321 40.1322 14.731 40.1338 14.73C40.1353 14.7289 40.1368 14.7279 40.1383 14.7269C40.1399 14.7258 40.1414 14.7248 40.1429 14.7238C40.1444 14.7227 40.146 14.7217 40.1475 14.7206C40.149 14.7196 40.1505 14.7186 40.1521 14.7175C40.1536 14.7165 40.1551 14.7155 40.1567 14.7144C40.1582 14.7134 40.1597 14.7123 40.1612 14.7113C40.1628 14.7103 40.1643 14.7092 40.1658 14.7082C40.1673 14.7072 40.1689 14.7061 40.1704 14.7051C40.1719 14.704 40.1734 14.703 40.175 14.702C40.1765 14.7009 40.178 14.6999 40.1795 14.6989C40.1811 14.6978 40.1826 14.6968 40.1841 14.6957C40.1856 14.6947 40.1872 14.6937 40.1887 14.6926C40.1902 14.6916 40.1917 14.6906 40.1933 14.6895C40.1948 14.6885 40.1963 14.6874 40.1978 14.6864C40.1994 14.6854 40.2009 14.6843 40.2024 14.6833C40.204 14.6823 40.2055 14.6812 40.207 14.6802C40.2085 14.6791 40.2101 14.6781 40.2116 14.6771C40.2131 14.676 40.2146 14.675 40.2162 14.674C40.2177 14.6729 40.2192 14.6719 40.2207 14.6708C40.2223 14.6698 40.2238 14.6688 40.2253 14.6677C40.2268 14.6667 40.2284 14.6657 40.2299 14.6646C40.2314 14.6636 40.2329 14.6625 40.2345 14.6615C40.236 14.6605 40.2375 14.6594 40.239 14.6584C40.2406 14.6574 40.2421 14.6563 40.2436 14.6553C40.2452 14.6542 40.2467 14.6532 40.2482 14.6522C40.2497 14.6511 40.2513 14.6501 40.2528 14.6491C40.2543 14.648 40.2558 14.647 40.2574 14.6459C40.2589 14.6449 40.2604 14.6439 40.2619 14.6428C40.2635 14.6418 40.265 14.6408 40.2665 14.6397C40.268 14.6387 40.2696 14.6376 40.2711 14.6366C40.2726 14.6356 40.2741 14.6345 40.2757 14.6335C40.2772 14.6325 40.2787 14.6314 40.2802 14.6304C40.2818 14.6293 40.2833 14.6283 40.2848 14.6273C40.2864 14.6262 40.2879 14.6252 40.2894 14.6242C40.2909 14.6231 40.2925 14.6221 40.294 14.621C40.2955 14.62 40.297 14.619 40.2986 14.6179C40.3001 14.6169 40.3016 14.6159 40.3031 14.6148C40.3047 14.6138 40.3062 14.6127 40.3077 14.6117C40.3092 14.6107 40.3108 14.6096 40.3123 14.6086C40.3138 14.6075 40.3153 14.6065 40.3169 14.6055C40.3184 14.6044 40.3199 14.6034 40.3214 14.6024C40.323 14.6013 40.3245 14.6003 40.326 14.5992C40.3275 14.5982 40.3291 14.5972 40.3306 14.5961C40.3321 14.5951 40.3337 14.5941 40.3352 14.593C40.3367 14.592 40.3382 14.5909 40.3398 14.5899C40.3413 14.5889 40.3428 14.5878 40.3443 14.5868C40.3459 14.5858 40.3474 14.5847 40.3489 14.5837C40.3504 14.5826 40.352 14.5816 40.3535 14.5806C40.355 14.5795 40.3565 14.5785 40.3581 14.5775C40.3596 14.5764 40.3611 14.5754 40.3626 14.5743C40.3642 14.5733 40.3657 14.5723 40.3672 14.5712C40.3687 14.5702 40.3703 14.5692 40.3718 14.5681C40.3733 14.5671 40.3749 14.566 40.3764 14.565C40.3779 14.564 40.3794 14.5629 40.381 14.5619C40.3825 14.5609 40.384 14.5598 40.3855 14.5588C40.3871 14.5577 40.3886 14.5567 40.3901 14.5557C40.3916 14.5546 40.3932 14.5536 40.3947 14.5526C40.3962 14.5515 40.3977 14.5505 40.3993 14.5494C40.4008 14.5484 40.4023 14.5474 40.4038 14.5463C40.4054 14.5453 40.4069 14.5443 40.4084 14.5432C40.4099 14.5422 40.4115 14.5411 40.413 14.5401C40.4145 14.5391 40.416 14.538 40.4176 14.537C40.4191 14.536 40.4206 14.5349 40.4222 14.5339C40.4237 14.5328 40.4252 14.5318 40.4267 14.5308C40.4283 14.5297 40.4298 14.5287 40.4313 14.5277C40.4328 14.5266 40.4344 14.5256 40.4359 14.5245C40.4374 14.5235 40.4389 14.5225 40.4405 14.5214C40.442 14.5204 40.4435 14.5194 40.445 14.5183C40.4466 14.5173 40.4481 14.5162 40.4496 14.5152C40.4511 14.5142 40.4527 14.5131 40.4542 14.5121C40.4557 14.5111 40.4572 14.51 40.4588 14.509C40.4603 14.5079 40.4618 14.5069 40.4634 14.5059C40.4649 14.5048 40.4664 14.5038 40.4679 14.5028C40.4695 14.5017 40.471 14.5007 40.4725 14.4996C40.474 14.4986 40.4756 14.4976 40.4771 14.4965C40.4786 14.4955 40.4801 14.4945 40.4817 14.4934C40.4832 14.4924 40.4847 14.4913 40.4862 14.4903C40.4878 14.4893 40.4893 14.4882 40.4908 14.4872C40.4923 14.4862 40.4939 14.4851 40.4954 14.4841C40.4969 14.483 40.4984 14.482 40.5 14.481C40.5015 14.4799 40.503 14.4789 40.5046 14.4778C40.5061 14.4768 40.5076 14.4758 40.5091 14.4747C40.5107 14.4737 40.5122 14.4727 40.5137 14.4716C40.5152 14.4706 40.5168 14.4695 40.5183 14.4685C40.5198 14.4675 40.5213 14.4664 40.5229 14.4654C40.5244 14.4644 40.5259 14.4633 40.5274 14.4623C40.529 14.4612 40.5305 14.4602 40.532 14.4592C40.5335 14.4581 40.5351 14.4571 40.5366 14.4561C40.5381 14.455 40.5396 14.454 40.5412 14.4529C40.5427 14.4519 40.5442 14.4509 40.5457 14.4498C40.5473 14.4488 40.5488 14.4478 40.5503 14.4467C40.5519 14.4457 40.5534 14.4446 40.5549 14.4436C40.5564 14.4426 40.558 14.4415 40.5595 14.4405C40.561 14.4395 40.5625 14.4384 40.5641 14.4374C40.5656 14.4363 40.5671 14.4353 40.5686 14.4343C40.5702 14.4332 40.5717 14.4322 40.5732 14.4312C40.5747 14.4301 40.5763 14.4291 40.5778 14.428C40.5793 14.427 40.5808 14.426 40.5824 14.4249C40.5839 14.4239 40.5854 14.4229 40.5869 14.4218C40.5885 14.4208 40.59 14.4197 40.5915 14.4187C40.5931 14.4177 40.5946 14.4166 40.5961 14.4156C40.5976 14.4146 40.5992 14.4135 40.6007 14.4125C40.6022 14.4114 40.6037 14.4104 40.6053 14.4094C40.6068 14.4083 40.6083 14.4073 40.6098 14.4063C40.6114 14.4052 40.6129 14.4042 40.6144 14.4031C40.6159 14.4021 40.6175 14.4011 40.619 14.4C40.6205 14.399 40.622 14.398 40.6236 14.3969C40.6251 14.3959 40.6266 14.3948 40.6281 14.3938C40.6297 14.3928 40.6312 14.3917 40.6327 14.3907C40.6343 14.3897 40.6358 14.3886 40.6373 14.3876C40.6388 14.3865 40.6404 14.3855 40.6419 14.3845C40.6434 14.3834 40.6449 14.3824 40.6465 14.3814C40.648 14.3803 40.6495 14.3793 40.651 14.3782C40.6526 14.3772 40.6541 14.3762 40.6556 14.3751C40.6571 14.3741 40.6587 14.3731 40.6602 14.372C40.6617 14.371 40.6632 14.3699 40.6648 14.3689C40.6663 14.3679 40.6678 14.3668 40.6693 14.3658C40.6709 14.3648 40.6724 14.3637 40.6739 14.3627C40.6754 14.3616 40.677 14.3606 40.6785 14.3596C40.68 14.3585 40.6816 14.3575 40.6831 14.3565C40.6846 14.3554 40.6861 14.3544 40.6877 14.3533C40.6892 14.3523 40.6907 14.3513 40.6922 14.3502C40.6938 14.3492 40.6953 14.3482 40.6968 14.3471C40.6983 14.3461 40.6999 14.345 40.7014 14.344C40.7029 14.343 40.7044 14.3419 40.706 14.3409C40.7075 14.3398 40.709 14.3388 40.7105 14.3378C40.7121 14.3367 40.7136 14.3357 40.7151 14.3347C40.7166 14.3336 40.7182 14.3326 40.7197 14.3315C40.7212 14.3305 40.7228 14.3295 40.7243 14.3284C40.7258 14.3274 40.7273 14.3264 40.7289 14.3253C40.7304 14.3243 40.7319 14.3232 40.7334 14.3222C40.735 14.3212 40.7365 14.3201 40.738 14.3191C40.7395 14.3181 40.7411 14.317 40.7426 14.316C40.7441 14.3149 40.7456 14.3139 40.7472 14.3129C40.7487 14.3118 40.7502 14.3108 40.7517 14.3098C40.7533 14.3087 40.7548 14.3077 40.7563 14.3066C40.7578 14.3056 40.7594 14.3046 40.7609 14.3035C40.7624 14.3025 40.764 14.3015 40.7655 14.3004C40.767 14.2994 40.7685 14.2983 40.7701 14.2973C40.7716 14.2963 40.7731 14.2952 40.7746 14.2942C40.7762 14.2932 40.7777 14.2921 40.7792 14.2911C40.7807 14.29 40.7823 14.289 40.7838 14.288C40.7853 14.2869 40.7868 14.2859 40.7884 14.2849C40.7899 14.2838 40.7914 14.2828 40.7929 14.2817C40.7945 14.2807 40.796 14.2797 40.7975 14.2786C40.799 14.2776 40.8006 14.2766 40.8021 14.2755C40.8036 14.2745 40.8051 14.2734 40.8067 14.2724C40.8082 14.2714 40.8097 14.2703 40.8113 14.2693C40.8128 14.2683 40.8143 14.2672 40.8158 14.2662C40.8174 14.2651 40.8189 14.2641 40.8204 14.2631C40.8219 14.262 40.8235 14.261 40.825 14.26C40.8265 14.2589 40.828 14.2579 40.8296 14.2568C40.8311 14.2558 40.8326 14.2548 40.8341 14.2537C40.8357 14.2527 40.8372 14.2517 40.8387 14.2506C40.8402 14.2496 40.8418 14.2485 40.8433 14.2475C40.8448 14.2465 40.8463 14.2454 40.8479 14.2444C40.8494 14.2434 40.8509 14.2423 40.8525 14.2413C40.854 14.2402 40.8555 14.2392 40.857 14.2382C40.8586 14.2371 40.8601 14.2361 40.8616 14.2351C40.8631 14.234 40.8647 14.233 40.8662 14.2319C40.8677 14.2309 40.8692 14.2299 40.8708 14.2288C40.8723 14.2278 40.8738 14.2268 40.8753 14.2257C40.8769 14.2247 40.8784 14.2236 40.8799 14.2226C40.8814 14.2216 40.883 14.2205 40.8845 14.2195C40.886 14.2185 40.8875 14.2174 40.8891 14.2164C40.8906 14.2153 40.8921 14.2143 40.8937 14.2133C40.8952 14.2122 40.8967 14.2112 40.8982 14.2101C40.8998 14.2091 40.9013 14.2081 40.9028 14.207C40.9043 14.206 40.9059 14.205 40.9074 14.2039C40.9089 14.2029 40.9104 14.2018 40.912 14.2008C40.9135 14.1998 40.915 14.1987 40.9165 14.1977C40.9181 14.1967 40.9196 14.1956 40.9211 14.1946C40.9226 14.1935 40.9242 14.1925 40.9257 14.1915C40.9272 14.1904 40.9287 14.1894 40.9303 14.1884C40.9318 14.1873 40.9333 14.1863 40.9348 14.1852C40.9364 14.1842 40.9379 14.1832 40.9394 14.1821C40.941 14.1811 40.9425 14.1801 40.944 14.179C40.9455 14.178 40.9471 14.1769 40.9486 14.1759C40.9501 14.1749 40.9516 14.1738 40.9532 14.1728C40.9547 14.1718 40.9562 14.1707 40.9577 14.1697C40.9593 14.1686 40.9608 14.1676 40.9623 14.1666C40.9638 14.1655 40.9654 14.1645 40.9669 14.1635C40.9684 14.1624 40.9699 14.1614 40.9715 14.1603C40.973 14.1593 40.9745 14.1583 40.976 14.1572C40.9776 14.1562 40.9791 14.1552 40.9806 14.1541C40.9822 14.1531 40.9837 14.152 40.9852 14.151C40.9867 14.15 40.9883 14.1489 40.9898 14.1479C40.9913 14.1469 40.9928 14.1458 40.9944 14.1448C40.9959 14.1437 40.9974 14.1427 40.9989 14.1417C41.0005 14.1406 41.002 14.1396 41.0035 14.1386C41.005 14.1375 41.0066 14.1365 41.0081 14.1354C41.0096 14.1344 41.0111 14.1334 41.0127 14.1323C41.0142 14.1313 41.0157 14.1303 41.0172 14.1292C41.0188 14.1282 41.0203 14.1271 41.0218 14.1261C41.0233 14.1251 41.0249 14.124 41.0264 14.123C41.0279 14.122 41.0295 14.1209 41.031 14.1199C41.0325 14.1188 41.034 14.1178 41.0356 14.1168C41.0371 14.1157 41.0386 14.1147 41.0401 14.1137C41.0417 14.1126 41.0432 14.1116 41.0447 14.1105C41.0462 14.1095 41.0478 14.1085 41.0493 14.1074C41.0508 14.1064 41.0523 14.1054 41.0539 14.1043C41.0554 14.1033 41.0569 14.1022 41.0584 14.1012C41.06 14.1002 41.0615 14.0991 41.063 14.0981C41.0645 14.0971 41.0661 14.096 41.0676 14.095C41.0691 14.0939 41.0707 14.0929 41.0722 14.0919C41.0737 14.0908 41.0752 14.0898 41.0768 14.0888C41.0783 14.0877 41.0798 14.0867 41.0813 14.0856C41.0829 14.0846 41.0844 14.0836 41.0859 14.0825C41.0874 14.0815 41.089 14.0805 41.0905 14.0794C41.092 14.0784 41.0935 14.0773 41.0951 14.0763C41.0966 14.0753 41.0981 14.0742 41.0996 14.0732C41.1012 14.0721 41.1027 14.0711 41.1042 14.0701C41.1057 14.069 41.1073 14.068 41.1088 14.067C41.1103 14.0659 41.1119 14.0649 41.1134 14.0638C41.1149 14.0628 41.1164 14.0618 41.118 14.0607C41.1195 14.0597 41.121 14.0587 41.1225 14.0576C41.1241 14.0566 41.1256 14.0555 41.1271 14.0545C41.1286 14.0535 41.1302 14.0524 41.1317 14.0514C41.1332 14.0504 41.1347 14.0493 41.1363 14.0483C41.1378 14.0472 41.1393 14.0462 41.1408 14.0452C41.1424 14.0441 41.1439 14.0431 41.1454 14.0421C41.1469 14.041 41.1485 14.04 41.15 14.0389C41.1515 14.0379 41.153 14.0369 41.1546 14.0358C41.1561 14.0348 41.1576 14.0338 41.1592 14.0327C41.1607 14.0317 41.1622 14.0306 41.1637 14.0296C41.1653 14.0286 41.1668 14.0275 41.1683 14.0265C41.1698 14.0255 41.1714 14.0244 41.1729 14.0234C41.1744 14.0223 41.1759 14.0213 41.1775 14.0203C41.179 14.0192 41.1805 14.0182 41.182 14.0172C41.1836 14.0161 41.1851 14.0151 41.1866 14.014C41.1881 14.013 41.1897 14.012 41.1912 14.0109C41.1927 14.0099 41.1942 14.0089 41.1958 14.0078C41.1973 14.0068 41.1988 14.0057 41.2004 14.0047C41.2019 14.0037 41.2034 14.0026 41.2049 14.0016C41.2065 14.0006 41.208 13.9995 41.2095 13.9985C41.211 13.9974 41.2126 13.9964 41.2141 13.9954C41.2156 13.9943 41.2171 13.9933 41.2187 13.9923C41.2202 13.9912 41.2217 13.9902 41.2232 13.9891C41.2248 13.9881 41.2263 13.9871 41.2278 13.986C41.2293 13.985 41.2309 13.984 41.2324 13.9829C41.2339 13.9819 41.2354 13.9808 41.237 13.9798C41.2385 13.9788 41.24 13.9777 41.2416 13.9767C41.2431 13.9757 41.2446 13.9746 41.2461 13.9736C41.2477 13.9725 41.2492 13.9715 41.2507 13.9705C41.2522 13.9694 41.2538 13.9684 41.2553 13.9674C41.2568 13.9663 41.2583 13.9653 41.2599 13.9642C41.2614 13.9632 41.2629 13.9622 41.2644 13.9611C41.266 13.9601 41.2675 13.9591 41.269 13.958C41.2705 13.957 41.2721 13.9559 41.2736 13.9549C41.2751 13.9539 41.2766 13.9528 41.2782 13.9518C41.2797 13.9508 41.2812 13.9497 41.2827 13.9487C41.2843 13.9476 41.2858 13.9466 41.2873 13.9456C41.2889 13.9445 41.2904 13.9435 41.2919 13.9424C41.2934 13.9414 41.295 13.9404 41.2965 13.9393C41.298 13.9383 41.2995 13.9373 41.3011 13.9362C41.3026 13.9352 41.3041 13.9341 41.3056 13.9331C41.3072 13.9321 41.3087 13.931 41.3102 13.93C41.3117 13.929 41.3133 13.9279 41.3148 13.9269C41.3163 13.9258 41.3178 13.9248 41.3194 13.9238C41.3209 13.9227 41.3224 13.9217 41.3239 13.9207C41.3255 13.9196 41.327 13.9186 41.3285 13.9175C41.3301 13.9165 41.3316 13.9155 41.3331 13.9144C41.3346 13.9134 41.3362 13.9124 41.3377 13.9113C41.3392 13.9103 41.3407 13.9092 41.3423 13.9082C41.3438 13.9072 41.3453 13.9061 41.3468 13.9051C41.3484 13.9041 41.3499 13.903 41.3514 13.902C41.3529 13.9009 41.3545 13.8999 41.356 13.8989C41.3575 13.8978 41.359 13.8968 41.3606 13.8958C41.3621 13.8947 41.3636 13.8937 41.3651 13.8926C41.3667 13.8916 41.3682 13.8906 41.3697 13.8895C41.3713 13.8885 41.3728 13.8875 41.3743 13.8864C41.3758 13.8854 41.3774 13.8843 41.3789 13.8833C41.3804 13.8823 41.3819 13.8812 41.3835 13.8802C41.385 13.8792 41.3865 13.8781 41.388 13.8771C41.3896 13.876 41.3911 13.875 41.3926 13.874C41.3941 13.8729 41.3957 13.8719 41.3972 13.8709C41.3987 13.8698 41.4002 13.8688 41.4018 13.8677C41.4033 13.8667 41.4048 13.8657 41.4063 13.8646C41.4079 13.8636 41.4094 13.8626 41.4109 13.8615C41.4124 13.8605 41.414 13.8594 41.4155 13.8584C41.417 13.8574 41.4186 13.8563 41.4201 13.8553C41.4216 13.8543 41.4231 13.8532 41.4247 13.8522C41.4262 13.8511 41.4277 13.8501 41.4292 13.8491C41.4308 13.848 41.4323 13.847 41.4338 13.846C41.4353 13.8449 41.4369 13.8439 41.4384 13.8428C41.4399 13.8418 41.4414 13.8408 41.443 13.8397C41.4445 13.8387 41.446 13.8377 41.4475 13.8366C41.4491 13.8356 41.4506 13.8345 41.4521 13.8335C41.4536 13.8325 41.4552 13.8314 41.4567 13.8304C41.4582 13.8294 41.4598 13.8283 41.4613 13.8273C41.4628 13.8262 41.4643 13.8252 41.4659 13.8242C41.4674 13.8231 41.4689 13.8221 41.4704 13.8211C41.472 13.82 41.4735 13.819 41.475 13.8179C41.4765 13.8169 41.4781 13.8159 41.4796 13.8148C41.4811 13.8138 41.4826 13.8127 41.4842 13.8117C41.4857 13.8107 41.4872 13.8096 41.4887 13.8086C41.4903 13.8076 41.4918 13.8065 41.4933 13.8055C41.4948 13.8044 41.4964 13.8034 41.4979 13.8024C41.4994 13.8013 41.5009 13.8003 41.5025 13.7993C41.504 13.7982 41.5055 13.7972 41.5071 13.7961C41.5086 13.7951 41.5101 13.7941 41.5116 13.793C41.5132 13.792 41.5147 13.791 41.5162 13.7899C41.5177 13.7889 41.5193 13.7878 41.5208 13.7868C41.5223 13.7858 41.5238 13.7847 41.5254 13.7837C41.5269 13.7827 41.5284 13.7816 41.5299 13.7806C41.5315 13.7795 41.533 13.7785 41.5345 13.7775C41.536 13.7764 41.5376 13.7754 41.5391 13.7744C41.5406 13.7733 41.5421 13.7723 41.5437 13.7712C41.5452 13.7702 41.5467 13.7692 41.5483 13.7681C41.5498 13.7671 41.5513 13.7661 41.5528 13.765C41.5544 13.764 41.5559 13.7629 41.5574 13.7619C41.5589 13.7609 41.5605 13.7598 41.562 13.7588C41.5635 13.7578 41.565 13.7567 41.5666 13.7557C41.5681 13.7546 41.5696 13.7536 41.5711 13.7526C41.5727 13.7515 41.5742 13.7505 41.5757 13.7495C41.5772 13.7484 41.5788 13.7474 41.5803 13.7463C41.5818 13.7453 41.5833 13.7443 41.5849 13.7432C41.5864 13.7422 41.5879 13.7412 41.5895 13.7401C41.591 13.7391 41.5925 13.738 41.594 13.737C41.5956 13.736 41.5971 13.7349 41.5986 13.7339C41.6001 13.7329 41.6017 13.7318 41.6032 13.7308L38.2293 8.76922C38.2278 8.77026 38.2263 8.7713 38.2247 8.77233C38.2232 8.77337 38.2217 8.77441 38.2202 8.77545C38.2186 8.77648 38.2171 8.77752 38.2156 8.77856C38.2141 8.7796 38.2125 8.78063 38.211 8.78167C38.2095 8.78271 38.208 8.78375 38.2064 8.78478C38.2049 8.78582 38.2034 8.78686 38.2019 8.7879C38.2003 8.78893 38.1988 8.78997 38.1973 8.79101C38.1958 8.79205 38.1942 8.79309 38.1927 8.79412C38.1912 8.79516 38.1896 8.7962 38.1881 8.79724C38.1866 8.79827 38.1851 8.79931 38.1835 8.80035C38.182 8.80139 38.1805 8.80242 38.179 8.80346C38.1774 8.8045 38.1759 8.80554 38.1744 8.80657C38.1729 8.80761 38.1713 8.80865 38.1698 8.80969C38.1683 8.81072 38.1668 8.81176 38.1652 8.8128C38.1637 8.81384 38.1622 8.81487 38.1607 8.81591C38.1591 8.81695 38.1576 8.81799 38.1561 8.81903C38.1546 8.82006 38.153 8.8211 38.1515 8.82214C38.15 8.82318 38.1484 8.82421 38.1469 8.82525C38.1454 8.82629 38.1439 8.82733 38.1423 8.82836C38.1408 8.8294 38.1393 8.83044 38.1378 8.83148C38.1362 8.83251 38.1347 8.83355 38.1332 8.83459C38.1317 8.83563 38.1301 8.83666 38.1286 8.8377C38.1271 8.83874 38.1256 8.83978 38.124 8.84081C38.1225 8.84185 38.121 8.84289 38.1195 8.84393C38.1179 8.84496 38.1164 8.846 38.1149 8.84704C38.1134 8.84808 38.1118 8.84912 38.1103 8.85015C38.1088 8.85119 38.1073 8.85223 38.1057 8.85327C38.1042 8.8543 38.1027 8.85534 38.1011 8.85638C38.0996 8.85742 38.0981 8.85845 38.0966 8.85949C38.095 8.86053 38.0935 8.86157 38.092 8.8626C38.0905 8.86364 38.0889 8.86468 38.0874 8.86572C38.0859 8.86675 38.0844 8.86779 38.0828 8.86883C38.0813 8.86987 38.0798 8.8709 38.0783 8.87194C38.0767 8.87298 38.0752 8.87402 38.0737 8.87506C38.0722 8.87609 38.0706 8.87713 38.0691 8.87817C38.0676 8.87921 38.0661 8.88024 38.0645 8.88128C38.063 8.88232 38.0615 8.88336 38.0599 8.88439C38.0584 8.88543 38.0569 8.88647 38.0554 8.88751C38.0538 8.88854 38.0523 8.88958 38.0508 8.89062C38.0493 8.89166 38.0477 8.89269 38.0462 8.89373C38.0447 8.89477 38.0432 8.89581 38.0416 8.89684C38.0401 8.89788 38.0386 8.89892 38.0371 8.89996C38.0355 8.901 38.034 8.90203 38.0325 8.90307C38.031 8.90411 38.0294 8.90515 38.0279 8.90618C38.0264 8.90722 38.0249 8.90826 38.0233 8.9093C38.0218 8.91033 38.0203 8.91137 38.0187 8.91241C38.0172 8.91345 38.0157 8.91448 38.0142 8.91552C38.0126 8.91656 38.0111 8.9176 38.0096 8.91863C38.0081 8.91967 38.0065 8.92071 38.005 8.92175C38.0035 8.92278 38.002 8.92382 38.0004 8.92486C37.9989 8.9259 37.9974 8.92694 37.9959 8.92797C37.9943 8.92901 37.9928 8.93005 37.9913 8.93109C37.9898 8.93212 37.9882 8.93316 37.9867 8.9342C37.9852 8.93524 37.9837 8.93627 37.9821 8.93731C37.9806 8.93835 37.9791 8.93939 37.9776 8.94042C37.976 8.94146 37.9745 8.9425 37.973 8.94354C37.9714 8.94457 37.9699 8.94561 37.9684 8.94665C37.9669 8.94769 37.9653 8.94872 37.9638 8.94976C37.9623 8.9508 37.9608 8.95184 37.9592 8.95288C37.9577 8.95391 37.9562 8.95495 37.9547 8.95599C37.9531 8.95703 37.9516 8.95806 37.9501 8.9591C37.9486 8.96014 37.947 8.96118 37.9455 8.96221C37.944 8.96325 37.9425 8.96429 37.9409 8.96533C37.9394 8.96636 37.9379 8.9674 37.9364 8.96844C37.9348 8.96948 37.9333 8.97051 37.9318 8.97155C37.9302 8.97259 37.9287 8.97363 37.9272 8.97466C37.9257 8.9757 37.9241 8.97674 37.9226 8.97778C37.9211 8.97882 37.9196 8.97985 37.918 8.98089C37.9165 8.98193 37.915 8.98297 37.9135 8.984C37.9119 8.98504 37.9104 8.98608 37.9089 8.98712C37.9074 8.98815 37.9058 8.98919 37.9043 8.99023C37.9028 8.99127 37.9013 8.9923 37.8997 8.99334C37.8982 8.99438 37.8967 8.99542 37.8952 8.99645C37.8936 8.99749 37.8921 8.99853 37.8906 8.99957C37.889 9.0006 37.8875 9.00164 37.886 9.00268C37.8845 9.00372 37.8829 9.00476 37.8814 9.00579C37.8799 9.00683 37.8784 9.00787 37.8768 9.00891C37.8753 9.00994 37.8738 9.01098 37.8723 9.01202C37.8707 9.01306 37.8692 9.01409 37.8677 9.01513C37.8662 9.01617 37.8646 9.01721 37.8631 9.01824C37.8616 9.01928 37.8601 9.02032 37.8585 9.02136C37.857 9.02239 37.8555 9.02343 37.854 9.02447C37.8524 9.02551 37.8509 9.02654 37.8494 9.02758C37.8479 9.02862 37.8463 9.02966 37.8448 9.03069C37.8433 9.03173 37.8417 9.03277 37.8402 9.03381C37.8387 9.03485 37.8372 9.03588 37.8356 9.03692C37.8341 9.03796 37.8326 9.039 37.8311 9.04003C37.8295 9.04107 37.828 9.04211 37.8265 9.04315C37.825 9.04418 37.8234 9.04522 37.8219 9.04626C37.8204 9.0473 37.8189 9.04833 37.8173 9.04937C37.8158 9.05041 37.8143 9.05145 37.8128 9.05248C37.8112 9.05352 37.8097 9.05456 37.8082 9.0556C37.8067 9.05663 37.8051 9.05767 37.8036 9.05871C37.8021 9.05975 37.8005 9.06079 37.799 9.06182C37.7975 9.06286 37.796 9.0639 37.7944 9.06494C37.7929 9.06597 37.7914 9.06701 37.7899 9.06805C37.7883 9.06909 37.7868 9.07012 37.7853 9.07116C37.7838 9.0722 37.7822 9.07324 37.7807 9.07427C37.7792 9.07531 37.7777 9.07635 37.7761 9.07739C37.7746 9.07842 37.7731 9.07946 37.7716 9.0805C37.77 9.08154 37.7685 9.08257 37.767 9.08361C37.7655 9.08465 37.7639 9.08569 37.7624 9.08673C37.7609 9.08776 37.7593 9.0888 37.7578 9.08984C37.7563 9.09088 37.7548 9.09191 37.7532 9.09295C37.7517 9.09399 37.7502 9.09503 37.7487 9.09606C37.7471 9.0971 37.7456 9.09814 37.7441 9.09918C37.7426 9.10021 37.741 9.10125 37.7395 9.10229C37.738 9.10333 37.7365 9.10436 37.7349 9.1054C37.7334 9.10644 37.7319 9.10748 37.7304 9.10851C37.7288 9.10955 37.7273 9.11059 37.7258 9.11163C37.7243 9.11267 37.7227 9.1137 37.7212 9.11474C37.7197 9.11578 37.7182 9.11682 37.7166 9.11785C37.7151 9.11889 37.7136 9.11993 37.712 9.12097C37.7105 9.122 37.709 9.12304 37.7075 9.12408C37.7059 9.12512 37.7044 9.12615 37.7029 9.12719C37.7014 9.12823 37.6998 9.12927 37.6983 9.1303C37.6968 9.13134 37.6953 9.13238 37.6937 9.13342C37.6922 9.13445 37.6907 9.13549 37.6892 9.13653C37.6876 9.13757 37.6861 9.13861 37.6846 9.13964C37.6831 9.14068 37.6815 9.14172 37.68 9.14276C37.6785 9.14379 37.677 9.14483 37.6754 9.14587C37.6739 9.14691 37.6724 9.14794 37.6708 9.14898C37.6693 9.15002 37.6678 9.15106 37.6663 9.15209C37.6647 9.15313 37.6632 9.15417 37.6617 9.15521C37.6602 9.15624 37.6586 9.15728 37.6571 9.15832C37.6556 9.15936 37.6541 9.16039 37.6525 9.16143C37.651 9.16247 37.6495 9.16351 37.648 9.16455C37.6464 9.16558 37.6449 9.16662 37.6434 9.16766C37.6419 9.1687 37.6403 9.16973 37.6388 9.17077C37.6373 9.17181 37.6358 9.17285 37.6342 9.17388C37.6327 9.17492 37.6312 9.17596 37.6297 9.177C37.6281 9.17803 37.6266 9.17907 37.6251 9.18011C37.6235 9.18115 37.622 9.18218 37.6205 9.18322C37.619 9.18426 37.6174 9.1853 37.6159 9.18633C37.6144 9.18737 37.6129 9.18841 37.6113 9.18945C37.6098 9.19049 37.6083 9.19152 37.6068 9.19256C37.6052 9.1936 37.6037 9.19464 37.6022 9.19567C37.6007 9.19671 37.5991 9.19775 37.5976 9.19879C37.5961 9.19982 37.5946 9.20086 37.593 9.2019C37.5915 9.20294 37.59 9.20397 37.5885 9.20501C37.5869 9.20605 37.5854 9.20709 37.5839 9.20812C37.5823 9.20916 37.5808 9.2102 37.5793 9.21124C37.5778 9.21227 37.5762 9.21331 37.5747 9.21435C37.5732 9.21539 37.5717 9.21642 37.5701 9.21746C37.5686 9.2185 37.5671 9.21954 37.5656 9.22058C37.564 9.22161 37.5625 9.22265 37.561 9.22369C37.5595 9.22473 37.5579 9.22576 37.5564 9.2268C37.5549 9.22784 37.5534 9.22888 37.5518 9.22991C37.5503 9.23095 37.5488 9.23199 37.5473 9.23303C37.5457 9.23406 37.5442 9.2351 37.5427 9.23614C37.5411 9.23718 37.5396 9.23821 37.5381 9.23925C37.5366 9.24029 37.535 9.24133 37.5335 9.24236C37.532 9.2434 37.5305 9.24444 37.5289 9.24548C37.5274 9.24652 37.5259 9.24755 37.5244 9.24859C37.5228 9.24963 37.5213 9.25067 37.5198 9.2517C37.5183 9.25274 37.5167 9.25378 37.5152 9.25482C37.5137 9.25585 37.5122 9.25689 37.5106 9.25793C37.5091 9.25897 37.5076 9.26 37.5061 9.26104C37.5045 9.26208 37.503 9.26312 37.5015 9.26415C37.5 9.26519 37.4984 9.26623 37.4969 9.26727C37.4954 9.2683 37.4938 9.26934 37.4923 9.27038C37.4908 9.27142 37.4893 9.27246 37.4877 9.27349C37.4862 9.27453 37.4847 9.27557 37.4832 9.27661C37.4816 9.27764 37.4801 9.27868 37.4786 9.27972C37.4771 9.28076 37.4755 9.28179 37.474 9.28283C37.4725 9.28387 37.471 9.28491 37.4694 9.28594C37.4679 9.28698 37.4664 9.28802 37.4649 9.28906C37.4633 9.29009 37.4618 9.29113 37.4603 9.29217C37.4588 9.29321 37.4572 9.29424 37.4557 9.29528C37.4542 9.29632 37.4526 9.29736 37.4511 9.2984C37.4496 9.29943 37.4481 9.30047 37.4465 9.30151C37.445 9.30255 37.4435 9.30358 37.442 9.30462C37.4404 9.30566 37.4389 9.3067 37.4374 9.30773C37.4359 9.30877 37.4343 9.30981 37.4328 9.31085C37.4313 9.31188 37.4298 9.31292 37.4282 9.31396C37.4267 9.315 37.4252 9.31603 37.4237 9.31707C37.4221 9.31811 37.4206 9.31915 37.4191 9.32018C37.4176 9.32122 37.416 9.32226 37.4145 9.3233C37.413 9.32434 37.4114 9.32537 37.4099 9.32641C37.4084 9.32745 37.4069 9.32849 37.4053 9.32952C37.4038 9.33056 37.4023 9.3316 37.4008 9.33264C37.3992 9.33367 37.3977 9.33471 37.3962 9.33575C37.3947 9.33679 37.3931 9.33782 37.3916 9.33886C37.3901 9.3399 37.3886 9.34094 37.387 9.34197C37.3855 9.34301 37.384 9.34405 37.3825 9.34509C37.3809 9.34612 37.3794 9.34716 37.3779 9.3482C37.3764 9.34924 37.3748 9.35028 37.3733 9.35131C37.3718 9.35235 37.3703 9.35339 37.3687 9.35443C37.3672 9.35546 37.3657 9.3565 37.3641 9.35754C37.3626 9.35858 37.3611 9.35961 37.3596 9.36065C37.358 9.36169 37.3565 9.36273 37.355 9.36376C37.3535 9.3648 37.3519 9.36584 37.3504 9.36688C37.3489 9.36791 37.3474 9.36895 37.3458 9.36999C37.3443 9.37103 37.3428 9.37206 37.3413 9.3731C37.3397 9.37414 37.3382 9.37518 37.3367 9.37621C37.3352 9.37725 37.3336 9.37829 37.3321 9.37933C37.3306 9.38037 37.3291 9.3814 37.3275 9.38244C37.326 9.38348 37.3245 9.38452 37.3229 9.38555C37.3214 9.38659 37.3199 9.38763 37.3184 9.38867C37.3168 9.3897 37.3153 9.39074 37.3138 9.39178C37.3123 9.39282 37.3107 9.39385 37.3092 9.39489C37.3077 9.39593 37.3062 9.39697 37.3046 9.398C37.3031 9.39904 37.3016 9.40008 37.3001 9.40112C37.2985 9.40215 37.297 9.40319 37.2955 9.40423C37.294 9.40527 37.2924 9.40631 37.2909 9.40734C37.2894 9.40838 37.2879 9.40942 37.2863 9.41046C37.2848 9.41149 37.2833 9.41253 37.2817 9.41357C37.2802 9.41461 37.2787 9.41564 37.2772 9.41668C37.2756 9.41772 37.2741 9.41876 37.2726 9.41979C37.2711 9.42083 37.2695 9.42187 37.268 9.42291C37.2665 9.42394 37.265 9.42498 37.2634 9.42602C37.2619 9.42706 37.2604 9.42809 37.2589 9.42913C37.2573 9.43017 37.2558 9.43121 37.2543 9.43225C37.2528 9.43328 37.2512 9.43432 37.2497 9.43536C37.2482 9.4364 37.2467 9.43743 37.2451 9.43847C37.2436 9.43951 37.2421 9.44055 37.2406 9.44158C37.239 9.44262 37.2375 9.44366 37.236 9.4447C37.2344 9.44573 37.2329 9.44677 37.2314 9.44781C37.2299 9.44885 37.2283 9.44988 37.2268 9.45092C37.2253 9.45196 37.2238 9.453 37.2222 9.45403C37.2207 9.45507 37.2192 9.45611 37.2177 9.45715C37.2161 9.45819 37.2146 9.45922 37.2131 9.46026C37.2116 9.4613 37.21 9.46234 37.2085 9.46337C37.207 9.46441 37.2055 9.46545 37.2039 9.46649C37.2024 9.46752 37.2009 9.46856 37.1994 9.4696C37.1978 9.47064 37.1963 9.47167 37.1948 9.47271C37.1932 9.47375 37.1917 9.47479 37.1902 9.47582C37.1887 9.47686 37.1871 9.4779 37.1856 9.47894C37.1841 9.47997 37.1826 9.48101 37.181 9.48205C37.1795 9.48309 37.178 9.48413 37.1765 9.48516C37.1749 9.4862 37.1734 9.48724 37.1719 9.48828C37.1704 9.48931 37.1688 9.49035 37.1673 9.49139C37.1658 9.49243 37.1643 9.49346 37.1627 9.4945C37.1612 9.49554 37.1597 9.49658 37.1582 9.49761C37.1566 9.49865 37.1551 9.49969 37.1536 9.50073C37.1521 9.50176 37.1505 9.5028 37.149 9.50384C37.1475 9.50488 37.1459 9.50591 37.1444 9.50695C37.1429 9.50799 37.1414 9.50903 37.1398 9.51007C37.1383 9.5111 37.1368 9.51214 37.1353 9.51318C37.1337 9.51422 37.1322 9.51525 37.1307 9.51629C37.1292 9.51733 37.1276 9.51837 37.1261 9.5194C37.1246 9.52044 37.1231 9.52148 37.1215 9.52252C37.12 9.52355 37.1185 9.52459 37.117 9.52563C37.1154 9.52667 37.1139 9.5277 37.1124 9.52874C37.1109 9.52978 37.1093 9.53082 37.1078 9.53185C37.1063 9.53289 37.1047 9.53393 37.1032 9.53497C37.1017 9.53601 37.1002 9.53704 37.0986 9.53808C37.0971 9.53912 37.0956 9.54016 37.0941 9.54119C37.0925 9.54223 37.091 9.54327 37.0895 9.54431C37.088 9.54534 37.0864 9.54638 37.0849 9.54742C37.0834 9.54846 37.0819 9.54949 37.0803 9.55053C37.0788 9.55157 37.0773 9.55261 37.0758 9.55364C37.0742 9.55468 37.0727 9.55572 37.0712 9.55676C37.0697 9.55779 37.0681 9.55883 37.0666 9.55987C37.0651 9.56091 37.0635 9.56194 37.062 9.56298C37.0605 9.56402 37.059 9.56506 37.0574 9.5661C37.0559 9.56713 37.0544 9.56817 37.0529 9.56921C37.0513 9.57025 37.0498 9.57128 37.0483 9.57232C37.0468 9.57336 37.0452 9.5744 37.0437 9.57543C37.0422 9.57647 37.0407 9.57751 37.0391 9.57855C37.0376 9.57958 37.0361 9.58062 37.0346 9.58166C37.033 9.5827 37.0315 9.58373 37.03 9.58477C37.0285 9.58581 37.0269 9.58685 37.0254 9.58788C37.0239 9.58892 37.0224 9.58996 37.0208 9.591C37.0193 9.59204 37.0178 9.59307 37.0162 9.59411C37.0147 9.59515 37.0132 9.59619 37.0117 9.59722C37.0101 9.59826 37.0086 9.5993 37.0071 9.60034C37.0056 9.60137 37.004 9.60241 37.0025 9.60345C37.001 9.60449 36.9995 9.60552 36.9979 9.60656C36.9964 9.6076 36.9949 9.60864 36.9934 9.60967C36.9918 9.61071 36.9903 9.61175 36.9888 9.61279C36.9873 9.61382 36.9857 9.61486 36.9842 9.6159C36.9827 9.61694 36.9812 9.61798 36.9796 9.61901C36.9781 9.62005 36.9766 9.62109 36.975 9.62213C36.9735 9.62316 36.972 9.6242 36.9705 9.62524C36.9689 9.62628 36.9674 9.62731 36.9659 9.62835C36.9644 9.62939 36.9628 9.63043 36.9613 9.63146C36.9598 9.6325 36.9583 9.63354 36.9567 9.63458C36.9552 9.63561 36.9537 9.63665 36.9522 9.63769C36.9506 9.63873 36.9491 9.63976 36.9476 9.6408C36.9461 9.64184 36.9445 9.64288 36.943 9.64392C36.9415 9.64495 36.94 9.64599 36.9384 9.64703C36.9369 9.64807 36.9354 9.6491 36.9338 9.65014C36.9323 9.65118 36.9308 9.65222 36.9293 9.65325C36.9277 9.65429 36.9262 9.65533 36.9247 9.65637C36.9232 9.6574 36.9216 9.65844 36.9201 9.65948C36.9186 9.66052 36.9171 9.66155 36.9155 9.66259C36.914 9.66363 36.9125 9.66467 36.911 9.6657C36.9094 9.66674 36.9079 9.66778 36.9064 9.66882C36.9049 9.66986 36.9033 9.67089 36.9018 9.67193C36.9003 9.67297 36.8988 9.67401 36.8972 9.67504C36.8957 9.67608 36.8942 9.67712 36.8927 9.67816C36.8911 9.67919 36.8896 9.68023 36.8881 9.68127C36.8865 9.68231 36.885 9.68334 36.8835 9.68438C36.882 9.68542 36.8804 9.68646 36.8789 9.68749C36.8774 9.68853 36.8759 9.68957 36.8743 9.69061C36.8728 9.69164 36.8713 9.69268 36.8698 9.69372C36.8682 9.69476 36.8667 9.6958 36.8652 9.69683C36.8637 9.69787 36.8621 9.69891 36.8606 9.69995C36.8591 9.70098 36.8576 9.70202 36.856 9.70306C36.8545 9.7041 36.853 9.70513 36.8515 9.70617C36.8499 9.70721 36.8484 9.70825 36.8469 9.70928C36.8453 9.71032 36.8438 9.71136 36.8423 9.7124C36.8408 9.71343 36.8392 9.71447 36.8377 9.71551C36.8362 9.71655 36.8347 9.71758 36.8331 9.71862C36.8316 9.71966 36.8301 9.7207 36.8286 9.72174C36.827 9.72277 36.8255 9.72381 36.824 9.72485C36.8225 9.72589 36.8209 9.72692 36.8194 9.72796C36.8179 9.729 36.8164 9.73004 36.8148 9.73107C36.8133 9.73211 36.8118 9.73315 36.8103 9.73419C36.8087 9.73522 36.8072 9.73626 36.8057 9.7373C36.8041 9.73834 36.8026 9.73937 36.8011 9.74041C36.7996 9.74145 36.798 9.74249 36.7965 9.74352C36.795 9.74456 36.7935 9.7456 36.7919 9.74664C36.7904 9.74767 36.7889 9.74871 36.7874 9.74975C36.7858 9.75079 36.7843 9.75183 36.7828 9.75286C36.7813 9.7539 36.7797 9.75494 36.7782 9.75598C36.7767 9.75701 36.7752 9.75805 36.7736 9.75909C36.7721 9.76013 36.7706 9.76116 36.7691 9.7622C36.7675 9.76324 36.766 9.76428 36.7645 9.76531C36.763 9.76635 36.7614 9.76739 36.7599 9.76843C36.7584 9.76946 36.7568 9.7705 36.7553 9.77154C36.7538 9.77258 36.7523 9.77361 36.7507 9.77465C36.7492 9.77569 36.7477 9.77673 36.7462 9.77777C36.7446 9.7788 36.7431 9.77984 36.7416 9.78088C36.7401 9.78192 36.7385 9.78295 36.737 9.78399C36.7355 9.78503 36.734 9.78607 36.7324 9.7871C36.7309 9.78814 36.7294 9.78918 36.7279 9.79022C36.7263 9.79125 36.7248 9.79229 36.7233 9.79333C36.7218 9.79437 36.7202 9.7954 36.7187 9.79644C36.7172 9.79748 36.7156 9.79852 36.7141 9.79955C36.7126 9.80059 36.7111 9.80163 36.7095 9.80267C36.708 9.80371 36.7065 9.80474 36.705 9.80578C36.7034 9.80682 36.7019 9.80786 36.7004 9.80889C36.6989 9.80993 36.6973 9.81097 36.6958 9.81201C36.6943 9.81304 36.6928 9.81408 36.6912 9.81512C36.6897 9.81616 36.6882 9.81719 36.6867 9.81823C36.6851 9.81927 36.6836 9.82031 36.6821 9.82134C36.6806 9.82238 36.679 9.82342 36.6775 9.82446C36.676 9.82549 36.6744 9.82653 36.6729 9.82757C36.6714 9.82861 36.6699 9.82965 36.6683 9.83068C36.6668 9.83172 36.6653 9.83276 36.6638 9.8338C36.6622 9.83483 36.6607 9.83587 36.6592 9.83691C36.6577 9.83795 36.6561 9.83898 36.6546 9.84002C36.6531 9.84106 36.6516 9.8421 36.65 9.84313C36.6485 9.84417 36.647 9.84521 36.6455 9.84625C36.6439 9.84728 36.6424 9.84832 36.6409 9.84936C36.6394 9.8504 36.6378 9.85143 36.6363 9.85247C36.6348 9.85351 36.6333 9.85455 36.6317 9.85559C36.6302 9.85662 36.6287 9.85766 36.6271 9.8587C36.6256 9.85974 36.6241 9.86077 36.6226 9.86181C36.621 9.86285 36.6195 9.86389 36.618 9.86492C36.6165 9.86596 36.6149 9.867 36.6134 9.86804C36.6119 9.86907 36.6104 9.87011 36.6088 9.87115C36.6073 9.87219 36.6058 9.87322 36.6043 9.87426C36.6027 9.8753 36.6012 9.87634 36.5997 9.87737C36.5982 9.87841 36.5966 9.87945 36.5951 9.88049C36.5936 9.88153 36.5921 9.88256 36.5905 9.8836C36.589 9.88464 36.5875 9.88568 36.5859 9.88671C36.5844 9.88775 36.5829 9.88879 36.5814 9.88983C36.5798 9.89086 36.5783 9.8919 36.5768 9.89294C36.5753 9.89398 36.5737 9.89501 36.5722 9.89605C36.5707 9.89709 36.5692 9.89813 36.5676 9.89916C36.5661 9.9002 36.5646 9.90124 36.5631 9.90228C36.5615 9.90331 36.56 9.90435 36.5585 9.90539C36.557 9.90643 36.5554 9.90746 36.5539 9.9085C36.5524 9.90954 36.5509 9.91058 36.5493 9.91162C36.5478 9.91265 36.5463 9.91369 36.5448 9.91473C36.5432 9.91577 36.5417 9.9168 36.5402 9.91784C36.5386 9.91888 36.5371 9.91992 36.5356 9.92095C36.5341 9.92199 36.5325 9.92303 36.531 9.92407C36.5295 9.9251 36.528 9.92614 36.5264 9.92718C36.5249 9.92822 36.5234 9.92925 36.5219 9.93029C36.5203 9.93133 36.5188 9.93237 36.5173 9.9334C36.5158 9.93444 36.5142 9.93548 36.5127 9.93652C36.5112 9.93756 36.5097 9.93859 36.5081 9.93963C36.5066 9.94067 36.5051 9.94171 36.5036 9.94274C36.502 9.94378 36.5005 9.94482 36.499 9.94586C36.4974 9.94689 36.4959 9.94793 36.4944 9.94897C36.4929 9.95001 36.4913 9.95104 36.4898 9.95208C36.4883 9.95312 36.4868 9.95416 36.4852 9.95519C36.4837 9.95623 36.4822 9.95727 36.4807 9.95831C36.4791 9.95934 36.4776 9.96038 36.4761 9.96142C36.4746 9.96246 36.473 9.9635 36.4715 9.96453C36.47 9.96557 36.4685 9.96661 36.4669 9.96765C36.4654 9.96868 36.4639 9.96972 36.4624 9.97076C36.4608 9.9718 36.4593 9.97283 36.4578 9.97387C36.4562 9.97491 36.4547 9.97595 36.4532 9.97698C36.4517 9.97802 36.4501 9.97906 36.4486 9.9801C36.4471 9.98113 36.4456 9.98217 36.444 9.98321C36.4425 9.98425 36.441 9.98528 36.4395 9.98632C36.4379 9.98736 36.4364 9.9884 36.4349 9.98944C36.4334 9.99047 36.4318 9.99151 36.4303 9.99255C36.4288 9.99359 36.4273 9.99462 36.4257 9.99566C36.4242 9.9967 36.4227 9.99774 36.4212 9.99877C36.4196 9.99981 36.4181 10.0008 36.4166 10.0019C36.4151 10.0029 36.4135 10.004 36.412 10.005C36.4105 10.006 36.4089 10.0071 36.4074 10.0081C36.4059 10.0091 36.4044 10.0102 36.4028 10.0112C36.4013 10.0123 36.3998 10.0133 36.3983 10.0143C36.3967 10.0154 36.3952 10.0164 36.3937 10.0175C36.3922 10.0185 36.3906 10.0195 36.3891 10.0206C36.3876 10.0216 36.3861 10.0226 36.3845 10.0237C36.383 10.0247 36.3815 10.0258 36.38 10.0268C36.3784 10.0278 36.3769 10.0289 36.3754 10.0299C36.3739 10.0309 36.3723 10.032 36.3708 10.033C36.3693 10.0341 36.3677 10.0351 36.3662 10.0361C36.3647 10.0372 36.3632 10.0382 36.3616 10.0392C36.3601 10.0403 36.3586 10.0413 36.3571 10.0424C36.3555 10.0434 36.354 10.0444 36.3525 10.0455C36.351 10.0465 36.3494 10.0475 36.3479 10.0486C36.3464 10.0496 36.3449 10.0507 36.3433 10.0517C36.3418 10.0527 36.3403 10.0538 36.3388 10.0548C36.3372 10.0558 36.3357 10.0569 36.3342 10.0579C36.3327 10.059 36.3311 10.06 36.3296 10.061C36.3281 10.0621 36.3265 10.0631 36.325 10.0641C36.3235 10.0652 36.322 10.0662 36.3204 10.0673C36.3189 10.0683 36.3174 10.0693 36.3159 10.0704C36.3143 10.0714 36.3128 10.0724 36.3113 10.0735C36.3098 10.0745 36.3082 10.0756 36.3067 10.0766C36.3052 10.0776 36.3037 10.0787 36.3021 10.0797C36.3006 10.0807 36.2991 10.0818 36.2976 10.0828C36.296 10.0839 36.2945 10.0849 36.293 10.0859C36.2915 10.087 36.2899 10.088 36.2884 10.089C36.2869 10.0901 36.2854 10.0911 36.2838 10.0922C36.2823 10.0932 36.2808 10.0942 36.2792 10.0953C36.2777 10.0963 36.2762 10.0973 36.2747 10.0984C36.2731 10.0994 36.2716 10.1005 36.2701 10.1015C36.2686 10.1025 36.267 10.1036 36.2655 10.1046C36.264 10.1056 36.2625 10.1067 36.2609 10.1077C36.2594 10.1088 36.2579 10.1098 36.2564 10.1108C36.2548 10.1119 36.2533 10.1129 36.2518 10.1139C36.2503 10.115 36.2487 10.116 36.2472 10.1171C36.2457 10.1181 36.2442 10.1191 36.2426 10.1202C36.2411 10.1212 36.2396 10.1222 36.238 10.1233C36.2365 10.1243 36.235 10.1254 36.2335 10.1264C36.2319 10.1274 36.2304 10.1285 36.2289 10.1295C36.2274 10.1305 36.2258 10.1316 36.2243 10.1326C36.2228 10.1337 36.2213 10.1347 36.2197 10.1357C36.2182 10.1368 36.2167 10.1378 36.2152 10.1388C36.2136 10.1399 36.2121 10.1409 36.2106 10.142C36.2091 10.143 36.2075 10.144 36.206 10.1451C36.2045 10.1461 36.203 10.1472 36.2014 10.1482C36.1999 10.1492 36.1984 10.1503 36.1968 10.1513C36.1953 10.1523 36.1938 10.1534 36.1923 10.1544C36.1907 10.1555 36.1892 10.1565 36.1877 10.1575C36.1862 10.1586 36.1846 10.1596 36.1831 10.1606C36.1816 10.1617 36.1801 10.1627 36.1785 10.1638C36.177 10.1648 36.1755 10.1658 36.174 10.1669C36.1724 10.1679 36.1709 10.1689 36.1694 10.17C36.1679 10.171 36.1663 10.1721 36.1648 10.1731C36.1633 10.1741 36.1618 10.1752 36.1602 10.1762C36.1587 10.1772 36.1572 10.1783 36.1557 10.1793C36.1541 10.1804 36.1526 10.1814 36.1511 10.1824C36.1495 10.1835 36.148 10.1845 36.1465 10.1855C36.145 10.1866 36.1434 10.1876 36.1419 10.1887C36.1404 10.1897 36.1389 10.1907 36.1373 10.1918C36.1358 10.1928 36.1343 10.1938 36.1328 10.1949C36.1312 10.1959 36.1297 10.197 36.1282 10.198C36.1267 10.199 36.1251 10.2001 36.1236 10.2011C36.1221 10.2021 36.1206 10.2032 36.119 10.2042C36.1175 10.2053 36.116 10.2063 36.1145 10.2073C36.1129 10.2084 36.1114 10.2094 36.1099 10.2104C36.1083 10.2115 36.1068 10.2125 36.1053 10.2136C36.1038 10.2146 36.1022 10.2156 36.1007 10.2167C36.0992 10.2177 36.0977 10.2187 36.0961 10.2198C36.0946 10.2208 36.0931 10.2219 36.0916 10.2229C36.09 10.2239 36.0885 10.225 36.087 10.226C36.0855 10.227 36.0839 10.2281 36.0824 10.2291C36.0809 10.2302 36.0794 10.2312 36.0778 10.2322C36.0763 10.2333 36.0748 10.2343 36.0733 10.2353C36.0717 10.2364 36.0702 10.2374 36.0687 10.2385C36.0672 10.2395 36.0656 10.2405 36.0641 10.2416C36.0626 10.2426 36.061 10.2436 36.0595 10.2447C36.058 10.2457 36.0565 10.2468 36.0549 10.2478C36.0534 10.2488 36.0519 10.2499 36.0504 10.2509C36.0488 10.2519 36.0473 10.253 36.0458 10.254C36.0443 10.2551 36.0427 10.2561 36.0412 10.2571C36.0397 10.2582 36.0382 10.2592 36.0366 10.2602C36.0351 10.2613 36.0336 10.2623 36.0321 10.2634C36.0305 10.2644 36.029 10.2654 36.0275 10.2665C36.026 10.2675 36.0244 10.2685 36.0229 10.2696C36.0214 10.2706 36.0198 10.2717 36.0183 10.2727C36.0168 10.2737 36.0153 10.2748 36.0137 10.2758C36.0122 10.2768 36.0107 10.2779 36.0092 10.2789C36.0076 10.28 36.0061 10.281 36.0046 10.282C36.0031 10.2831 36.0015 10.2841 36 10.2852C35.9985 10.2862 35.997 10.2872 35.9954 10.2883C35.9939 10.2893 35.9924 10.2903 35.9909 10.2914C35.9893 10.2924 35.9878 10.2935 35.9863 10.2945C35.9848 10.2955 35.9832 10.2966 35.9817 10.2976C35.9802 10.2986 35.9786 10.2997 35.9771 10.3007C35.9756 10.3018 35.9741 10.3028 35.9725 10.3038C35.971 10.3049 35.9695 10.3059 35.968 10.3069C35.9664 10.308 35.9649 10.309 35.9634 10.3101C35.9619 10.3111 35.9603 10.3121 35.9588 10.3132C35.9573 10.3142 35.9558 10.3152 35.9542 10.3163C35.9527 10.3173 35.9512 10.3184 35.9497 10.3194C35.9481 10.3204 35.9466 10.3215 35.9451 10.3225C35.9436 10.3235 35.942 10.3246 35.9405 10.3256C35.939 10.3267 35.9375 10.3277 35.9359 10.3287C35.9344 10.3298 35.9329 10.3308 35.9313 10.3318C35.9298 10.3329 35.9283 10.3339 35.9268 10.335C35.9252 10.336 35.9237 10.337 35.9222 10.3381C35.9207 10.3391 35.9191 10.3401 35.9176 10.3412C35.9161 10.3422 35.9146 10.3433 35.913 10.3443C35.9115 10.3453 35.91 10.3464 35.9085 10.3474C35.9069 10.3484 35.9054 10.3495 35.9039 10.3505C35.9024 10.3516 35.9008 10.3526 35.8993 10.3536C35.8978 10.3547 35.8963 10.3557 35.8947 10.3567C35.8932 10.3578 35.8917 10.3588 35.8901 10.3599C35.8886 10.3609 35.8871 10.3619 35.8856 10.363L39.2594 15.3245ZM41.6138 13.7235C42.4072 13.179 43.1927 12.6424 43.9704 12.1136L40.5965 7.15203C39.8116 7.68574 39.019 8.22722 38.2187 8.77646L41.6138 13.7235ZM42.2834 12.6328H42.7522V6.63281H42.2834V12.6328ZM39.7522 9.63281V33H45.7522V9.63281H39.7522ZM42.7522 36H52.5022V30H42.7522V36Z"
        fill="url(#paint0_linear_1092_41)" />
    <defs>
        <linearGradient id="paint0_linear_1092_41" x1="36.406" y1="16.5075" x2="-1.01928" y2="16.0247"
            gradientUnits="userSpaceOnUse">
            <stop stop-color="#76DBB3" />
            <stop offset="1" stop-color="#69BCF1" />
        </linearGradient>
    </defs>
</svg>