<svg width="64" height="57" viewBox="0 0 64 57" fill="none" xmlns="http://www.w3.org/2000/svg">
<path d="M12.7734 21.9766L10.6831 19.8247L10.6675 19.8399L10.6521 19.8552L12.7734 21.9766ZM16.4297 22L14.2778 24.0904L14.3081 24.1215L14.3393 24.1518L16.4297 22ZM17.7188 35.4297L20.6175 36.2027L20.62 36.1932L17.7188 35.4297ZM16.4297 38.0312L14.2787 35.94L14.2778 35.9409L16.4297 38.0312ZM12.7734 38.0312L10.6216 40.1216L10.6367 40.1372L10.6521 40.1526L12.7734 38.0312ZM11.5078 35.4531L8.60657 36.2166L8.60911 36.2261L11.5078 35.4531ZM2.69531 38.9688L-0.0630604 40.1483L-0.0583624 40.1593L-0.0535771 40.1703L2.69531 38.9688ZM7.19531 44.5234L5.50407 47.0013L5.5132 47.0075L7.19531 44.5234ZM20.4844 45.2734L21.8161 47.9616L21.826 47.9567L21.8358 47.9518L20.4844 45.2734ZM24.7031 41.7812L22.3215 39.957L22.3153 39.965L22.3093 39.9731L24.7031 41.7812ZM27.2109 36.7656L24.3375 35.9036L24.3342 35.9146L24.3309 35.9256L27.2109 36.7656ZM26.5078 20.9453L23.7551 22.1381L23.76 22.1492L23.7649 22.1603L26.5078 20.9453ZM22.0078 15.4609L20.3437 17.9571L20.3528 17.9631L22.0078 15.4609ZM7.40625 15.4844L9.04327 17.9984L9.048 17.9953L7.40625 15.4844ZM2.76562 20.9688L0.0401536 19.715L0.0366957 19.7226L0.0332793 19.7301L2.76562 20.9688ZM14.0391 29.0781C14.0391 27.3182 14.1882 26.0886 14.4039 25.2905L8.61172 23.7251C8.20242 25.2395 8.03906 27.0568 8.03906 29.0781H14.0391ZM14.4039 25.2905C14.5212 24.8564 14.6404 24.5523 14.7419 24.3495C14.8438 24.1456 14.9068 24.0858 14.8948 24.0979L10.6521 19.8552C9.59193 20.9154 8.98762 22.3343 8.61172 23.7251L14.4039 25.2905ZM14.8638 24.1284C14.916 24.0777 14.9103 24.0981 14.8394 24.129C14.8052 24.1439 14.764 24.1576 14.7184 24.167C14.6729 24.1765 14.6327 24.1797 14.6016 24.1797V18.1797C13.042 18.1797 11.7081 18.829 10.6831 19.8247L14.8638 24.1284ZM14.6016 24.1797C14.5732 24.1797 14.5325 24.1767 14.4836 24.1664C14.4345 24.1561 14.3876 24.1405 14.346 24.1218C14.2593 24.0829 14.2394 24.0508 14.2778 24.0904L18.5815 19.9096C17.5532 18.851 16.1922 18.1797 14.6016 18.1797V24.1797ZM14.3393 24.1518C14.3271 24.14 14.3888 24.1963 14.4888 24.3927C14.5887 24.5888 14.707 24.886 14.8227 25.314L20.6148 23.7485C20.2348 22.3425 19.6146 20.9115 18.52 19.8482L14.3393 24.1518ZM14.8227 25.314C15.0388 26.1137 15.1875 27.3365 15.1875 29.0781H21.1875C21.1875 27.0698 21.0237 25.2613 20.6148 23.7485L14.8227 25.314ZM15.1875 29.0781V30.8359H21.1875V29.0781H15.1875ZM15.1875 30.8359C15.1875 32.5734 15.0397 33.8221 14.8175 34.6662L20.62 36.1932C21.0228 34.6622 21.1875 32.8485 21.1875 30.8359H15.1875ZM14.82 34.6567C14.5739 35.5796 14.3238 35.8936 14.2787 35.94L18.5807 40.1225C19.6293 39.0439 20.2386 37.6235 20.6175 36.2027L14.82 34.6567ZM14.2778 35.9409C14.2394 35.9805 14.2593 35.9483 14.346 35.9094C14.3876 35.8908 14.4345 35.8752 14.4836 35.8648C14.5325 35.8545 14.5732 35.8516 14.6016 35.8516V41.8516C16.1922 41.8516 17.5532 41.1802 18.5815 40.1216L14.2778 35.9409ZM14.6016 35.8516C14.6386 35.8516 14.6846 35.8555 14.7355 35.8664C14.7865 35.8772 14.8318 35.8928 14.8688 35.9094C14.9449 35.9435 14.9505 35.9656 14.8948 35.9099L10.6521 40.1526C11.6694 41.1699 13.0125 41.8516 14.6016 41.8516V35.8516ZM14.9253 35.9409C14.9271 35.9428 14.8575 35.8703 14.7516 35.6545C14.6463 35.44 14.525 35.1243 14.4065 34.6801L8.60911 36.2261C8.98337 37.6296 9.5813 39.0507 10.6216 40.1216L14.9253 35.9409ZM14.409 34.6896C14.1873 33.8471 14.0391 32.5915 14.0391 30.8359H8.03906C8.03906 32.8616 8.2033 34.6841 8.60659 36.2166L14.409 34.6896ZM14.0391 30.8359V29.0781H8.03906V30.8359H14.0391ZM-1.82812 30.8594C-1.82812 34.2267 -1.26332 37.3416 -0.0630604 40.1483L5.45369 37.7892C4.62269 35.8459 4.17188 33.5546 4.17188 30.8594H-1.82812ZM-0.0535771 40.1703C1.18452 43.0029 3.03252 45.3143 5.50408 47.0013L8.88654 42.0456C7.4206 41.045 6.26861 39.6534 5.4442 37.7672L-0.0535771 40.1703ZM5.5132 47.0075C8.08615 48.7498 11.1314 49.5391 14.4844 49.5391V43.5391C12.0873 43.5391 10.2732 42.9846 8.87742 42.0394L5.5132 47.0075ZM14.4844 49.5391C17.1482 49.5391 19.6215 49.0489 21.8161 47.9616L19.1526 42.5852C17.941 43.1855 16.4143 43.5391 14.4844 43.5391V49.5391ZM21.8358 47.9518C23.933 46.8936 25.701 45.4376 27.097 43.5894L22.3093 39.9731C21.4865 41.0624 20.442 41.9345 19.1329 42.5951L21.8358 47.9518ZM27.0848 43.6055C28.4477 41.8261 29.4461 39.8166 30.0909 37.6056L24.3309 35.9256C23.8821 37.4646 23.2086 38.7989 22.3215 39.957L27.0848 43.6055ZM30.0844 37.6277C30.7352 35.4584 31.0547 33.1982 31.0547 30.8594H25.0547C25.0547 32.6456 24.8117 34.3229 24.3375 35.9036L30.0844 37.6277ZM31.0547 30.8594V29.0547H25.0547V30.8594H31.0547ZM31.0547 29.0547C31.0547 25.6437 30.4831 22.5123 29.2508 19.7303L23.7649 22.1603C24.5951 24.0346 25.0547 26.3094 25.0547 29.0547H31.0547ZM29.2605 19.7525C28.0314 16.9162 26.1683 14.6159 23.6628 12.9587L20.3528 17.9631C21.8161 18.9309 22.9529 20.2869 23.7551 22.1381L29.2605 19.7525ZM23.6719 12.9648C21.1106 11.2572 18.0692 10.4922 14.7188 10.4922V16.4922C17.1496 16.4922 18.9675 17.0396 20.3437 17.9571L23.6719 12.9648ZM14.7188 10.4922C11.394 10.4922 8.36286 11.2745 5.7645 12.9735L9.048 17.9953C10.5121 17.038 12.356 16.4922 14.7188 16.4922V10.4922ZM5.76923 12.9704C3.24446 14.6144 1.33699 16.8958 0.0401536 19.715L5.4911 22.2225C6.35051 20.3542 7.53679 18.9793 9.04327 17.9984L5.76923 12.9704ZM0.0332793 19.7301C-1.23508 22.5279 -1.82812 25.6582 -1.82812 29.0547H4.17188C4.17188 26.3574 4.64133 24.0971 5.49797 22.2074L0.0332793 19.7301ZM-1.82812 29.0547V30.8594H4.17188V29.0547H-1.82812ZM45.1116 33.0391H42.1116V36.0391H45.1116V33.0391ZM50.9944 33.5078L49.5678 36.1469L49.5957 36.162L49.624 36.1765L50.9944 33.5078ZM52.2834 34.6797L49.6891 36.1861L49.7181 36.236L49.749 36.2848L52.2834 34.6797ZM50.9241 38.875L49.6117 36.1773L49.597 36.1844L49.5824 36.1917L50.9241 38.875ZM45.2522 37.7969L42.9536 39.7247L42.9692 39.7433L42.9851 39.7617L45.2522 37.7969ZM44.6428 36.1328H47.6428V33.1328H44.6428V36.1328ZM35.7131 36.1328V33.1328H32.7131V36.1328H35.7131ZM37.0959 41.2422L34.4991 42.7443L34.5055 42.7554L37.0959 41.2422ZM41.3616 45.0859L39.9939 47.7561L40.0026 47.7605L40.0112 47.7648L41.3616 45.0859ZM53.8069 45.9297L54.528 48.8417L54.541 48.8385L54.554 48.8352L53.8069 45.9297ZM61.3069 41.0781L63.8283 42.7037L63.8331 42.6963L63.8379 42.6888L61.3069 41.0781ZM61.4944 32.7812L58.8806 34.2538L58.893 34.2757L58.9057 34.2975L61.4944 32.7812ZM55.8928 29.2891H52.8928V32.1248L55.7241 32.2843L55.8928 29.2891ZM55.8928 28.7969L55.5423 25.8174L52.8928 26.1291V28.7969H55.8928ZM60.6975 25.7734L63.2062 27.4185L63.2123 27.4092L63.2184 27.3998L60.6975 25.7734ZM55.4241 14.5469L54.3707 17.3559L54.3783 17.3587L55.4241 14.5469ZM43.7288 14.1953L44.5492 17.0809L44.5622 17.0772L44.5753 17.0734L43.7288 14.1953ZM39.6272 16.2109L41.469 18.579L41.4735 18.5755L39.6272 16.2109ZM35.9709 23.8281L32.9731 23.7139L32.8545 26.8281H35.9709V23.8281ZM45.0413 23.8281V26.8281H48.0413V23.8281H45.0413ZM46.0256 21.5781L43.9567 19.4057L43.9302 19.4309L43.9043 19.4568L46.0256 21.5781ZM47.1741 20.8281L46.027 18.0561L46.0096 18.0633L45.9923 18.0707L47.1741 20.8281ZM51.135 21.3438L49.2474 23.6755L49.2777 23.7L49.3085 23.7237L51.135 21.3438ZM51.7209 24.6953L49.1974 23.073L49.1766 23.1054L49.1566 23.1384L51.7209 24.6953ZM50.5491 25.7266L51.7905 28.4577L51.8244 28.4423L51.8579 28.426L50.5491 25.7266ZM45.1116 26.0781V23.0781H42.1116V26.0781H45.1116ZM45.1116 36.0391H48.8147V30.0391H45.1116V36.0391ZM48.8147 36.0391C49.3504 36.0391 49.5491 36.1368 49.5678 36.1469L52.4209 30.8687C51.2834 30.2538 50.029 30.0391 48.8147 30.0391V36.0391ZM49.624 36.1765C49.7058 36.2186 49.7342 36.245 49.7322 36.2433C49.7315 36.2426 49.7253 36.2368 49.7163 36.2258C49.7073 36.2146 49.6978 36.2011 49.6891 36.1861L54.8778 33.1733C54.2644 32.1168 53.3701 31.3553 52.3648 30.8391L49.624 36.1765ZM49.749 36.2848C49.7589 36.3006 49.7508 36.2914 49.7415 36.26C49.7372 36.2455 49.7338 36.23 49.7315 36.2145C49.7293 36.1991 49.7288 36.1871 49.7288 36.1797H55.7288C55.7288 35.0541 55.4047 34.001 54.8179 33.0745L49.749 36.2848ZM49.7288 36.1797C49.7288 36.1951 49.7272 36.1803 49.7369 36.1478C49.7413 36.133 49.7468 36.1189 49.7526 36.1067C49.7583 36.0946 49.7628 36.0875 49.7639 36.0859L54.7562 39.4141C55.4062 38.439 55.7288 37.3336 55.7288 36.1797H49.7288ZM49.7639 36.0859C49.77 36.0767 49.7724 36.077 49.7592 36.0881C49.7444 36.1006 49.7011 36.1338 49.6117 36.1773L52.2365 41.5727C53.2251 41.0917 54.1081 40.3861 54.7562 39.4141L49.7639 36.0859ZM49.5824 36.1917C49.5093 36.2283 49.3285 36.2969 48.9553 36.2969V42.2969C50.0821 42.2969 51.2138 42.0842 52.2657 41.5583L49.5824 36.1917ZM48.9553 36.2969C48.5679 36.2969 48.2493 36.23 47.9715 36.1176L45.7204 41.6793C46.7551 42.0981 47.8427 42.2969 48.9553 42.2969V36.2969ZM47.9715 36.1176C47.6924 36.0046 47.5735 35.8947 47.5193 35.8321L42.9851 39.7617C43.7434 40.6366 44.687 41.261 45.7204 41.6793L47.9715 36.1176ZM47.5508 35.869C47.5553 35.8745 47.586 35.9145 47.6122 35.986C47.6386 36.0579 47.6428 36.114 47.6428 36.1328H41.6428C41.6428 37.4717 42.1 38.7069 42.9536 39.7247L47.5508 35.869ZM44.6428 33.1328H35.7131V39.1328H44.6428V33.1328ZM32.7131 36.1328C32.7131 38.4814 33.3175 40.7016 34.4991 42.7443L39.6928 39.7401C39.0306 38.5953 38.7131 37.4092 38.7131 36.1328H32.7131ZM34.5055 42.7554C35.7652 44.9118 37.6563 46.5588 39.9939 47.7561L42.7292 42.4158C41.2231 41.6444 40.2704 40.7288 39.6863 39.729L34.5055 42.7554ZM40.0112 47.7648C42.4818 49.0102 45.4386 49.5391 48.7209 49.5391V43.5391C46.0345 43.5391 44.0851 43.0992 42.7119 42.407L40.0112 47.7648ZM48.7209 49.5391C50.7054 49.5391 52.6432 49.3084 54.528 48.8417L53.0858 43.0176C51.6893 43.3634 50.2365 43.5391 48.7209 43.5391V49.5391ZM54.554 48.8352C56.4618 48.3446 58.2212 47.6132 59.8059 46.6204L56.6204 41.5359C55.6114 42.168 54.4332 42.671 53.0598 43.0242L54.554 48.8352ZM59.8059 46.6204C61.4443 45.5939 62.8047 44.2912 63.8283 42.7037L58.7855 39.4525C58.2778 40.24 57.5757 40.9373 56.6204 41.5359L59.8059 46.6204ZM63.8379 42.6888C64.9389 40.9586 65.4553 39.0061 65.4553 36.9297H59.4553C59.4553 37.9783 59.2062 38.7914 58.7759 39.4675L63.8379 42.6888ZM65.4553 36.9297C65.4553 34.89 65.0658 32.9429 64.083 31.265L58.9057 34.2975C59.2042 34.8071 59.4553 35.6256 59.4553 36.9297H65.4553ZM64.1081 31.3087C63.2474 29.7809 62.0697 28.5265 60.5584 27.6528L57.5554 32.8472C58.0441 33.1297 58.4914 33.5628 58.8806 34.2538L64.1081 31.3087ZM60.5584 27.6528C59.1681 26.849 57.659 26.3838 56.0616 26.2938L55.7241 32.2843C56.3453 32.3193 56.9457 32.4947 57.5554 32.8472L60.5584 27.6528ZM58.8928 29.2891V28.7969H52.8928V29.2891H58.8928ZM56.2433 31.7763C57.5053 31.6279 58.716 31.1859 59.8574 30.5651L56.9907 25.2942C56.3508 25.6423 55.8741 25.7784 55.5423 25.8174L56.2433 31.7763ZM59.8574 30.5651C61.2343 29.8163 62.3441 28.7332 63.2062 27.4185L58.1888 24.1284C57.8009 24.7199 57.395 25.0744 56.9907 25.2942L59.8574 30.5651ZM63.2184 27.3998C64.2405 25.8156 64.635 23.9612 64.635 22.0469H58.635C58.635 23.1638 58.4045 23.7938 58.1766 24.1471L63.2184 27.3998ZM64.635 22.0469C64.635 19.5978 63.8165 17.3829 62.2018 15.544L57.6932 19.5028C58.3285 20.2264 58.635 21.0272 58.635 22.0469H64.635ZM62.2018 15.544C60.6939 13.8267 58.7408 12.5796 56.4698 11.735L54.3783 17.3587C55.8886 17.9204 56.9511 18.6576 57.6932 19.5028L62.2018 15.544ZM56.4774 11.7379C54.2178 10.8905 51.7602 10.4922 49.1428 10.4922V16.4922C51.1504 16.4922 52.8803 16.797 54.3707 17.3559L56.4774 11.7379ZM49.1428 10.4922C46.8994 10.4922 44.8021 10.7526 42.8823 11.3172L44.5753 17.0734C45.8429 16.7006 47.3549 16.4922 49.1428 16.4922V10.4922ZM42.9083 11.3097C40.9957 11.8535 39.2676 12.6855 37.7809 13.8464L41.4735 18.5755C42.268 17.9551 43.2743 17.4434 44.5492 17.0809L42.9083 11.3097ZM37.7854 13.8429C36.2988 14.9991 35.1316 16.4374 34.3059 18.13L39.6985 20.7606C40.1228 19.8908 40.7055 19.1728 41.469 18.579L37.7854 13.8429ZM34.3059 18.13C33.4722 19.839 33.0491 21.7192 32.9731 23.7139L38.9688 23.9423C39.0178 22.6558 39.2821 21.6141 39.6985 20.7606L34.3059 18.13ZM35.9709 26.8281H45.0413V20.8281H35.9709V26.8281ZM48.0413 23.8281C48.0413 23.8326 48.041 23.8378 48.0404 23.8435C48.0398 23.8491 48.039 23.8538 48.0383 23.8571C48.0376 23.8604 48.0372 23.8611 48.0379 23.859C48.0386 23.8568 48.0407 23.8509 48.045 23.841L42.5531 21.4246C42.2223 22.1764 42.0413 22.985 42.0413 23.8281H48.0413ZM48.045 23.841C48.0618 23.803 48.0879 23.7584 48.1469 23.6994L43.9043 19.4568C43.3383 20.0228 42.8801 20.6814 42.5531 21.4246L48.045 23.841ZM48.0946 23.7505C48.1513 23.6965 48.2298 23.6396 48.3558 23.5856L45.9923 18.0707C45.2434 18.3917 44.5562 18.8347 43.9567 19.4057L48.0946 23.7505ZM48.3211 23.6002C48.3812 23.5753 48.4799 23.5469 48.6506 23.5469V17.5469C47.7588 17.5469 46.8732 17.7059 46.027 18.0561L48.3211 23.6002ZM48.6506 23.5469C49.0956 23.5469 49.2196 23.653 49.2474 23.6755L53.0226 19.012C51.7379 17.972 50.2057 17.5469 48.6506 17.5469V23.5469ZM49.3085 23.7237C49.3718 23.7723 49.3165 23.7463 49.2484 23.6195C49.215 23.5575 49.1865 23.4855 49.1674 23.4082C49.1485 23.3314 49.1428 23.2659 49.1428 23.2188H55.1428C55.1428 21.4009 54.2447 19.9486 52.9615 18.9638L49.3085 23.7237ZM49.1428 23.2188C49.1428 23.2324 49.1415 23.2135 49.1528 23.1739C49.1644 23.1332 49.1819 23.0972 49.1974 23.073L54.2445 26.3176C54.8532 25.3707 55.1428 24.3098 55.1428 23.2188H49.1428ZM49.1566 23.1384C49.1842 23.0929 49.2178 23.0547 49.2469 23.0291C49.2741 23.0052 49.2789 23.0084 49.2402 23.0271L51.8579 28.426C52.8291 27.9551 53.6849 27.2412 54.2853 26.2522L49.1566 23.1384ZM49.3077 22.9955C49.2794 23.0083 49.102 23.0781 48.6741 23.0781V29.0781C49.7149 29.0781 50.7875 28.9135 51.7905 28.4577L49.3077 22.9955ZM48.6741 23.0781H45.1116V29.0781H48.6741V23.0781ZM42.1116 26.0781V33.0391H48.1116V26.0781H42.1116Z" fill="url(#paint0_linear_1048_852)"/>
<defs>
<linearGradient id="paint0_linear_1048_852" x1="0.12668" y1="25.7494" x2="49.5551" y2="26.4724" gradientUnits="userSpaceOnUse">
<stop stop-color="#E66381"/>
<stop offset="0.0001" stop-color="#ECB54F"/>
<stop offset="1" stop-color="#EC5A30"/>
</linearGradient>
</defs>
</svg>
