<svg width="65" height="57" viewBox="0 0 65 57" fill="none" xmlns="http://www.w3.org/2000/svg">
<path d="M12.7734 21.9766L10.6831 19.8247L10.6675 19.8399L10.6521 19.8552L12.7734 21.9766ZM16.4297 22L14.2778 24.0904L14.3081 24.1215L14.3393 24.1518L16.4297 22ZM17.7188 35.4297L20.6175 36.2027L20.62 36.1932L17.7188 35.4297ZM16.4297 38.0312L14.2787 35.94L14.2778 35.9409L16.4297 38.0312ZM12.7734 38.0312L10.6216 40.1216L10.6367 40.1372L10.6521 40.1526L12.7734 38.0312ZM11.5078 35.4531L8.60657 36.2166L8.60911 36.2261L11.5078 35.4531ZM2.69531 38.9688L-0.0630604 40.1483L-0.0583624 40.1593L-0.0535771 40.1703L2.69531 38.9688ZM7.19531 44.5234L5.50407 47.0013L5.5132 47.0075L7.19531 44.5234ZM20.4844 45.2734L21.8161 47.9616L21.826 47.9567L21.8358 47.9518L20.4844 45.2734ZM24.7031 41.7812L22.3215 39.957L22.3153 39.965L22.3093 39.9731L24.7031 41.7812ZM27.2109 36.7656L24.3375 35.9036L24.3342 35.9146L24.3309 35.9256L27.2109 36.7656ZM26.5078 20.9453L23.7551 22.1381L23.76 22.1492L23.7649 22.1603L26.5078 20.9453ZM22.0078 15.4609L20.3437 17.9571L20.3528 17.9631L22.0078 15.4609ZM7.40625 15.4844L9.04327 17.9984L9.048 17.9953L7.40625 15.4844ZM2.76562 20.9688L0.0401536 19.715L0.0366957 19.7226L0.0332793 19.7301L2.76562 20.9688ZM14.0391 29.0781C14.0391 27.3182 14.1882 26.0886 14.4039 25.2905L8.61172 23.7251C8.20242 25.2395 8.03906 27.0568 8.03906 29.0781H14.0391ZM14.4039 25.2905C14.5212 24.8564 14.6404 24.5523 14.7419 24.3495C14.8438 24.1456 14.9068 24.0858 14.8948 24.0979L10.6521 19.8552C9.59193 20.9154 8.98762 22.3343 8.61172 23.7251L14.4039 25.2905ZM14.8638 24.1284C14.916 24.0777 14.9103 24.0981 14.8394 24.129C14.8052 24.1439 14.764 24.1576 14.7184 24.167C14.6729 24.1765 14.6327 24.1797 14.6016 24.1797V18.1797C13.042 18.1797 11.7081 18.829 10.6831 19.8247L14.8638 24.1284ZM14.6016 24.1797C14.5732 24.1797 14.5325 24.1767 14.4836 24.1664C14.4345 24.1561 14.3876 24.1405 14.346 24.1218C14.2593 24.0829 14.2394 24.0508 14.2778 24.0904L18.5815 19.9096C17.5532 18.851 16.1922 18.1797 14.6016 18.1797V24.1797ZM14.3393 24.1518C14.3271 24.14 14.3888 24.1963 14.4888 24.3927C14.5887 24.5888 14.707 24.886 14.8227 25.314L20.6148 23.7485C20.2348 22.3425 19.6146 20.9115 18.52 19.8482L14.3393 24.1518ZM14.8227 25.314C15.0388 26.1137 15.1875 27.3365 15.1875 29.0781H21.1875C21.1875 27.0698 21.0237 25.2613 20.6148 23.7485L14.8227 25.314ZM15.1875 29.0781V30.8359H21.1875V29.0781H15.1875ZM15.1875 30.8359C15.1875 32.5734 15.0397 33.8221 14.8175 34.6662L20.62 36.1932C21.0228 34.6622 21.1875 32.8485 21.1875 30.8359H15.1875ZM14.82 34.6567C14.5739 35.5796 14.3238 35.8936 14.2787 35.94L18.5807 40.1225C19.6293 39.0439 20.2386 37.6235 20.6175 36.2027L14.82 34.6567ZM14.2778 35.9409C14.2394 35.9805 14.2593 35.9483 14.346 35.9094C14.3876 35.8908 14.4345 35.8752 14.4836 35.8648C14.5325 35.8545 14.5732 35.8516 14.6016 35.8516V41.8516C16.1922 41.8516 17.5532 41.1802 18.5815 40.1216L14.2778 35.9409ZM14.6016 35.8516C14.6386 35.8516 14.6846 35.8555 14.7355 35.8664C14.7865 35.8772 14.8318 35.8928 14.8688 35.9094C14.9449 35.9435 14.9505 35.9656 14.8948 35.9099L10.6521 40.1526C11.6694 41.1699 13.0125 41.8516 14.6016 41.8516V35.8516ZM14.9253 35.9409C14.9271 35.9428 14.8575 35.8703 14.7516 35.6545C14.6463 35.44 14.525 35.1243 14.4065 34.6801L8.60911 36.2261C8.98337 37.6296 9.5813 39.0507 10.6216 40.1216L14.9253 35.9409ZM14.409 34.6896C14.1873 33.8471 14.0391 32.5915 14.0391 30.8359H8.03906C8.03906 32.8616 8.2033 34.6841 8.60659 36.2166L14.409 34.6896ZM14.0391 30.8359V29.0781H8.03906V30.8359H14.0391ZM-1.82812 30.8594C-1.82812 34.2267 -1.26332 37.3416 -0.0630604 40.1483L5.45369 37.7892C4.62269 35.8459 4.17188 33.5546 4.17188 30.8594H-1.82812ZM-0.0535771 40.1703C1.18452 43.0029 3.03252 45.3143 5.50408 47.0013L8.88654 42.0456C7.4206 41.045 6.26861 39.6534 5.4442 37.7672L-0.0535771 40.1703ZM5.5132 47.0075C8.08615 48.7498 11.1314 49.5391 14.4844 49.5391V43.5391C12.0873 43.5391 10.2732 42.9846 8.87742 42.0394L5.5132 47.0075ZM14.4844 49.5391C17.1482 49.5391 19.6215 49.0489 21.8161 47.9616L19.1526 42.5852C17.941 43.1855 16.4143 43.5391 14.4844 43.5391V49.5391ZM21.8358 47.9518C23.933 46.8936 25.701 45.4376 27.097 43.5894L22.3093 39.9731C21.4865 41.0624 20.442 41.9345 19.1329 42.5951L21.8358 47.9518ZM27.0848 43.6055C28.4477 41.8261 29.4461 39.8166 30.0909 37.6056L24.3309 35.9256C23.8821 37.4646 23.2086 38.7989 22.3215 39.957L27.0848 43.6055ZM30.0844 37.6277C30.7352 35.4584 31.0547 33.1982 31.0547 30.8594H25.0547C25.0547 32.6456 24.8117 34.3229 24.3375 35.9036L30.0844 37.6277ZM31.0547 30.8594V29.0547H25.0547V30.8594H31.0547ZM31.0547 29.0547C31.0547 25.6437 30.4831 22.5123 29.2508 19.7303L23.7649 22.1603C24.5951 24.0346 25.0547 26.3094 25.0547 29.0547H31.0547ZM29.2605 19.7525C28.0314 16.9162 26.1683 14.6159 23.6628 12.9587L20.3528 17.9631C21.8161 18.9309 22.9529 20.2869 23.7551 22.1381L29.2605 19.7525ZM23.6719 12.9648C21.1106 11.2572 18.0692 10.4922 14.7188 10.4922V16.4922C17.1496 16.4922 18.9675 17.0396 20.3437 17.9571L23.6719 12.9648ZM14.7188 10.4922C11.394 10.4922 8.36286 11.2745 5.7645 12.9735L9.048 17.9953C10.5121 17.038 12.356 16.4922 14.7188 16.4922V10.4922ZM5.76923 12.9704C3.24446 14.6144 1.33699 16.8958 0.0401536 19.715L5.4911 22.2225C6.35051 20.3542 7.53679 18.9793 9.04327 17.9984L5.76923 12.9704ZM0.0332793 19.7301C-1.23508 22.5279 -1.82812 25.6582 -1.82812 29.0547H4.17188C4.17188 26.3574 4.64133 24.0971 5.49797 22.2074L0.0332793 19.7301ZM-1.82812 29.0547V30.8594H4.17188V29.0547H-1.82812ZM36.7678 36.5312V33.5312H33.7678V36.5312H36.7678ZM37.6116 40.4219L34.8877 41.679L34.8975 41.7002L34.9075 41.7212L37.6116 40.4219ZM40.1194 43.6094L38.186 45.9033L38.194 45.91L38.202 45.9167L40.1194 43.6094ZM61.5647 41.0781L59.0483 39.4447L59.0448 39.4502L61.5647 41.0781ZM49.3069 24.7422L50.27 27.5834L50.284 27.5786L50.2979 27.5738L49.3069 24.7422ZM46.0022 26.9922V29.9922H47.649L48.5332 28.6028L46.0022 26.9922ZM45.5569 26.9922L42.5657 26.7621L42.3172 29.9922H45.5569V26.9922ZM45.9788 21.5078V18.5078H43.2007L42.9876 21.2777L45.9788 21.5078ZM61.0491 21.5078V24.5078H64.0491V21.5078H61.0491ZM61.0491 14.0078H64.0491V11.0078H61.0491V14.0078ZM38.385 14.0078V11.0078H35.563L35.3906 13.8246L38.385 14.0078ZM37.2131 33.1562L34.2187 32.973L34.0239 36.1562H37.2131V33.1562ZM46.0491 33.1562V36.1562H47.9032L48.7323 34.4979L46.0491 33.1562ZM46.7053 32.3125L44.6363 30.1401L44.6099 30.1653L44.584 30.1912L46.7053 32.3125ZM47.9475 31.4922L46.7061 28.7611L46.6901 28.7684L46.6742 28.7758L47.9475 31.4922ZM51.885 31.6797L50.361 34.2638L50.3998 34.2866L50.4392 34.3083L51.885 31.6797ZM53.3147 37.2344L50.7306 35.7104L50.7159 35.7353L50.7018 35.7604L53.3147 37.2344ZM51.885 38.6875L53.359 41.3004L53.3841 41.2863L53.409 41.2716L51.885 38.6875ZM48.1584 38.9922L47.2374 41.8473L47.2795 41.8609L47.322 41.8732L48.1584 38.9922ZM46.0022 37.5391L43.506 39.2032L43.5522 39.2724L43.6022 39.3391L46.0022 37.5391ZM45.5803 36.5312L48.5319 35.9946L48.084 33.5312H45.5803V36.5312ZM33.7678 36.5312C33.7678 38.3295 34.1388 40.0564 34.8877 41.679L40.3354 39.1647C39.9594 38.3499 39.7678 37.483 39.7678 36.5312H33.7678ZM34.9075 41.7212C35.6823 43.3335 36.7915 44.728 38.186 45.9033L42.0528 41.3155C41.2597 40.647 40.6971 39.9165 40.3156 39.1225L34.9075 41.7212ZM38.202 45.9167C39.6532 47.1226 41.3685 48.0095 43.2822 48.6226L45.1128 42.9087C43.8078 42.4905 42.8043 41.9399 42.0367 41.302L38.202 45.9167ZM43.2822 48.6226C45.2463 49.2519 47.4085 49.5391 49.7288 49.5391V43.5391C47.8928 43.5391 46.3675 43.3106 45.1128 42.9087L43.2822 48.6226ZM49.7288 49.5391C52.7644 49.5391 55.5674 49.009 58.0641 47.8567L55.5497 42.4089C53.9839 43.1316 52.0681 43.5391 49.7288 43.5391V49.5391ZM58.0641 47.8567C60.5769 46.6969 62.6153 44.9804 64.0846 42.706L59.0448 39.4502C58.2328 40.7071 57.0994 41.6937 55.5497 42.4089L58.0641 47.8567ZM64.081 42.7115C65.6055 40.3631 66.2991 37.6314 66.2991 34.6562H60.2991C60.2991 36.6811 59.8364 38.2306 59.0484 39.4447L64.081 42.7115ZM66.2991 34.6562C66.2991 31.9572 65.6955 29.4623 64.3185 27.3322L59.2797 30.5896C59.9027 31.5533 60.2991 32.8553 60.2991 34.6562H66.2991ZM64.3185 27.3322C63.0375 25.3508 61.3403 23.8071 59.2501 22.762L56.5668 28.1286C57.6641 28.6772 58.5606 29.4774 59.2797 30.5896L64.3185 27.3322ZM59.2501 22.762C57.2324 21.7532 55.069 21.25 52.7991 21.25V27.25C54.1541 27.25 55.397 27.5437 56.5668 28.1286L59.2501 22.762ZM52.7991 21.25C51.1954 21.25 49.6713 21.4362 48.3158 21.9106L50.2979 27.5738C50.8175 27.3919 51.6214 27.25 52.7991 27.25V21.25ZM48.3438 21.901C47.225 22.2802 46.153 22.7865 45.2615 23.4944L48.9928 28.1931C49.1639 28.0572 49.545 27.8291 50.27 27.5834L48.3438 21.901ZM45.2615 23.4944C44.6186 24.005 43.9489 24.6308 43.4712 25.3816L48.5332 28.6028C48.5019 28.6519 48.5062 28.6327 48.5906 28.5466C48.6716 28.4639 48.8005 28.3458 48.9928 28.1931L45.2615 23.4944ZM46.0022 23.9922H45.5569V29.9922H46.0022V23.9922ZM48.548 27.2223L48.9699 21.7379L42.9876 21.2777L42.5657 26.7621L48.548 27.2223ZM45.9788 24.5078H61.0491V18.5078H45.9788V24.5078ZM64.0491 21.5078V14.0078H58.0491V21.5078H64.0491ZM61.0491 11.0078H38.385V17.0078H61.0491V11.0078ZM35.3906 13.8246L34.2187 32.973L40.2075 33.3395L41.3794 14.1911L35.3906 13.8246ZM37.2131 36.1562H46.0491V30.1562H37.2131V36.1562ZM48.7323 34.4979C48.7081 34.5463 48.6886 34.578 48.6791 34.5926C48.6695 34.6075 48.667 34.6099 48.6749 34.5996C48.6924 34.5772 48.7384 34.5221 48.8266 34.4338L44.584 30.1912C44.1599 30.6153 43.6937 31.1588 43.3658 31.8146L48.7323 34.4979ZM48.7743 34.4849C48.8235 34.438 48.9519 34.3346 49.2208 34.2086L46.6742 28.7758C45.9431 29.1185 45.2434 29.562 44.6363 30.1401L48.7743 34.4849ZM49.1889 34.2233C49.2489 34.196 49.4064 34.1406 49.7288 34.1406V28.1406C48.7073 28.1406 47.6774 28.3196 46.7061 28.7611L49.1889 34.2233ZM49.7288 34.1406C50.1133 34.1406 50.2869 34.2201 50.361 34.2638L53.409 29.0956C52.2643 28.4205 51.0005 28.1406 49.7288 28.1406V34.1406ZM50.4392 34.3083C50.5854 34.3887 50.6612 34.4698 50.7252 34.5833L55.9511 31.6354C55.3276 30.5302 54.4346 29.6581 53.3308 29.051L50.4392 34.3083ZM50.7252 34.5833C50.7917 34.7013 50.8538 34.8727 50.8538 35.1719H56.8538C56.8538 33.9398 56.572 32.7362 55.9511 31.6354L50.7252 34.5833ZM50.8538 35.1719C50.8538 35.447 50.7954 35.6005 50.7306 35.7104L55.8988 38.7583C56.5527 37.6495 56.8538 36.428 56.8538 35.1719H50.8538ZM50.7018 35.7604C50.6201 35.9051 50.5215 36.0088 50.361 36.1034L53.409 41.2716C54.4673 40.6475 55.3217 39.7824 55.9276 38.7083L50.7018 35.7604ZM50.411 36.0746C50.3194 36.1262 50.1323 36.2031 49.7522 36.2031V42.2031C50.9971 42.2031 52.2318 41.9363 53.359 41.3004L50.411 36.0746ZM49.7522 36.2031C49.4166 36.2031 49.1711 36.1623 48.9949 36.1111L47.322 41.8732C48.1145 42.1033 48.9315 42.2031 49.7522 42.2031V36.2031ZM49.0794 36.1371C48.8323 36.0574 48.6864 35.976 48.606 35.9201L45.1796 40.8455C45.818 41.2896 46.5158 41.6145 47.2374 41.8473L49.0794 36.1371ZM48.606 35.9201C48.4781 35.8311 48.4228 35.7665 48.4022 35.7391L43.6022 39.3391C44.0503 39.9366 44.5888 40.4345 45.1796 40.8455L48.606 35.9201ZM48.4983 35.875C48.4866 35.8574 48.4905 35.8598 48.5 35.8826C48.5098 35.9062 48.5228 35.9443 48.5319 35.9946L42.6287 37.0679C42.7733 37.8634 43.0893 38.5781 43.506 39.2032L48.4983 35.875ZM45.5803 33.5312H36.7678V39.5312H45.5803V33.5312Z" fill="url(#paint0_linear_1048_853)"/>
<defs>
<linearGradient id="paint0_linear_1048_853" x1="5.84305e-08" y1="24.5" x2="65" y2="24.5" gradientUnits="userSpaceOnUse">
<stop stop-color="#E66381"/>
<stop offset="1" stop-color="#45A1F7"/>
</linearGradient>
</defs>
</svg>
