<svg width="65" height="57" viewBox="0 0 65 57" fill="none" xmlns="http://www.w3.org/2000/svg">
<path d="M12.7734 21.9766L10.6831 19.8247L10.6675 19.8399L10.6521 19.8552L12.7734 21.9766ZM16.4297 22L14.2778 24.0904L14.3081 24.1215L14.3393 24.1518L16.4297 22ZM17.7188 35.4297L20.6175 36.2027L20.62 36.1932L17.7188 35.4297ZM16.4297 38.0312L14.2787 35.94L14.2778 35.9409L16.4297 38.0312ZM12.7734 38.0312L10.6216 40.1216L10.6367 40.1372L10.6521 40.1526L12.7734 38.0312ZM11.5078 35.4531L8.60657 36.2166L8.60911 36.2261L11.5078 35.4531ZM2.69531 38.9688L-0.0630604 40.1483L-0.0583624 40.1593L-0.0535771 40.1703L2.69531 38.9688ZM7.19531 44.5234L5.50407 47.0013L5.5132 47.0075L7.19531 44.5234ZM20.4844 45.2734L21.8161 47.9616L21.826 47.9567L21.8358 47.9518L20.4844 45.2734ZM24.7031 41.7812L22.3215 39.957L22.3153 39.965L22.3093 39.9731L24.7031 41.7812ZM27.2109 36.7656L24.3375 35.9036L24.3342 35.9146L24.3309 35.9256L27.2109 36.7656ZM26.5078 20.9453L23.7551 22.1381L23.76 22.1492L23.7649 22.1603L26.5078 20.9453ZM22.0078 15.4609L20.3437 17.9571L20.3528 17.9631L22.0078 15.4609ZM7.40625 15.4844L9.04327 17.9984L9.048 17.9953L7.40625 15.4844ZM2.76562 20.9688L0.0401536 19.715L0.0366957 19.7226L0.0332793 19.7301L2.76562 20.9688ZM14.0391 29.0781C14.0391 27.3182 14.1882 26.0886 14.4039 25.2905L8.61172 23.7251C8.20242 25.2395 8.03906 27.0568 8.03906 29.0781H14.0391ZM14.4039 25.2905C14.5212 24.8564 14.6404 24.5523 14.7419 24.3495C14.8438 24.1456 14.9068 24.0858 14.8948 24.0979L10.6521 19.8552C9.59193 20.9154 8.98762 22.3343 8.61172 23.7251L14.4039 25.2905ZM14.8638 24.1284C14.916 24.0777 14.9103 24.0981 14.8394 24.129C14.8052 24.1439 14.764 24.1576 14.7184 24.167C14.6729 24.1765 14.6327 24.1797 14.6016 24.1797V18.1797C13.042 18.1797 11.7081 18.829 10.6831 19.8247L14.8638 24.1284ZM14.6016 24.1797C14.5732 24.1797 14.5325 24.1767 14.4836 24.1664C14.4345 24.1561 14.3876 24.1405 14.346 24.1218C14.2593 24.0829 14.2394 24.0508 14.2778 24.0904L18.5815 19.9096C17.5532 18.851 16.1922 18.1797 14.6016 18.1797V24.1797ZM14.3393 24.1518C14.3271 24.14 14.3888 24.1963 14.4888 24.3927C14.5887 24.5888 14.707 24.886 14.8227 25.314L20.6148 23.7485C20.2348 22.3425 19.6146 20.9115 18.52 19.8482L14.3393 24.1518ZM14.8227 25.314C15.0388 26.1137 15.1875 27.3365 15.1875 29.0781H21.1875C21.1875 27.0698 21.0237 25.2613 20.6148 23.7485L14.8227 25.314ZM15.1875 29.0781V30.8359H21.1875V29.0781H15.1875ZM15.1875 30.8359C15.1875 32.5734 15.0397 33.8221 14.8175 34.6662L20.62 36.1932C21.0228 34.6622 21.1875 32.8485 21.1875 30.8359H15.1875ZM14.82 34.6567C14.5739 35.5796 14.3238 35.8936 14.2787 35.94L18.5807 40.1225C19.6293 39.0439 20.2386 37.6235 20.6175 36.2027L14.82 34.6567ZM14.2778 35.9409C14.2394 35.9805 14.2593 35.9483 14.346 35.9094C14.3876 35.8908 14.4345 35.8752 14.4836 35.8648C14.5325 35.8545 14.5732 35.8516 14.6016 35.8516V41.8516C16.1922 41.8516 17.5532 41.1802 18.5815 40.1216L14.2778 35.9409ZM14.6016 35.8516C14.6386 35.8516 14.6846 35.8555 14.7355 35.8664C14.7865 35.8772 14.8318 35.8928 14.8688 35.9094C14.9449 35.9435 14.9505 35.9656 14.8948 35.9099L10.6521 40.1526C11.6694 41.1699 13.0125 41.8516 14.6016 41.8516V35.8516ZM14.9253 35.9409C14.9271 35.9428 14.8575 35.8703 14.7516 35.6545C14.6463 35.44 14.525 35.1243 14.4065 34.6801L8.60911 36.2261C8.98337 37.6296 9.5813 39.0507 10.6216 40.1216L14.9253 35.9409ZM14.409 34.6896C14.1873 33.8471 14.0391 32.5915 14.0391 30.8359H8.03906C8.03906 32.8616 8.2033 34.6841 8.60659 36.2166L14.409 34.6896ZM14.0391 30.8359V29.0781H8.03906V30.8359H14.0391ZM-1.82812 30.8594C-1.82812 34.2267 -1.26332 37.3416 -0.0630604 40.1483L5.45369 37.7892C4.62269 35.8459 4.17188 33.5546 4.17188 30.8594H-1.82812ZM-0.0535771 40.1703C1.18452 43.0029 3.03252 45.3143 5.50408 47.0013L8.88654 42.0456C7.4206 41.045 6.26861 39.6534 5.4442 37.7672L-0.0535771 40.1703ZM5.5132 47.0075C8.08615 48.7498 11.1314 49.5391 14.4844 49.5391V43.5391C12.0873 43.5391 10.2732 42.9846 8.87742 42.0394L5.5132 47.0075ZM14.4844 49.5391C17.1482 49.5391 19.6215 49.0489 21.8161 47.9616L19.1526 42.5852C17.941 43.1855 16.4143 43.5391 14.4844 43.5391V49.5391ZM21.8358 47.9518C23.933 46.8936 25.701 45.4376 27.097 43.5894L22.3093 39.9731C21.4865 41.0624 20.442 41.9345 19.1329 42.5951L21.8358 47.9518ZM27.0848 43.6055C28.4477 41.8261 29.4461 39.8166 30.0909 37.6056L24.3309 35.9256C23.8821 37.4646 23.2086 38.7989 22.3215 39.957L27.0848 43.6055ZM30.0844 37.6277C30.7352 35.4584 31.0547 33.1982 31.0547 30.8594H25.0547C25.0547 32.6456 24.8117 34.3229 24.3375 35.9036L30.0844 37.6277ZM31.0547 30.8594V29.0547H25.0547V30.8594H31.0547ZM31.0547 29.0547C31.0547 25.6437 30.4831 22.5123 29.2508 19.7303L23.7649 22.1603C24.5951 24.0346 25.0547 26.3094 25.0547 29.0547H31.0547ZM29.2605 19.7525C28.0314 16.9162 26.1683 14.6159 23.6628 12.9587L20.3528 17.9631C21.8161 18.9309 22.9529 20.2869 23.7551 22.1381L29.2605 19.7525ZM23.6719 12.9648C21.1106 11.2572 18.0692 10.4922 14.7188 10.4922V16.4922C17.1496 16.4922 18.9675 17.0396 20.3437 17.9571L23.6719 12.9648ZM14.7188 10.4922C11.394 10.4922 8.36286 11.2745 5.7645 12.9735L9.048 17.9953C10.5121 17.038 12.356 16.4922 14.7188 16.4922V10.4922ZM5.76923 12.9704C3.24446 14.6144 1.33699 16.8958 0.0401536 19.715L5.4911 22.2225C6.35051 20.3542 7.53679 18.9793 9.04327 17.9984L5.76923 12.9704ZM0.0332793 19.7301C-1.23508 22.5279 -1.82812 25.6582 -1.82812 29.0547H4.17188C4.17188 26.3574 4.64133 24.0971 5.49797 22.2074L0.0332793 19.7301ZM-1.82812 29.0547V30.8594H4.17188V29.0547H-1.82812ZM46.4709 14.0078V11.0078H44.7141L43.8545 12.5401L46.4709 14.0078ZM41.0569 23.6875L38.4368 22.2263L38.4344 22.2306L41.0569 23.6875ZM35.8772 33.5781L33.1864 32.2515L32.8772 32.8788V33.5781H35.8772ZM35.8772 41.1953H32.8772V44.1953H35.8772V41.1953ZM51.2288 41.1953H54.2288V38.1953H51.2288V41.1953ZM51.2288 46H48.2288V49H51.2288V46ZM60.3459 46V49H63.3459V46H60.3459ZM60.3459 41.1953V38.1953H57.3459V41.1953H60.3459ZM63.8381 41.1953V44.1953H66.8381V41.1953H63.8381ZM63.8381 33.7188H66.8381V30.7188H63.8381V33.7188ZM60.3459 33.7188H57.3459V36.7188H60.3459V33.7188ZM60.3459 14.0078H63.3459V11.0078H60.3459V14.0078ZM44.1272 33.7188H41.1272V36.7188H44.1272V33.7188ZM44.1272 33.625L41.388 32.4015L41.1272 32.9854V33.625H44.1272ZM47.3381 26.9922L44.6916 25.5794L44.6875 25.5872L44.6834 25.5949L47.3381 26.9922ZM50.7834 20.6875V17.6875H49.0233L48.1646 19.224L50.7834 20.6875ZM51.2288 20.6875H54.2288V17.6875H51.2288V20.6875ZM51.2288 33.7188V36.7188H54.2288V33.7188H51.2288ZM43.8545 12.5401C42.0564 15.7454 40.2505 18.9741 38.4368 22.2263L43.677 25.1487C45.4883 21.9009 47.2917 18.6765 49.0874 15.4756L43.8545 12.5401ZM38.4344 22.2306C36.6134 25.5083 34.8641 28.8487 33.1864 32.2515L38.5679 34.9047C40.2028 31.5888 41.9066 28.3354 43.6793 25.1444L38.4344 22.2306ZM32.8772 33.5781V41.1953H38.8772V33.5781H32.8772ZM35.8772 44.1953H51.2288V38.1953H35.8772V44.1953ZM48.2288 41.1953V46H54.2288V41.1953H48.2288ZM51.2288 49H60.3459V43H51.2288V49ZM63.3459 46V41.1953H57.3459V46H63.3459ZM60.3459 44.1953H63.8381V38.1953H60.3459V44.1953ZM66.8381 41.1953V33.7188H60.8381V41.1953H66.8381ZM63.8381 30.7188H60.3459V36.7188H63.8381V30.7188ZM63.3459 33.7188V14.0078H57.3459V33.7188H63.3459ZM60.3459 11.0078H46.4709V17.0078H60.3459V11.0078ZM47.1272 33.7188V33.625H41.1272V33.7188H47.1272ZM46.8664 34.8485C47.8894 32.5582 48.9317 30.4056 49.9929 28.3894L44.6834 25.5949C43.557 27.735 42.4588 30.0043 41.388 32.4015L46.8664 34.8485ZM49.9846 28.405C51.0847 26.3444 52.2238 24.2597 53.4023 22.151L48.1646 19.224C46.968 21.3653 45.8104 23.4837 44.6916 25.5794L49.9846 28.405ZM50.7834 23.6875H51.2288V17.6875H50.7834V23.6875ZM48.2288 20.6875V33.7188H54.2288V20.6875H48.2288ZM51.2288 30.7188H44.1272V36.7188H51.2288V30.7188Z" fill="url(#paint0_linear_1048_854)"/>
<defs>
<linearGradient id="paint0_linear_1048_854" x1="3.45724e-07" y1="25.5" x2="89" y2="33" gradientUnits="userSpaceOnUse">
<stop stop-color="#D64D58"/>
<stop offset="1" stop-color="#2B2570"/>
</linearGradient>
</defs>
</svg>
