<svg width="35" height="33" viewBox="0 0 35 33" fill="none" xmlns="http://www.w3.org/2000/svg">
<path opacity="0.64" d="M5.76953 12.998L4.81255 12.7077L4.80965 12.7176L5.76953 12.998ZM6.78125 11.1934L7.45626 11.9312L7.45697 11.9305L6.78125 11.1934ZM9.78906 11.1934L9.1056 11.9234L9.11334 11.9305L9.78906 11.1934ZM10.8008 13.0117L9.84081 13.2922L9.84477 13.305L10.8008 13.0117ZM10.8008 20.3262L9.84293 20.0388L9.8409 20.0458L10.8008 20.3262ZM9.78906 22.1582L10.4725 22.8882L10.473 22.8877L9.78906 22.1582ZM6.78125 22.1582L6.08968 22.8805L6.09752 22.888L6.10553 22.8954L6.78125 22.1582ZM5.76953 20.3262L4.80873 20.6037L4.8126 20.6165L5.76953 20.3262ZM1.76367 21.9941L0.837325 22.3709L0.839505 22.3761L1.76367 21.9941ZM4.23828 25.1934L3.66159 26.0103L3.66482 26.0126L4.23828 25.1934ZM11.4844 25.6445L11.9351 26.5372L11.9386 26.5354L11.4844 25.6445ZM13.8086 23.6895L14.6096 24.288L13.8086 23.6895ZM15.1895 20.8047L14.2267 20.5342L14.2252 20.5395L15.1895 20.8047ZM14.8066 11.3027L13.8812 11.6816L13.8834 11.6869L14.8066 11.3027ZM12.3457 8.14453L11.7736 8.96475L11.7783 8.96797L12.3457 8.14453ZM4.32031 8.14453L3.75781 7.31772L3.75465 7.31989L4.32031 8.14453ZM1.79102 11.3301L0.871233 10.9376L0.869963 10.9406L1.79102 11.3301ZM6.41406 16.0742C6.41406 14.8896 6.5283 13.9669 6.72941 13.2785L4.80965 12.7176C4.53681 13.6516 4.41406 14.7796 4.41406 16.0742H6.41406ZM6.72647 13.2884C6.94292 12.5748 7.20766 12.1586 7.45626 11.9312L6.10624 10.4556C5.49806 11.012 5.08833 11.7989 4.8126 12.7077L6.72647 13.2884ZM7.45697 11.9305C7.72022 11.6892 7.98371 11.5918 8.28516 11.5918V9.5918C7.45639 9.5918 6.71728 9.89543 6.10553 10.4562L7.45697 11.9305ZM8.28516 11.5918C8.59945 11.5918 8.85803 11.6916 9.10564 11.9234L10.4725 10.4633C9.86332 9.89305 9.1193 9.5918 8.28516 9.5918V11.5918ZM9.11334 11.9305C9.37075 12.1665 9.63456 12.5858 9.8409 13.2921L11.7607 12.7313C11.493 11.8152 11.0824 11.0223 10.4648 10.4562L9.11334 11.9305ZM9.84477 13.305C10.0514 13.9784 10.1699 14.8914 10.1699 16.0742H12.1699C12.1699 14.7779 12.0424 13.6492 11.7568 12.7184L9.84477 13.305ZM10.1699 16.0742V17.2363H12.1699V16.0742H10.1699ZM10.1699 17.2363C10.1699 18.418 10.0516 19.3432 9.84295 20.0388L11.7586 20.6135C12.0421 19.6685 12.1699 18.5338 12.1699 17.2363H10.1699ZM9.8409 20.0458C9.63459 20.752 9.36935 21.1809 9.10512 21.4287L10.473 22.8877C11.0838 22.3151 11.493 21.5227 11.7607 20.6066L9.8409 20.0458ZM9.10564 21.4282C8.85803 21.66 8.59945 21.7598 8.28516 21.7598V23.7598C9.1193 23.7598 9.86332 23.4585 10.4725 22.8882L9.10564 21.4282ZM8.28516 21.7598C7.98371 21.7598 7.72022 21.6624 7.45697 21.421L6.10553 22.8954C6.71728 23.4561 7.45639 23.7598 8.28516 23.7598V21.7598ZM7.47282 21.4359C7.21052 21.1848 6.94283 20.7491 6.72647 20.0359L4.8126 20.6165C5.08842 21.5257 5.49521 22.3113 6.08968 22.8805L7.47282 21.4359ZM6.73025 20.0486C6.52817 19.3492 6.41406 18.4204 6.41406 17.2363H4.41406C4.41406 18.5315 4.53693 19.6626 4.80882 20.6037L6.73025 20.0486ZM6.41406 17.2363V16.0742H4.41406V17.2363H6.41406ZM-0.0703125 17.2637C-0.0703125 19.1528 0.223627 20.8617 0.83734 22.3708L2.69 21.6174C2.19174 20.3922 1.92969 18.9475 1.92969 17.2637H-0.0703125ZM0.839505 22.3761C1.4684 23.8976 2.40501 25.1233 3.6616 26.0103L4.81496 24.3764C3.90228 23.7321 3.18916 22.825 2.68784 21.6122L0.839505 22.3761ZM3.66482 26.0126C4.95537 26.916 6.50023 27.3418 8.24414 27.3418V25.3418C6.8344 25.3418 5.70869 25.002 4.81174 24.3741L3.66482 26.0126ZM8.24414 27.3418C9.609 27.3418 10.8493 27.0855 11.9351 26.5372L11.0336 24.7519C10.2783 25.1333 9.35845 25.3418 8.24414 25.3418V27.3418ZM11.9386 26.5354C13.0036 25.9925 13.8974 25.2412 14.6096 24.288L13.0075 23.0909C12.4802 23.7966 11.8245 24.3487 11.0302 24.7536L11.9386 26.5354ZM14.6096 24.288C15.311 23.3495 15.8229 22.2724 16.1537 21.0698L14.2252 20.5395C13.9544 21.5245 13.5458 22.3706 13.0075 23.0909L14.6096 24.288ZM16.1522 21.0752C16.4891 19.8762 16.6543 18.6041 16.6543 17.2637H14.6543C14.6543 18.4389 14.5096 19.5275 14.2267 20.5342L16.1522 21.0752ZM16.6543 17.2637V16.0605H14.6543V17.2637H16.6543ZM16.6543 16.0605C16.6543 14.1447 16.356 12.4232 15.7299 10.9186L13.8834 11.6869C14.3875 12.8984 14.6543 14.3488 14.6543 16.0605H16.6543ZM15.7321 10.9239C15.1112 9.40721 14.1757 8.19109 12.9131 7.3211L11.7783 8.96797C12.685 9.59277 13.3901 10.4821 13.8812 11.6816L15.7321 10.9239ZM12.9178 7.32433C11.6342 6.42905 10.0888 6.00977 8.33984 6.00977V8.00977C9.76278 8.00977 10.888 8.347 11.7736 8.96473L12.9178 7.32433ZM8.33984 6.00977C6.60561 6.00977 5.0618 6.4306 3.75782 7.31773L4.88281 8.97133C5.80279 8.34544 6.93866 8.00977 8.33984 8.00977V6.00977ZM3.75465 7.31989C2.47796 8.19564 1.52056 9.41579 0.871237 10.9376L2.71079 11.7225C3.22814 10.51 3.95693 9.60644 4.88597 8.96917L3.75465 7.31989ZM0.869963 10.9406C0.233616 12.4457 -0.0703125 14.1596 -0.0703125 16.0605H1.92969C1.92969 14.3704 2.19998 12.9307 2.71207 11.7195L0.869963 10.9406ZM-0.0703125 16.0605V17.2637H1.92969V16.0605H-0.0703125ZM19.6175 20.791V19.791H18.5931L18.6178 20.8151L19.6175 20.791ZM20.1097 22.9375L19.201 23.355L19.2044 23.3624L19.208 23.3698L20.1097 22.9375ZM21.4769 24.7148L20.8176 25.4667L20.8237 25.4721L20.8299 25.4774L21.4769 24.7148ZM23.678 25.918L23.3588 26.8657L23.3678 26.8686L23.678 25.918ZM33.1527 23.1836L32.3102 22.6447L32.3068 22.6502L33.1527 23.1836ZM33.262 16.2793L32.4136 16.8085L32.4159 16.8123L33.262 16.2793ZM30.9925 14.1738L30.5246 15.0577L30.535 15.063L30.9925 14.1738ZM24.7034 14.3652L25.3034 15.1652L25.3069 15.1626L24.7034 14.3652ZM23.9925 15.0352V16.0352H24.5017L24.8012 15.6233L23.9925 15.0352ZM23.8148 15.0352L22.8189 14.944L22.7191 16.0352H23.8148V15.0352ZM24.1976 10.8516V9.85156H23.2849L23.2017 10.7604L24.1976 10.8516ZM32.7835 10.8516V11.8516H33.7835V10.8516H32.7835ZM32.7835 7.32422H33.7835V6.32422H32.7835V7.32422ZM20.6702 7.32422V6.32422H19.7405L19.6729 7.25148L20.6702 7.32422ZM19.8636 18.3848L18.8662 18.312L18.788 19.3848H19.8636V18.3848ZM23.8558 18.3848V19.3848H24.5057L24.7696 18.7909L23.8558 18.3848ZM25.3323 16.9902L25.7445 17.9014L25.7541 17.897L25.3323 16.9902ZM29.3245 21.4473L28.4729 20.9232L28.47 20.9279L29.3245 21.4473ZM28.2034 22.5273L28.6786 23.4073L28.6847 23.4039L28.2034 22.5273ZM25.5784 22.7461L25.2773 23.6997L25.2888 23.7033L25.3004 23.7067L25.5784 22.7461ZM24.6624 22.3086L24.0624 23.1086L24.0783 23.1205L24.0947 23.1318L24.6624 22.3086ZM24.0198 21.6387L23.1787 22.1794L23.1854 22.1899L23.1924 22.2002L24.0198 21.6387ZM23.7054 20.791L24.6948 20.6455L24.5691 19.791H23.7054V20.791ZM18.6178 20.8151C18.6392 21.7049 18.8332 22.5545 19.201 23.355L21.0184 22.52C20.7664 21.9716 20.6322 21.3902 20.6172 20.7669L18.6178 20.8151ZM19.208 23.3698C19.5893 24.1651 20.1305 24.8643 20.8176 25.4667L22.1362 23.963C21.6383 23.5264 21.2681 23.0406 21.0114 22.5052L19.208 23.3698ZM20.8299 25.4774C21.542 26.0816 22.3917 26.5399 23.3588 26.8656L23.9973 24.9703C23.2326 24.7127 22.6149 24.369 22.1239 23.9523L20.8299 25.4774ZM23.3678 26.8686C24.3539 27.1904 25.4554 27.3418 26.6585 27.3418V25.3418C25.6194 25.3418 24.734 25.2106 23.9883 24.9673L23.3678 26.8686ZM26.6585 27.3418C28.2351 27.3418 29.6743 27.0437 30.9524 26.4203L30.0756 24.6227C29.1115 25.093 27.9803 25.3418 26.6585 25.3418V27.3418ZM30.9524 26.4203C32.2331 25.7955 33.2569 24.893 33.9985 23.717L32.3068 22.6502C31.7723 23.4977 31.037 24.1537 30.0756 24.6227L30.9524 26.4203ZM33.9951 23.7224C34.7608 22.5253 35.1234 21.1283 35.1234 19.5742H33.1234C33.1234 20.8092 32.8388 21.8185 32.3102 22.6448L33.9951 23.7224ZM35.1234 19.5742C35.1234 18.1372 34.8009 16.8458 34.1081 15.7463L32.4159 16.8123C32.8716 17.5357 33.1234 18.4409 33.1234 19.5742H35.1234ZM34.1105 15.7501C33.4436 14.6809 32.5538 13.8526 31.45 13.2846L30.535 15.063C31.3088 15.4612 31.932 16.0366 32.4136 16.8085L34.1105 15.7501ZM31.4604 13.29C30.3832 12.7198 29.2195 12.4355 27.9847 12.4355V14.4355C28.9009 14.4355 29.7424 14.6435 30.5246 15.0576L31.4604 13.29ZM27.9847 12.4355C27.1523 12.4355 26.3884 12.5353 25.7134 12.7603L26.3458 14.6577C26.7646 14.5181 27.3041 14.4355 27.9847 14.4355V12.4355ZM25.7134 12.7603C25.098 12.9654 24.5492 13.2279 24.1 13.5678L25.3069 15.1626C25.5321 14.9922 25.8674 14.8171 26.3458 14.6577L25.7134 12.7603ZM24.1034 13.5652C23.7404 13.8375 23.414 14.1304 23.1838 14.447L24.8012 15.6233C24.8627 15.5388 25.0102 15.3852 25.3034 15.1652L24.1034 13.5652ZM23.9925 14.0352H23.8148V16.0352H23.9925V14.0352ZM24.8106 15.1263L25.1934 10.9427L23.2017 10.7604L22.8189 14.944L24.8106 15.1263ZM24.1976 11.8516H32.7835V9.85156H24.1976V11.8516ZM33.7835 10.8516V7.32422H31.7835V10.8516H33.7835ZM32.7835 6.32422H20.6702V8.32422H32.7835V6.32422ZM19.6729 7.25148L18.8662 18.312L20.8609 18.4575L21.6676 7.39696L19.6729 7.25148ZM19.8636 19.3848H23.8558V17.3848H19.8636V19.3848ZM24.7696 18.7909C24.8193 18.6791 24.9195 18.5233 25.1088 18.3269L23.6691 16.9387C23.3663 17.2528 23.111 17.5982 22.942 17.9786L24.7696 18.7909ZM25.1088 18.3269C25.2524 18.1781 25.4561 18.0318 25.7445 17.9013L24.9202 16.0791C24.4429 16.295 24.0178 16.5771 23.6691 16.9387L25.1088 18.3269ZM25.7541 17.897C25.9857 17.7892 26.3002 17.7168 26.7269 17.7168V15.7168C26.0781 15.7168 25.4628 15.8267 24.9106 16.0835L25.7541 17.897ZM26.7269 17.7168C27.1595 17.7168 27.5072 17.8099 27.7969 17.9721L28.7741 16.2271C28.1522 15.8789 27.4609 15.7168 26.7269 15.7168V17.7168ZM27.7969 17.9721C28.0897 18.1361 28.3198 18.3636 28.4963 18.674L30.2348 17.6854C29.8827 17.0661 29.3927 16.5735 28.7741 16.2271L27.7969 17.9721ZM28.4963 18.674C28.6634 18.9679 28.762 19.3306 28.762 19.793H30.762C30.762 19.034 30.5964 18.3212 30.2348 17.6854L28.4963 18.674ZM28.762 19.793C28.762 20.2615 28.6554 20.6266 28.4729 20.9232L30.1762 21.9714C30.577 21.32 30.762 20.5823 30.762 19.793H28.762ZM28.47 20.9279C28.276 21.247 28.0294 21.4821 27.7222 21.6508L28.6847 23.4039C29.3072 23.0622 29.808 22.5772 30.1791 21.9667L28.47 20.9279ZM27.7283 21.6474C27.4242 21.8116 27.0917 21.8965 26.7132 21.8965V23.8965C27.4103 23.8965 28.0712 23.7352 28.6786 23.4072L27.7283 21.6474ZM26.7132 21.8965C26.3844 21.8965 26.1011 21.8563 25.8565 21.7855L25.3004 23.7067C25.7485 23.8364 26.2216 23.8965 26.7132 23.8965V21.8965ZM25.8796 21.7925C25.6158 21.7092 25.4027 21.6043 25.2302 21.4854L24.0947 23.1318C24.4508 23.3774 24.8483 23.5642 25.2773 23.6997L25.8796 21.7925ZM25.2624 21.5086C25.0926 21.3813 24.9563 21.2377 24.8473 21.0772L23.1924 22.2002C23.4298 22.55 23.7218 22.8531 24.0624 23.1086L25.2624 21.5086ZM24.861 21.0979C24.7764 20.9663 24.7203 20.8193 24.6948 20.6455L22.716 20.9365C22.7816 21.3825 22.9351 21.8006 23.1787 22.1794L24.861 21.0979ZM23.7054 19.791H19.6175V21.791H23.7054V19.791Z" fill="#828193"/>
</svg>
