<svg width="36" height="33" viewBox="0 0 36 33" fill="none" xmlns="http://www.w3.org/2000/svg">
<path opacity="0.64" d="M5.76953 12.998L4.81255 12.7077L4.80965 12.7176L5.76953 12.998ZM6.78125 11.1934L7.45626 11.9312L7.45697 11.9305L6.78125 11.1934ZM9.78906 11.1934L9.1056 11.9234L9.11334 11.9305L9.78906 11.1934ZM10.8008 13.0117L9.84081 13.2922L9.84477 13.305L10.8008 13.0117ZM10.8008 20.3262L9.84293 20.0388L9.8409 20.0458L10.8008 20.3262ZM9.78906 22.1582L10.4725 22.8882L10.473 22.8877L9.78906 22.1582ZM6.78125 22.1582L6.08968 22.8805L6.09752 22.888L6.10553 22.8954L6.78125 22.1582ZM5.76953 20.3262L4.80873 20.6037L4.8126 20.6165L5.76953 20.3262ZM1.76367 21.9941L0.837325 22.3709L0.839505 22.3761L1.76367 21.9941ZM4.23828 25.1934L3.66159 26.0103L3.66482 26.0126L4.23828 25.1934ZM11.4844 25.6445L11.9351 26.5372L11.9386 26.5354L11.4844 25.6445ZM13.8086 23.6895L14.6096 24.288L13.8086 23.6895ZM15.1895 20.8047L14.2267 20.5342L14.2252 20.5395L15.1895 20.8047ZM14.8066 11.3027L13.8812 11.6816L13.8834 11.6869L14.8066 11.3027ZM12.3457 8.14453L11.7736 8.96475L11.7783 8.96797L12.3457 8.14453ZM4.32031 8.14453L3.75781 7.31772L3.75465 7.31989L4.32031 8.14453ZM1.79102 11.3301L0.871233 10.9376L0.869963 10.9406L1.79102 11.3301ZM6.41406 16.0742C6.41406 14.8896 6.5283 13.9669 6.72941 13.2785L4.80965 12.7176C4.53681 13.6516 4.41406 14.7796 4.41406 16.0742H6.41406ZM6.72647 13.2884C6.94292 12.5748 7.20766 12.1586 7.45626 11.9312L6.10624 10.4556C5.49806 11.012 5.08833 11.7989 4.8126 12.7077L6.72647 13.2884ZM7.45697 11.9305C7.72022 11.6892 7.98371 11.5918 8.28516 11.5918V9.5918C7.45639 9.5918 6.71728 9.89543 6.10553 10.4562L7.45697 11.9305ZM8.28516 11.5918C8.59945 11.5918 8.85803 11.6916 9.10564 11.9234L10.4725 10.4633C9.86332 9.89305 9.1193 9.5918 8.28516 9.5918V11.5918ZM9.11334 11.9305C9.37075 12.1665 9.63456 12.5858 9.8409 13.2921L11.7607 12.7313C11.493 11.8152 11.0824 11.0223 10.4648 10.4562L9.11334 11.9305ZM9.84477 13.305C10.0514 13.9784 10.1699 14.8914 10.1699 16.0742H12.1699C12.1699 14.7779 12.0424 13.6492 11.7568 12.7184L9.84477 13.305ZM10.1699 16.0742V17.2363H12.1699V16.0742H10.1699ZM10.1699 17.2363C10.1699 18.418 10.0516 19.3432 9.84295 20.0388L11.7586 20.6135C12.0421 19.6685 12.1699 18.5338 12.1699 17.2363H10.1699ZM9.8409 20.0458C9.63459 20.752 9.36935 21.1809 9.10512 21.4287L10.473 22.8877C11.0838 22.3151 11.493 21.5227 11.7607 20.6066L9.8409 20.0458ZM9.10564 21.4282C8.85803 21.66 8.59945 21.7598 8.28516 21.7598V23.7598C9.1193 23.7598 9.86332 23.4585 10.4725 22.8882L9.10564 21.4282ZM8.28516 21.7598C7.98371 21.7598 7.72022 21.6624 7.45697 21.421L6.10553 22.8954C6.71728 23.4561 7.45639 23.7598 8.28516 23.7598V21.7598ZM7.47282 21.4359C7.21052 21.1848 6.94283 20.7491 6.72647 20.0359L4.8126 20.6165C5.08842 21.5257 5.49521 22.3113 6.08968 22.8805L7.47282 21.4359ZM6.73025 20.0486C6.52817 19.3492 6.41406 18.4204 6.41406 17.2363H4.41406C4.41406 18.5315 4.53693 19.6626 4.80882 20.6037L6.73025 20.0486ZM6.41406 17.2363V16.0742H4.41406V17.2363H6.41406ZM-0.0703125 17.2637C-0.0703125 19.1528 0.223627 20.8617 0.83734 22.3708L2.69 21.6174C2.19174 20.3922 1.92969 18.9475 1.92969 17.2637H-0.0703125ZM0.839505 22.3761C1.4684 23.8976 2.40501 25.1233 3.6616 26.0103L4.81496 24.3764C3.90228 23.7321 3.18916 22.825 2.68784 21.6122L0.839505 22.3761ZM3.66482 26.0126C4.95537 26.916 6.50023 27.3418 8.24414 27.3418V25.3418C6.8344 25.3418 5.70869 25.002 4.81174 24.3741L3.66482 26.0126ZM8.24414 27.3418C9.609 27.3418 10.8493 27.0855 11.9351 26.5372L11.0336 24.7519C10.2783 25.1333 9.35845 25.3418 8.24414 25.3418V27.3418ZM11.9386 26.5354C13.0036 25.9925 13.8974 25.2412 14.6096 24.288L13.0075 23.0909C12.4802 23.7966 11.8245 24.3487 11.0302 24.7536L11.9386 26.5354ZM14.6096 24.288C15.311 23.3495 15.8229 22.2724 16.1537 21.0698L14.2252 20.5395C13.9544 21.5245 13.5458 22.3706 13.0075 23.0909L14.6096 24.288ZM16.1522 21.0752C16.4891 19.8762 16.6543 18.6041 16.6543 17.2637H14.6543C14.6543 18.4389 14.5096 19.5275 14.2267 20.5342L16.1522 21.0752ZM16.6543 17.2637V16.0605H14.6543V17.2637H16.6543ZM16.6543 16.0605C16.6543 14.1447 16.356 12.4232 15.7299 10.9186L13.8834 11.6869C14.3875 12.8984 14.6543 14.3488 14.6543 16.0605H16.6543ZM15.7321 10.9239C15.1112 9.40721 14.1757 8.19109 12.9131 7.3211L11.7783 8.96797C12.685 9.59277 13.3901 10.4821 13.8812 11.6816L15.7321 10.9239ZM12.9178 7.32433C11.6342 6.42905 10.0888 6.00977 8.33984 6.00977V8.00977C9.76278 8.00977 10.888 8.347 11.7736 8.96473L12.9178 7.32433ZM8.33984 6.00977C6.60561 6.00977 5.0618 6.4306 3.75782 7.31773L4.88281 8.97133C5.80279 8.34544 6.93866 8.00977 8.33984 8.00977V6.00977ZM3.75465 7.31989C2.47796 8.19564 1.52056 9.41579 0.871237 10.9376L2.71079 11.7225C3.22814 10.51 3.95693 9.60644 4.88597 8.96917L3.75465 7.31989ZM0.869963 10.9406C0.233616 12.4457 -0.0703125 14.1596 -0.0703125 16.0605H1.92969C1.92969 14.3704 2.19998 12.9307 2.71207 11.7195L0.869963 10.9406ZM-0.0703125 16.0605V17.2637H1.92969V16.0605H-0.0703125ZM25.8929 7.33789V6.33789H25.3317L25.0393 6.81693L25.8929 7.33789ZM22.3655 13.2441L21.5022 12.7395L21.5015 12.7408L22.3655 13.2441ZM19.057 19.2461L18.1699 18.7845L18.057 19.0015V19.2461H19.057ZM19.057 22.8008H18.057V23.8008H19.057V22.8008ZM28.053 22.8008H29.053V21.8008H28.053V22.8008ZM28.053 26H27.053V27H28.053V26ZM32.2503 26V27H33.2503V26H32.2503ZM32.2503 22.8008V21.8008H31.2503V22.8008H32.2503ZM34.4378 22.8008V23.8008H35.4378V22.8008H34.4378ZM34.4378 19.2871H35.4378V18.2871H34.4378V19.2871ZM32.2503 19.2871H31.2503V20.2871H32.2503V19.2871ZM32.2503 7.33789H33.2503V6.33789H32.2503V7.33789ZM22.9671 19.2871H21.9671V20.2871H22.9671V19.2871ZM22.9671 19.2324L22.0749 18.7809L21.9671 18.9938V19.2324H22.9671ZM25.346 14.8164L24.4805 14.3156L24.4781 14.3197L25.346 14.8164ZM27.8753 10.5645V9.56445H27.3148L27.0223 10.0425L27.8753 10.5645ZM28.053 10.5645H29.053V9.56445H28.053V10.5645ZM28.053 19.2871V20.2871H29.053V19.2871H28.053ZM25.0393 6.81693C23.8511 8.76384 22.672 10.738 21.5022 12.7395L23.2289 13.7487C24.3924 11.758 25.5649 9.79475 26.7465 7.85885L25.0393 6.81693ZM21.5015 12.7408C20.336 14.7413 19.2255 16.7559 18.1699 18.7845L19.944 19.7077C20.9848 17.7077 22.08 15.7209 23.2296 13.7475L21.5015 12.7408ZM18.057 19.2461V22.8008H20.057V19.2461H18.057ZM19.057 23.8008H28.053V21.8008H19.057V23.8008ZM27.053 22.8008V26H29.053V22.8008H27.053ZM28.053 27H32.2503V25H28.053V27ZM33.2503 26V22.8008H31.2503V26H33.2503ZM32.2503 23.8008H34.4378V21.8008H32.2503V23.8008ZM35.4378 22.8008V19.2871H33.4378V22.8008H35.4378ZM34.4378 18.2871H32.2503V20.2871H34.4378V18.2871ZM33.2503 19.2871V7.33789H31.2503V19.2871H33.2503ZM32.2503 6.33789H25.8929V8.33789H32.2503V6.33789ZM23.9671 19.2871V19.2324H21.9671V19.2871H23.9671ZM23.8594 19.684C24.6082 18.2044 25.393 16.7475 26.2139 15.3131L24.4781 14.3197C23.6402 15.7838 22.8391 17.2709 22.0749 18.7809L23.8594 19.684ZM26.2116 15.3172C27.0461 13.8749 27.8851 12.4646 28.7283 11.0864L27.0223 10.0425C26.1703 11.4352 25.323 12.8595 24.4805 14.3156L26.2116 15.3172ZM27.8753 11.5645H28.053V9.56445H27.8753V11.5645ZM27.053 10.5645V19.2871H29.053V10.5645H27.053ZM28.053 18.2871H22.9671V20.2871H28.053V18.2871Z" fill="#828193"/>
</svg>
