<svg width="35" height="33" viewBox="0 0 35 33" fill="none" xmlns="http://www.w3.org/2000/svg">
<path opacity="0.64" d="M5.76953 12.998L4.81255 12.7077L4.80965 12.7176L5.76953 12.998ZM6.78125 11.1934L7.45626 11.9312L7.45697 11.9305L6.78125 11.1934ZM9.78906 11.1934L9.1056 11.9234L9.11334 11.9305L9.78906 11.1934ZM10.8008 13.0117L9.84081 13.2922L9.84477 13.305L10.8008 13.0117ZM10.8008 20.3262L9.84293 20.0388L9.8409 20.0458L10.8008 20.3262ZM9.78906 22.1582L10.4725 22.8882L10.473 22.8877L9.78906 22.1582ZM6.78125 22.1582L6.08968 22.8805L6.09752 22.888L6.10553 22.8954L6.78125 22.1582ZM5.76953 20.3262L4.80873 20.6037L4.8126 20.6165L5.76953 20.3262ZM1.76367 21.9941L0.837325 22.3709L0.839505 22.3761L1.76367 21.9941ZM4.23828 25.1934L3.66159 26.0103L3.66482 26.0126L4.23828 25.1934ZM11.4844 25.6445L11.9351 26.5372L11.9386 26.5354L11.4844 25.6445ZM13.8086 23.6895L14.6096 24.288L13.8086 23.6895ZM15.1895 20.8047L14.2267 20.5342L14.2252 20.5395L15.1895 20.8047ZM14.8066 11.3027L13.8812 11.6816L13.8834 11.6869L14.8066 11.3027ZM12.3457 8.14453L11.7736 8.96475L11.7783 8.96797L12.3457 8.14453ZM4.32031 8.14453L3.75781 7.31772L3.75465 7.31989L4.32031 8.14453ZM1.79102 11.3301L0.871233 10.9376L0.869963 10.9406L1.79102 11.3301ZM6.41406 16.0742C6.41406 14.8896 6.5283 13.9669 6.72941 13.2785L4.80965 12.7176C4.53681 13.6516 4.41406 14.7796 4.41406 16.0742H6.41406ZM6.72647 13.2884C6.94292 12.5748 7.20766 12.1586 7.45626 11.9312L6.10624 10.4556C5.49806 11.012 5.08833 11.7989 4.8126 12.7077L6.72647 13.2884ZM7.45697 11.9305C7.72022 11.6892 7.98371 11.5918 8.28516 11.5918V9.5918C7.45639 9.5918 6.71728 9.89543 6.10553 10.4562L7.45697 11.9305ZM8.28516 11.5918C8.59945 11.5918 8.85803 11.6916 9.10564 11.9234L10.4725 10.4633C9.86332 9.89305 9.1193 9.5918 8.28516 9.5918V11.5918ZM9.11334 11.9305C9.37075 12.1665 9.63456 12.5858 9.8409 13.2921L11.7607 12.7313C11.493 11.8152 11.0824 11.0223 10.4648 10.4562L9.11334 11.9305ZM9.84477 13.305C10.0514 13.9784 10.1699 14.8914 10.1699 16.0742H12.1699C12.1699 14.7779 12.0424 13.6492 11.7568 12.7184L9.84477 13.305ZM10.1699 16.0742V17.2363H12.1699V16.0742H10.1699ZM10.1699 17.2363C10.1699 18.418 10.0516 19.3432 9.84295 20.0388L11.7586 20.6135C12.0421 19.6685 12.1699 18.5338 12.1699 17.2363H10.1699ZM9.8409 20.0458C9.63459 20.752 9.36935 21.1809 9.10512 21.4287L10.473 22.8877C11.0838 22.3151 11.493 21.5227 11.7607 20.6066L9.8409 20.0458ZM9.10564 21.4282C8.85803 21.66 8.59945 21.7598 8.28516 21.7598V23.7598C9.1193 23.7598 9.86332 23.4585 10.4725 22.8882L9.10564 21.4282ZM8.28516 21.7598C7.98371 21.7598 7.72022 21.6624 7.45697 21.421L6.10553 22.8954C6.71728 23.4561 7.45639 23.7598 8.28516 23.7598V21.7598ZM7.47282 21.4359C7.21052 21.1848 6.94283 20.7491 6.72647 20.0359L4.8126 20.6165C5.08842 21.5257 5.49521 22.3113 6.08968 22.8805L7.47282 21.4359ZM6.73025 20.0486C6.52817 19.3492 6.41406 18.4204 6.41406 17.2363H4.41406C4.41406 18.5315 4.53693 19.6626 4.80882 20.6037L6.73025 20.0486ZM6.41406 17.2363V16.0742H4.41406V17.2363H6.41406ZM-0.0703125 17.2637C-0.0703125 19.1528 0.223627 20.8617 0.83734 22.3708L2.69 21.6174C2.19174 20.3922 1.92969 18.9475 1.92969 17.2637H-0.0703125ZM0.839505 22.3761C1.4684 23.8976 2.40501 25.1233 3.6616 26.0103L4.81496 24.3764C3.90228 23.7321 3.18916 22.825 2.68784 21.6122L0.839505 22.3761ZM3.66482 26.0126C4.95537 26.916 6.50023 27.3418 8.24414 27.3418V25.3418C6.8344 25.3418 5.70869 25.002 4.81174 24.3741L3.66482 26.0126ZM8.24414 27.3418C9.609 27.3418 10.8493 27.0855 11.9351 26.5372L11.0336 24.7519C10.2783 25.1333 9.35845 25.3418 8.24414 25.3418V27.3418ZM11.9386 26.5354C13.0036 25.9925 13.8974 25.2412 14.6096 24.288L13.0075 23.0909C12.4802 23.7966 11.8245 24.3487 11.0302 24.7536L11.9386 26.5354ZM14.6096 24.288C15.311 23.3495 15.8229 22.2724 16.1537 21.0698L14.2252 20.5395C13.9544 21.5245 13.5458 22.3706 13.0075 23.0909L14.6096 24.288ZM16.1522 21.0752C16.4891 19.8762 16.6543 18.6041 16.6543 17.2637H14.6543C14.6543 18.4389 14.5096 19.5275 14.2267 20.5342L16.1522 21.0752ZM16.6543 17.2637V16.0605H14.6543V17.2637H16.6543ZM16.6543 16.0605C16.6543 14.1447 16.356 12.4232 15.7299 10.9186L13.8834 11.6869C14.3875 12.8984 14.6543 14.3488 14.6543 16.0605H16.6543ZM15.7321 10.9239C15.1112 9.40721 14.1757 8.19109 12.9131 7.3211L11.7783 8.96797C12.685 9.59277 13.3901 10.4821 13.8812 11.6816L15.7321 10.9239ZM12.9178 7.32433C11.6342 6.42905 10.0888 6.00977 8.33984 6.00977V8.00977C9.76278 8.00977 10.888 8.347 11.7736 8.96473L12.9178 7.32433ZM8.33984 6.00977C6.60561 6.00977 5.0618 6.4306 3.75782 7.31773L4.88281 8.97133C5.80279 8.34544 6.93866 8.00977 8.33984 8.00977V6.00977ZM3.75465 7.31989C2.47796 8.19564 1.52056 9.41579 0.871237 10.9376L2.71079 11.7225C3.22814 10.51 3.95693 9.60644 4.88597 8.96917L3.75465 7.31989ZM0.869963 10.9406C0.233616 12.4457 -0.0703125 14.1596 -0.0703125 16.0605H1.92969C1.92969 14.3704 2.19998 12.9307 2.71207 11.7195L0.869963 10.9406ZM-0.0703125 16.0605V17.2637H1.92969V16.0605H-0.0703125ZM24.0472 18.0566H23.0472V19.0566H24.0472V18.0566ZM27.7386 18.3848L27.2914 19.2792L27.3025 19.2847L27.3137 19.29L27.7386 18.3848ZM28.7503 19.2461L29.5983 18.7161L28.7503 19.2461ZM29.0921 20.4766H28.0921V20.4864L28.0923 20.4962L29.0921 20.4766ZM28.7503 21.7344L29.5888 22.2794L29.5948 22.2699L28.7503 21.7344ZM24.6214 22.6367L24.1893 23.5385L24.2005 23.5439L24.2118 23.549L24.6214 22.6367ZM23.1312 20.5859L24.1293 20.5248L24.0718 19.5859H23.1312V20.5859ZM19.0159 20.5859V19.5859H17.9979L18.0161 20.6038L19.0159 20.5859ZM19.7952 23.4297L18.9275 23.9268L18.9315 23.9336L19.7952 23.4297ZM22.1058 25.5488L21.6429 26.4353L21.6523 26.4401L22.1058 25.5488ZM31.307 24.8516L30.74 24.0278L30.7349 24.0313L31.307 24.8516ZM33.5628 20.75H34.5629L34.5628 20.7408L33.5628 20.75ZM32.9476 18.3027L32.0976 18.8295L32.1009 18.8349L32.9476 18.3027ZM29.639 16.2656H28.639V17.2069L29.5785 17.2638L29.639 16.2656ZM29.639 16.0742L29.5056 15.0832L28.639 15.1998V16.0742H29.639ZM31.1292 15.5L30.6125 14.6438L30.606 14.6478L31.1292 15.5ZM32.4691 14.1328L33.3207 14.6569L33.3243 14.6511L32.4691 14.1328ZM33.0023 11.9043L32.0023 11.9137L32.0023 11.9146L33.0023 11.9043ZM32.0863 9.34766L31.3063 9.97354L31.311 9.97933L32.0863 9.34766ZM23.3363 7.43359L23.6433 8.38535L23.6525 8.38228L23.3363 7.43359ZM19.8089 10.3867L20.7172 10.805L19.8089 10.3867ZM19.2894 12.6699L18.2899 12.637L18.2559 13.6699H19.2894V12.6699ZM23.4593 12.6699V13.6699H24.4276L24.4588 12.7022L23.4593 12.6699ZM24.1566 11.0977L24.8637 11.8048L24.8709 11.7975L24.878 11.7902L24.1566 11.0977ZM24.9632 10.5508L24.5693 9.63164L24.9632 10.5508ZM27.9027 10.9609L27.2483 11.7171L27.256 11.7238L27.2639 11.7303L27.9027 10.9609ZM28.3128 13.6543L29.1622 14.1823L29.1683 14.1721L28.3128 13.6543ZM24.0472 14.7344V13.7344H23.0472V14.7344H24.0472ZM24.0472 19.0566H26.1116V17.0566H24.0472V19.0566ZM26.1116 19.0566C26.6516 19.0566 27.0301 19.1486 27.2914 19.2792L28.1858 17.4903C27.572 17.1835 26.866 17.0566 26.1116 17.0566V19.0566ZM27.3137 19.29C27.6125 19.4302 27.7908 19.5977 27.9023 19.7761L29.5983 18.7161C29.2541 18.1653 28.758 17.7586 28.1635 17.4795L27.3137 19.29ZM27.9023 19.7761C28.0248 19.9721 28.0921 20.1965 28.0921 20.4766H30.0921C30.0921 19.8452 29.9316 19.2493 29.5983 18.7161L27.9023 19.7761ZM28.0923 20.4962C28.0978 20.7752 28.0322 20.9996 27.9058 21.1988L29.5948 22.2699C29.9424 21.7218 30.1047 21.1076 30.0919 20.457L28.0923 20.4962ZM27.9119 21.1894C27.7836 21.3868 27.59 21.5656 27.2914 21.7149L28.1858 23.5038C28.7622 23.2156 29.2431 22.8111 29.5888 22.2794L27.9119 21.1894ZM27.2914 21.7149C27.0229 21.8492 26.6595 21.9375 26.1663 21.9375V23.9375C26.8946 23.9375 27.5793 23.8071 28.1858 23.5038L27.2914 21.7149ZM26.1663 21.9375C25.6976 21.9375 25.3265 21.8571 25.031 21.7244L24.2118 23.549C24.8095 23.8173 25.4684 23.9375 26.1663 23.9375V21.9375ZM25.0535 21.7349C24.7482 21.5886 24.5296 21.4055 24.3711 21.1924L22.7662 22.3858C23.1364 22.8836 23.6196 23.2656 24.1893 23.5385L25.0535 21.7349ZM24.3711 21.1924C24.2239 20.9943 24.1449 20.7798 24.1293 20.5248L22.133 20.647C22.1721 21.2853 22.3848 21.8729 22.7662 22.3858L24.3711 21.1924ZM23.1312 19.5859H19.0159V21.5859H23.1312V19.5859ZM18.0161 20.6038C18.0373 21.7908 18.3415 22.9038 18.9275 23.9268L20.6629 22.9326C20.2464 22.2055 20.031 21.4228 20.0158 20.5681L18.0161 20.6038ZM18.9315 23.9336C19.5501 24.9942 20.4711 25.8234 21.6429 26.4353L22.5686 24.6624C21.6806 24.1987 21.0612 23.6152 20.659 22.9258L18.9315 23.9336ZM21.6523 26.4401C22.8738 27.0616 24.3593 27.3418 26.057 27.3418V25.3418C24.5645 25.3418 23.4158 25.0934 22.5592 24.6576L21.6523 26.4401ZM26.057 27.3418C27.1452 27.3418 28.1897 27.2032 29.1865 26.9212L28.6422 24.9967C27.8343 25.2252 26.9739 25.3418 26.057 25.3418V27.3418ZM29.1865 26.9212C30.1843 26.639 31.0854 26.2252 31.879 25.6718L30.7349 24.0313C30.1431 24.4441 29.4492 24.7685 28.6422 24.9967L29.1865 26.9212ZM31.8739 25.6753C32.6899 25.1137 33.3466 24.4182 33.8267 23.5889L32.0958 22.5869C31.7738 23.143 31.3277 23.6233 30.74 24.0278L31.8739 25.6753ZM33.8267 23.5889C34.323 22.7316 34.5628 21.777 34.5628 20.75H32.5628C32.5628 21.4548 32.4016 22.0588 32.0958 22.5869L33.8267 23.5889ZM34.5628 20.7408C34.5525 19.6197 34.3205 18.6078 33.7942 17.7706L32.1009 18.8349C32.3767 19.2737 32.5549 19.8933 32.5629 20.7592L34.5628 20.7408ZM33.7976 17.776C33.3169 17.0003 32.6968 16.3823 31.9327 15.9539L30.9547 17.6985C31.3937 17.9446 31.7762 18.3109 32.0976 18.8295L33.7976 17.776ZM31.9327 15.9539C31.2186 15.5536 30.4719 15.3143 29.6995 15.2675L29.5785 17.2638C30.0092 17.2899 30.4656 17.4243 30.9547 17.6985L31.9327 15.9539ZM30.639 16.2656V16.0742H28.639V16.2656H30.639ZM29.7724 17.0653C30.417 16.9785 31.0456 16.7248 31.6525 16.3522L30.606 14.6478C30.1738 14.9132 29.8089 15.0423 29.5056 15.0832L29.7724 17.0653ZM31.6459 16.3562C32.3275 15.9448 32.8833 15.3678 33.3207 14.6569L31.6174 13.6087C31.3257 14.0827 30.9882 14.4171 30.6126 14.6438L31.6459 16.3562ZM33.3243 14.6511C33.8074 13.854 34.0128 12.9168 34.0022 11.894L32.0023 11.9146C32.01 12.66 31.8599 13.2085 31.6139 13.6145L33.3243 14.6511ZM34.0022 11.8949C33.991 10.7054 33.6086 9.63294 32.8615 8.71598L31.311 9.97933C31.767 10.5389 31.9953 11.1709 32.0023 11.9137L34.0022 11.8949ZM32.8662 8.72179C32.1515 7.83115 31.2011 7.16262 30.0557 6.69826L29.3043 8.55174C30.1823 8.90769 30.8361 9.3876 31.3063 9.97352L32.8662 8.72179ZM30.0557 6.69826C28.9055 6.23195 27.6262 6.00977 26.2347 6.00977V8.00977C27.4135 8.00977 28.4311 8.19774 29.3043 8.55174L30.0557 6.69826ZM26.2347 6.00977C25.0648 6.00977 23.9888 6.162 23.02 6.48491L23.6525 8.38228C24.379 8.14009 25.2353 8.00977 26.2347 8.00977V6.00977ZM23.0292 6.48189C22.0756 6.78952 21.2358 7.23521 20.5302 7.83232L21.822 9.35909C22.3013 8.95359 22.9016 8.62454 23.6433 8.3853L23.0292 6.48189ZM20.5302 7.83232C19.8281 8.42636 19.2819 9.14049 18.9006 9.96842L20.7172 10.805C20.974 10.2475 21.3392 9.76765 21.822 9.35909L20.5302 7.83232ZM18.9006 9.96842C18.5211 10.7925 18.3213 11.6861 18.2899 12.637L20.2888 12.7029C20.3122 11.9948 20.4587 11.3663 20.7172 10.805L18.9006 9.96842ZM19.2894 13.6699H23.4593V11.6699H19.2894V13.6699ZM24.4588 12.7022C24.4636 12.5522 24.4971 12.3978 24.5683 12.2335L22.7331 11.4383C22.5673 11.821 22.4732 12.2225 22.4598 12.6377L24.4588 12.7022ZM24.5683 12.2335C24.6348 12.08 24.7305 11.938 24.8637 11.8048L23.4495 10.3905C23.1452 10.6949 22.9036 11.045 22.7331 11.4383L24.5683 12.2335ZM24.878 11.7902C24.995 11.6682 25.1491 11.5591 25.3571 11.4699L24.5693 9.63164C24.1393 9.81593 23.7556 10.0714 23.4352 10.4051L24.878 11.7902ZM25.3571 11.4699C25.5312 11.3953 25.758 11.3457 26.057 11.3457V9.3457C25.5356 9.3457 25.0333 9.43279 24.5693 9.63164L25.3571 11.4699ZM26.057 11.3457C26.6251 11.3457 26.9919 11.4952 27.2483 11.7171L28.557 10.2048C27.8655 9.60635 27.0018 9.3457 26.057 9.3457V11.3457ZM27.2639 11.7303C27.5256 11.9476 27.6273 12.1748 27.6273 12.4785H29.6273C29.6273 11.5609 29.2459 10.7764 28.5414 10.1915L27.2639 11.7303ZM27.6273 12.4785C27.6273 12.7487 27.5648 12.9589 27.4573 13.1365L29.1683 14.1721C29.4801 13.657 29.6273 13.0833 29.6273 12.4785H27.6273ZM27.4635 13.1264C27.3628 13.2884 27.2118 13.4314 26.9716 13.5487L27.8493 15.3458C28.393 15.0803 28.8436 14.6947 29.1621 14.1822L27.4635 13.1264ZM26.9716 13.5487C26.7423 13.6607 26.4379 13.7344 26.0296 13.7344V15.7344C26.6786 15.7344 27.2948 15.6166 27.8493 15.3458L26.9716 13.5487ZM26.0296 13.7344H24.0472V15.7344H26.0296V13.7344ZM23.0472 14.7344V18.0566H25.0472V14.7344H23.0472Z" fill="#828193"/>
</svg>
