<svg width="77" height="1218" viewBox="0 0 77 1218" fill="none" xmlns="http://www.w3.org/2000/svg">
    <line x1="33.5" y1="53" x2="33.5" y2="1210" stroke="#F7CF86" stroke-opacity="0.29" stroke-width="3" />
    <rect x="1" y="1" width="73" height="74" rx="36.5" fill="#050427" />
    <path
        d="M26.248 48C24.456 48 22.8133 47.744 21.32 47.232C19.8267 46.72 18.5467 45.9733 17.48 44.992C16.4347 43.9893 15.6133 42.7733 15.016 41.344C14.44 39.8933 14.152 38.24 14.152 36.384C14.152 34.656 14.4613 33.0773 15.08 31.648C15.6987 30.2187 16.552 28.992 17.64 27.968C18.7493 26.944 20.0507 26.1547 21.544 25.6C23.0587 25.024 24.6907 24.736 26.44 24.736C28.1893 24.736 29.8107 25.024 31.304 25.6C32.7973 26.1547 34.088 26.944 35.176 27.968C36.264 28.9707 37.1067 30.1867 37.704 31.616C38.3227 33.024 38.632 34.5813 38.632 36.288C38.632 37.1627 38.536 37.984 38.344 38.752C38.152 39.4987 37.896 40.1813 37.576 40.8C37.256 41.4187 36.8933 41.9733 36.488 42.464C36.0827 42.9333 35.6773 43.328 35.272 43.648V43.744L40.04 43.648V48H26.248ZM32.84 36.448C32.84 35.4667 32.68 34.56 32.36 33.728C32.0613 32.896 31.624 32.1813 31.048 31.584C30.4933 30.9867 29.8213 30.528 29.032 30.208C28.2427 29.8667 27.3787 29.696 26.44 29.696C25.5227 29.696 24.6693 29.8667 23.88 30.208C23.112 30.528 22.44 30.9867 21.864 31.584C21.288 32.1813 20.84 32.896 20.52 33.728C20.2 34.56 20.04 35.4667 20.04 36.448C20.04 37.472 20.1893 38.4107 20.488 39.264C20.808 40.096 21.2453 40.8213 21.8 41.44C22.376 42.0373 23.048 42.5067 23.816 42.848C24.6053 43.168 25.4693 43.328 26.408 43.328C27.3253 43.328 28.1787 43.168 28.968 42.848C29.7573 42.5067 30.44 42.0373 31.016 41.44C31.592 40.8213 32.04 40.096 32.36 39.264C32.68 38.4107 32.84 37.472 32.84 36.448ZM49.4935 48V31.36L45.2695 34.624L42.4855 30.816L49.9415 25.344H54.8695V48H49.4935Z"
        fill="#F7CF86" />
    <rect x="1" y="1" width="73" height="74" rx="36.5" stroke="#F7CF86" stroke-width="2" />
    <rect x="3" y="781" width="73" height="74" rx="36.5" fill="#050427" />
    <path
        d="M28.248 828C26.456 828 24.8133 827.744 23.32 827.232C21.8267 826.72 20.5467 825.973 19.48 824.992C18.4347 823.989 17.6133 822.773 17.016 821.344C16.44 819.893 16.152 818.24 16.152 816.384C16.152 814.656 16.4613 813.077 17.08 811.648C17.6987 810.219 18.552 808.992 19.64 807.968C20.7493 806.944 22.0507 806.155 23.544 805.6C25.0587 805.024 26.6907 804.736 28.44 804.736C30.1893 804.736 31.8107 805.024 33.304 805.6C34.7973 806.155 36.088 806.944 37.176 807.968C38.264 808.971 39.1067 810.187 39.704 811.616C40.3227 813.024 40.632 814.581 40.632 816.288C40.632 817.163 40.536 817.984 40.344 818.752C40.152 819.499 39.896 820.181 39.576 820.8C39.256 821.419 38.8933 821.973 38.488 822.464C38.0827 822.933 37.6773 823.328 37.272 823.648V823.744L42.04 823.648V828H28.248ZM34.84 816.448C34.84 815.467 34.68 814.56 34.36 813.728C34.0613 812.896 33.624 812.181 33.048 811.584C32.4933 810.987 31.8213 810.528 31.032 810.208C30.2427 809.867 29.3787 809.696 28.44 809.696C27.5227 809.696 26.6693 809.867 25.88 810.208C25.112 810.528 24.44 810.987 23.864 811.584C23.288 812.181 22.84 812.896 22.52 813.728C22.2 814.56 22.04 815.467 22.04 816.448C22.04 817.472 22.1893 818.411 22.488 819.264C22.808 820.096 23.2453 820.821 23.8 821.44C24.376 822.037 25.048 822.507 25.816 822.848C26.6053 823.168 27.4693 823.328 28.408 823.328C29.3253 823.328 30.1787 823.168 30.968 822.848C31.7573 822.507 32.44 822.037 33.016 821.44C33.592 820.821 34.04 820.096 34.36 819.264C34.68 818.411 34.84 817.472 34.84 816.448ZM51.4935 828V811.36L47.2695 814.624L44.4855 810.816L51.9415 805.344H56.8695V828H51.4935Z"
        fill="#F7CF86" />
    <rect x="3" y="781" width="73" height="74" rx="36.5" stroke="#F7CF86" stroke-width="2" />
    <rect x="3" y="391" width="73" height="74" rx="36.5" fill="#050427" />
    <path
        d="M28.248 438C26.456 438 24.8133 437.744 23.32 437.232C21.8267 436.72 20.5467 435.973 19.48 434.992C18.4347 433.989 17.6133 432.773 17.016 431.344C16.44 429.893 16.152 428.24 16.152 426.384C16.152 424.656 16.4613 423.077 17.08 421.648C17.6987 420.219 18.552 418.992 19.64 417.968C20.7493 416.944 22.0507 416.155 23.544 415.6C25.0587 415.024 26.6907 414.736 28.44 414.736C30.1893 414.736 31.8107 415.024 33.304 415.6C34.7973 416.155 36.088 416.944 37.176 417.968C38.264 418.971 39.1067 420.187 39.704 421.616C40.3227 423.024 40.632 424.581 40.632 426.288C40.632 427.163 40.536 427.984 40.344 428.752C40.152 429.499 39.896 430.181 39.576 430.8C39.256 431.419 38.8933 431.973 38.488 432.464C38.0827 432.933 37.6773 433.328 37.272 433.648V433.744L42.04 433.648V438H28.248ZM34.84 426.448C34.84 425.467 34.68 424.56 34.36 423.728C34.0613 422.896 33.624 422.181 33.048 421.584C32.4933 420.987 31.8213 420.528 31.032 420.208C30.2427 419.867 29.3787 419.696 28.44 419.696C27.5227 419.696 26.6693 419.867 25.88 420.208C25.112 420.528 24.44 420.987 23.864 421.584C23.288 422.181 22.84 422.896 22.52 423.728C22.2 424.56 22.04 425.467 22.04 426.448C22.04 427.472 22.1893 428.411 22.488 429.264C22.808 430.096 23.2453 430.821 23.8 431.44C24.376 432.037 25.048 432.507 25.816 432.848C26.6053 433.168 27.4693 433.328 28.408 433.328C29.3253 433.328 30.1787 433.168 30.968 432.848C31.7573 432.507 32.44 432.037 33.016 431.44C33.592 430.821 34.04 430.096 34.36 429.264C34.68 428.411 34.84 427.472 34.84 426.448ZM51.4935 438V421.36L47.2695 424.624L44.4855 420.816L51.9415 415.344H56.8695V438H51.4935Z"
        fill="#F7CF86" />
    <rect x="3" y="391" width="73" height="74" rx="36.5" stroke="#F7CF86" stroke-width="2" />
    <path
        d="M28.248 1218C26.456 1218 24.8133 1217.74 23.32 1217.23C21.8267 1216.72 20.5467 1215.97 19.48 1214.99C18.4347 1213.99 17.6133 1212.77 17.016 1211.34C16.44 1209.89 16.152 1208.24 16.152 1206.38C16.152 1204.66 16.4613 1203.08 17.08 1201.65C17.6987 1200.22 18.552 1198.99 19.64 1197.97C20.7493 1196.94 22.0507 1196.15 23.544 1195.6C25.0587 1195.02 26.6907 1194.74 28.44 1194.74C30.1893 1194.74 31.8107 1195.02 33.304 1195.6C34.7973 1196.15 36.088 1196.94 37.176 1197.97C38.264 1198.97 39.1067 1200.19 39.704 1201.62C40.3227 1203.02 40.632 1204.58 40.632 1206.29C40.632 1207.16 40.536 1207.98 40.344 1208.75C40.152 1209.5 39.896 1210.18 39.576 1210.8C39.256 1211.42 38.8933 1211.97 38.488 1212.46C38.0827 1212.93 37.6773 1213.33 37.272 1213.65V1213.74L42.04 1213.65V1218H28.248ZM34.84 1206.45C34.84 1205.47 34.68 1204.56 34.36 1203.73C34.0613 1202.9 33.624 1202.18 33.048 1201.58C32.4933 1200.99 31.8213 1200.53 31.032 1200.21C30.2427 1199.87 29.3787 1199.7 28.44 1199.7C27.5227 1199.7 26.6693 1199.87 25.88 1200.21C25.112 1200.53 24.44 1200.99 23.864 1201.58C23.288 1202.18 22.84 1202.9 22.52 1203.73C22.2 1204.56 22.04 1205.47 22.04 1206.45C22.04 1207.47 22.1893 1208.41 22.488 1209.26C22.808 1210.1 23.2453 1210.82 23.8 1211.44C24.376 1212.04 25.048 1212.51 25.816 1212.85C26.6053 1213.17 27.4693 1213.33 28.408 1213.33C29.3253 1213.33 30.1787 1213.17 30.968 1212.85C31.7573 1212.51 32.44 1212.04 33.016 1211.44C33.592 1210.82 34.04 1210.1 34.36 1209.26C34.68 1208.41 34.84 1207.47 34.84 1206.45ZM51.4935 1218V1201.36L47.2695 1204.62L44.4855 1200.82L51.9415 1195.34H56.8695V1218H51.4935Z"
        fill="#F7CF86" />
</svg>