<svg width="104" height="104" viewBox="0 0 104 104" fill="none" xmlns="http://www.w3.org/2000/svg">
    <path
        d="M50.9842 58.8148C50.9842 60.0742 50.9842 61.3437 50.9842 62.6031C50.9842 65.6398 50.9842 68.6664 50.9842 71.7031C50.9842 75.3797 50.9842 79.0461 50.9842 82.7227C50.9842 85.9016 50.9842 89.0805 50.9842 92.2594C50.9842 93.3055 50.9842 94.3617 50.9842 95.4078C50.9842 95.9055 50.9436 96.4234 50.9842 96.9211C50.9842 96.9414 50.9842 96.9617 50.9842 96.982C51.492 96.6875 51.9998 96.393 52.5076 96.1086C51.3092 95.4789 50.1107 94.8391 48.9123 94.2094C46.0381 92.6859 43.1639 91.1727 40.2795 89.6492C36.7959 87.8109 33.3123 85.9727 29.8389 84.1344C26.8225 82.5398 23.8162 80.9555 20.7998 79.3609C19.7943 78.8328 18.799 78.3047 17.7936 77.7766C17.3264 77.5328 16.8693 77.2281 16.3818 77.0352C16.3615 77.025 16.3412 77.0148 16.3209 77.0047C16.4936 77.2992 16.6561 77.5937 16.8287 77.8781C16.8287 75.7453 16.8287 73.6227 16.8287 71.4898C16.8287 68.118 16.8287 64.7359 16.8287 61.3641C16.8287 60.582 16.8287 59.8 16.8287 59.018C16.3209 59.3125 15.8131 59.607 15.3053 59.8914C18.1795 61.4047 21.0537 62.9281 23.9279 64.4414C28.4678 66.8383 33.0178 69.2352 37.5576 71.632C38.6037 72.1805 39.6397 72.7289 40.6857 73.2875C41.0514 73.4805 41.6303 73.4805 41.9147 73.125C43.1232 71.6016 44.342 70.0781 45.5506 68.5547C47.4904 66.107 49.4404 63.6594 51.3803 61.2117C51.8272 60.6531 52.274 60.0945 52.7209 59.5258C53.0662 59.0992 53.1373 58.5102 52.7209 58.0937C52.3654 57.7383 51.624 57.657 51.2889 58.0937C50.0803 59.6172 48.8615 61.1406 47.6529 62.6641C45.7131 65.1117 43.7631 67.5594 41.8232 70.007C41.3764 70.5656 40.9295 71.1242 40.4826 71.693C40.8889 71.6422 41.3053 71.5914 41.7115 71.5305C38.8373 70.0172 35.9631 68.4937 33.0889 66.9805C28.549 64.5836 23.999 62.1867 19.4592 59.7898C18.4131 59.2414 17.3771 58.693 16.3311 58.1344C15.6607 57.7789 14.8076 58.2156 14.8076 59.0078C14.8076 61.1406 14.8076 63.2633 14.8076 65.3961C14.8076 68.768 14.8076 72.15 14.8076 75.5219C14.8076 76.3039 14.8076 77.0859 14.8076 77.868C14.8076 78.2133 15.0006 78.5789 15.3154 78.7414C16.5139 79.3711 17.7123 80.0109 18.9107 80.6406C21.785 82.1641 24.6592 83.6773 27.5436 85.2008C31.0272 87.0391 34.5107 88.8773 37.9842 90.7156C41.0006 92.3102 44.0068 93.8945 47.0232 95.4891C48.4959 96.2609 49.9482 97.0836 51.4412 97.825C51.4615 97.8352 51.4818 97.8453 51.5022 97.8555C52.1725 98.2109 53.0256 97.7742 53.0256 96.982C53.0256 95.7227 53.0256 94.4531 53.0256 93.1937C53.0256 90.157 53.0256 87.1305 53.0256 84.0937C53.0256 80.4172 53.0256 76.7508 53.0256 73.0742C53.0256 69.8953 53.0256 66.7164 53.0256 63.5375C53.0256 61.9937 53.0865 60.4297 53.0256 58.8758C53.0256 58.8555 53.0256 58.8351 53.0256 58.8148C53.0154 57.5148 50.9842 57.5148 50.9842 58.8148Z"
        fill="white" fill-opacity="0.5" />
    <path
        d="M87.1712 59.0179C87.1712 61.1507 87.1712 63.2734 87.1712 65.4062C87.1712 68.7781 87.1712 72.1601 87.1712 75.532C87.1712 76.314 87.1712 77.096 87.1712 77.8781C87.3439 77.5835 87.5064 77.289 87.679 77.0046C86.4806 77.6343 85.2822 78.2742 84.0837 78.9038C81.2095 80.4273 78.3353 81.9406 75.4509 83.464C71.9673 85.3023 68.4837 87.1406 65.0103 88.9788C61.9939 90.5734 58.9876 92.1577 55.9712 93.7523C54.9658 94.2804 53.9704 94.8085 52.965 95.3367C52.4978 95.5804 52.0001 95.8038 51.5533 96.0781C51.5329 96.0882 51.5126 96.0984 51.4923 96.1085C52.0001 96.4031 52.5079 96.6976 53.0158 96.982C53.0158 95.7226 53.0158 94.4531 53.0158 93.1937C53.0158 90.157 53.0158 87.1304 53.0158 84.0937C53.0158 80.4171 53.0158 76.7507 53.0158 73.0742C53.0158 69.8952 53.0158 66.7163 53.0158 63.5374C53.0158 62.4913 53.0158 61.4351 53.0158 60.389C53.0158 59.8913 53.0564 59.3734 53.0158 58.8757C53.0158 58.8554 53.0158 58.8351 53.0158 58.8148C52.4368 59.0585 51.8579 59.2921 51.279 59.5359C52.4876 61.0593 53.7064 62.5827 54.915 64.1062C56.8548 66.5538 58.8048 69.0015 60.7447 71.4492C61.1915 72.0077 61.6384 72.5663 62.0853 73.1351C62.3697 73.4906 62.9486 73.4906 63.3142 73.2976C66.1884 71.7843 69.0626 70.2609 71.9368 68.7476C76.4767 66.3507 81.0267 63.9538 85.5665 61.557C86.6126 61.0085 87.6486 60.4601 88.6947 59.9015C89.8525 59.2921 88.8267 57.5351 87.6689 58.1445C84.7947 59.6577 81.9204 61.1812 79.0462 62.6945C74.5064 65.0913 69.9564 67.4882 65.4165 69.8851C64.3704 70.4335 63.3345 70.982 62.2884 71.5406C62.6947 71.5913 63.1111 71.6421 63.5173 71.7031C62.3087 70.1796 61.09 68.6562 59.8814 67.1327C57.9415 64.6851 55.9915 62.2374 54.0517 59.7898C53.6048 59.2312 53.1579 58.6726 52.7111 58.1038C52.1423 57.3827 50.9743 58.0124 50.9743 58.8249C50.9743 60.0843 50.9743 61.3538 50.9743 62.6132C50.9743 65.6499 50.9743 68.6765 50.9743 71.7132C50.9743 75.3898 50.9743 79.0562 50.9743 82.7327C50.9743 85.9116 50.9743 89.0906 50.9743 92.2695C50.9743 93.8132 50.9134 95.3773 50.9743 96.9312C50.9743 96.9515 50.9743 96.9718 50.9743 96.9921C50.9743 97.7843 51.8275 98.221 52.4978 97.8656C53.6962 97.2359 54.8947 96.596 56.0931 95.9663C58.9673 94.4429 61.8415 92.9296 64.7259 91.4062C68.2095 89.5679 71.6931 87.7296 75.1665 85.8913C78.1829 84.2968 81.1892 82.7124 84.2056 81.1179C85.6681 80.346 87.1915 79.6351 88.6236 78.782C88.6439 78.7718 88.6642 78.7617 88.6845 78.7515C88.9993 78.589 89.1923 78.2234 89.1923 77.8781C89.1923 75.7452 89.1923 73.6226 89.1923 71.4898C89.1923 68.1179 89.1923 64.7359 89.1923 61.364C89.1923 60.582 89.1923 59.7999 89.1923 59.0179C89.2025 57.7179 87.1712 57.7077 87.1712 59.0179Z"
        fill="white" fill-opacity="0.5" />
    <path
        d="M87.669 38.8274C86.4705 39.4571 85.2721 40.0969 84.0736 40.7266C81.1994 42.2501 78.3252 43.7633 75.4408 45.2868C71.9572 47.1251 68.4736 48.9633 65.0002 50.8016C61.9838 52.3962 58.9775 53.9805 55.9611 55.5751C54.9557 56.1032 53.9604 56.6313 52.9549 57.1594C52.4877 57.4032 51.99 57.6266 51.5432 57.9008C51.5229 57.911 51.5025 57.9212 51.4822 57.9313C51.8275 57.9313 52.1627 57.9313 52.508 57.9313C51.3096 57.3016 50.1111 56.6618 48.9127 56.0321C46.0385 54.5087 43.1643 52.9954 40.2799 51.4719C36.7963 49.6337 33.3127 47.7954 29.8393 45.9571C26.8229 44.3626 23.8166 42.7782 20.8002 41.1837C19.7947 40.6555 18.7994 40.1274 17.7939 39.5993C17.3268 39.3555 16.8697 39.061 16.3822 38.8579C16.3619 38.8477 16.3416 38.8376 16.3213 38.8274C16.3213 39.4165 16.3213 39.9954 16.3213 40.5844C17.5197 39.9547 18.7182 39.3251 19.9166 38.6852C22.7908 37.1719 25.665 35.6485 28.5494 34.1352C32.033 32.2969 35.5166 30.4587 38.99 28.6305C42.0064 27.0462 45.0127 25.4516 48.0291 23.8672C49.0346 23.3391 50.0299 22.811 51.0354 22.2829C51.5025 22.0391 52.0002 21.8157 52.4471 21.5415C52.4674 21.5313 52.4877 21.5212 52.508 21.511C52.1627 21.511 51.8275 21.511 51.4822 21.511C52.6807 22.1407 53.8791 22.7704 55.0775 23.4102C57.9518 24.9235 60.826 26.4469 63.7104 27.9602C67.1939 29.7985 70.6775 31.6368 74.151 33.4649C77.1674 35.0493 80.1736 36.6438 83.19 38.2282C84.6627 39.0001 86.115 39.8227 87.608 40.554C87.6283 40.5641 87.6486 40.5743 87.669 40.5844C88.8268 41.1938 89.8525 39.4368 88.6947 38.8274C87.4861 38.1876 86.2775 37.5579 85.0689 36.918C82.1744 35.3946 79.2799 33.861 76.3854 32.3376C72.8916 30.4891 69.3877 28.6508 65.8939 26.8024C62.8877 25.218 59.8713 23.6235 56.865 22.0391C55.433 21.2876 54.0111 20.4852 52.5588 19.7641C51.9291 19.4493 51.4924 19.7337 50.9643 20.018C50.2229 20.404 49.4916 20.8001 48.7502 21.186C46.0283 22.6282 43.2963 24.0602 40.5744 25.5024C37.101 27.3407 33.6174 29.1688 30.1439 31.0071C26.9955 32.6626 23.8572 34.318 20.7088 35.9837C18.9924 36.8876 17.2658 37.8016 15.5494 38.7055C15.4682 38.7462 15.3869 38.7868 15.3057 38.8376C14.6455 39.1829 14.6455 40.2391 15.3057 40.5946C16.5143 41.2344 17.7229 41.8743 18.9314 42.504C21.826 44.0376 24.7205 45.561 27.615 47.0946C31.1088 48.943 34.6127 50.7915 38.1064 52.6399C41.1127 54.2344 44.1291 55.8188 47.1354 57.4133C48.5674 58.1751 49.9893 58.9774 51.4416 59.6883C52.0713 60.0032 52.508 59.7188 53.0361 59.4344C53.7775 59.0485 54.5088 58.6524 55.2502 58.2665C57.9721 56.8243 60.7041 55.3821 63.426 53.9501C66.8994 52.1118 70.383 50.2735 73.8564 48.4352C77.0049 46.7797 80.1432 45.1141 83.2916 43.4587C85.008 42.5547 86.7346 41.6407 88.451 40.7368C88.5322 40.6962 88.6135 40.6555 88.6947 40.6047C89.8525 39.9751 88.8268 38.218 87.669 38.8274Z"
        fill="white" fill-opacity="0.5" />
    <path
        d="M51.2791 58.1039C50.0705 59.6274 48.8518 61.1508 47.6432 62.6743C45.7033 65.1219 43.7533 67.5696 41.8135 70.0172C41.3666 70.5758 40.9197 71.1344 40.4729 71.7032C40.8791 71.6524 41.2955 71.6016 41.7018 71.5407C40.0971 70.6977 38.5026 69.8547 36.8979 69.0016C33.5565 67.2344 30.2049 65.4672 26.8635 63.7C23.969 62.1664 21.0643 60.643 18.1697 59.1094C16.9307 58.4493 15.6916 57.7993 14.4424 57.1391C11.5276 55.6055 8.62287 54.0618 5.70803 52.5282C5.64709 52.4977 5.57599 52.4571 5.51506 52.4266C5.58615 52.9547 5.64709 53.493 5.71818 54.0211C6.92677 52.4977 8.14552 50.9743 9.35412 49.4407C11.294 46.993 13.244 44.5454 15.1838 42.0977C15.6307 41.5391 16.0776 40.9704 16.5244 40.4118C16.1182 40.4625 15.7018 40.5133 15.2955 40.5743C16.494 41.2039 17.6924 41.8438 18.8908 42.4735C21.7651 43.9969 24.6393 45.5102 27.5237 47.0336C31.0072 48.8719 34.4908 50.7102 37.9643 52.5485C40.9807 54.143 43.9869 55.7274 47.0033 57.3219C48.476 58.0938 49.9283 58.9165 51.4213 59.6579C51.4416 59.668 51.4619 59.6782 51.4822 59.6883C52.6401 60.2977 53.6658 58.5508 52.508 57.9313C51.3096 57.3016 50.1112 56.6618 48.9127 56.0321C46.0385 54.5086 43.1643 52.9954 40.2799 51.4719C36.7963 49.6336 33.3127 47.7954 29.8393 45.9571C26.8229 44.3625 23.8166 42.7782 20.8002 41.1836C19.3276 40.4118 17.8752 39.5891 16.3822 38.8477C16.3619 38.8375 16.3416 38.8274 16.3213 38.8172C15.9557 38.6243 15.3768 38.6243 15.0924 38.9797C13.8838 40.5032 12.6651 42.0266 11.4565 43.5602C9.51662 46.0079 7.56662 48.4555 5.62678 50.9032C5.1799 51.4618 4.73303 52.0305 4.28615 52.5891C3.90021 53.0766 3.85959 53.8485 4.48928 54.1836C7.08928 55.5547 9.67912 56.9258 12.2791 58.2969C13.6705 59.0383 15.0721 59.7696 16.4635 60.511C19.1447 61.9329 21.8362 63.3446 24.5174 64.7664C27.9299 66.5641 31.3322 68.3618 34.7447 70.1696C36.6846 71.1954 38.6143 72.2719 40.5846 73.2469C40.6151 73.2571 40.6455 73.2774 40.676 73.2977C41.0416 73.4907 41.6205 73.4907 41.9049 73.1352C43.1135 71.6118 44.3322 70.0883 45.5408 68.5649C47.4807 66.1172 49.4307 63.6696 51.3705 61.2219C51.8174 60.6633 52.2643 60.1047 52.7112 59.536C53.0565 59.1094 53.1276 58.5204 52.7112 58.1039C52.3658 57.7485 51.6244 57.6672 51.2791 58.1039Z"
        fill="white" fill-opacity="0.5" />
    <path
        d="M98.4749 52.4367C95.8749 53.8078 93.2851 55.1788 90.6851 56.5499C89.2937 57.2913 87.8921 58.0226 86.5007 58.764C83.8195 60.1859 81.128 61.5976 78.4468 63.0195C75.0343 64.8171 71.632 66.6148 68.2195 68.4226C66.9195 69.1132 65.6195 69.7937 64.3195 70.4843C63.6796 70.8195 62.9991 71.1242 62.3796 71.5101C62.3491 71.5304 62.3187 71.5406 62.2882 71.5609C62.6945 71.6117 63.1109 71.6624 63.5171 71.7234C62.3085 70.1999 61.0898 68.6765 59.8812 67.1531C57.9413 64.7054 55.9913 62.2578 54.0515 59.8101C53.6046 59.2515 53.1577 58.6929 52.7109 58.1242C52.6398 58.6523 52.5788 59.1906 52.5077 59.7187C53.7062 59.089 54.9046 58.4492 56.103 57.8195C58.9773 56.296 61.8515 54.7828 64.7359 53.2593C68.2195 51.421 71.703 49.5828 75.1765 47.7445C78.1929 46.1499 81.1991 44.5656 84.2155 42.971C85.221 42.4429 86.2163 41.9148 87.2218 41.3867C87.689 41.1429 88.1866 40.9195 88.6335 40.6453C88.6538 40.6351 88.6741 40.6249 88.6945 40.6148C88.2882 40.564 87.8718 40.5132 87.4655 40.4523C88.6741 41.9757 89.8929 43.4992 91.1015 45.0328C93.0413 47.4804 94.9913 49.9281 96.9312 52.3757C97.378 52.9343 97.8249 53.5031 98.2718 54.0617C98.6171 54.4882 99.3484 54.4171 99.7038 54.0617C100.13 53.6351 100.049 53.0562 99.7038 52.6296C98.4952 51.1062 97.2765 49.5828 96.0679 48.0492C94.128 45.6015 92.178 43.1538 90.2382 40.7062C89.7913 40.1476 89.3444 39.5789 88.8976 39.0203C88.6132 38.6648 88.0343 38.6648 87.6687 38.8578C86.4702 39.4874 85.2718 40.1273 84.0734 40.757C81.1991 42.2804 78.3249 43.7937 75.4405 45.3171C71.957 47.1554 68.4734 48.9937 64.9999 50.832C61.9835 52.4265 58.9773 54.0109 55.9609 55.6054C54.4984 56.3773 52.9749 57.0882 51.5429 57.9413C51.5226 57.9515 51.5023 57.9617 51.482 57.9718C50.8523 58.307 50.8929 59.0788 51.2788 59.5663C52.4874 61.0898 53.7062 62.6132 54.9148 64.1367C56.8546 66.5843 58.8046 69.032 60.7444 71.4796C61.1913 72.0382 61.6382 72.5968 62.0851 73.1656C62.3695 73.521 62.9484 73.521 63.314 73.3281C64.9187 72.4851 66.5132 71.6421 68.1179 70.789C71.4593 69.0218 74.8109 67.2546 78.1523 65.4874C81.0468 63.9538 83.9515 62.4304 86.846 60.8968C88.0851 60.2367 89.3241 59.5867 90.5734 58.9265C93.4882 57.3929 96.3929 55.8492 99.3077 54.3156C99.3687 54.2851 99.4398 54.2445 99.5007 54.214C100.659 53.5843 99.6327 51.8273 98.4749 52.4367Z"
        fill="white" fill-opacity="0.5" />
    <path
        d="M88.6945 38.8274C87.496 38.1977 86.2976 37.5681 85.0991 36.9282C82.2249 35.4149 79.3507 33.8915 76.4663 32.3782C72.9827 30.5399 69.4991 28.7017 66.0257 26.8735C63.0093 25.2892 60.003 23.6946 56.9866 22.1102C55.9812 21.5821 54.9859 21.054 53.9804 20.5259C53.5132 20.2821 53.0562 19.9876 52.5687 19.7845C52.5484 19.7743 52.528 19.7642 52.5077 19.754C52.5788 20.2821 52.6398 20.8204 52.7109 21.3485C53.9195 19.8251 55.1382 18.3017 56.3468 16.7782C58.2866 14.3306 60.2366 11.8829 62.1765 9.43525C62.6234 8.87665 63.0702 8.31806 63.5171 7.74931C63.1109 7.80009 62.6945 7.85087 62.2882 7.91181C63.4866 8.5415 64.6851 9.18134 65.8835 9.81103C68.7577 11.3345 71.632 12.8477 74.5163 14.3712C77.9999 16.2095 81.4835 18.0477 84.957 19.8962C87.9734 21.4907 90.9796 23.0852 93.996 24.6696C95.0015 25.1977 95.9968 25.7259 97.0023 26.254C97.4695 26.4977 97.9265 26.7923 98.414 26.9954C98.4343 27.0056 98.4546 27.0157 98.4749 27.0259C98.4038 26.4977 98.3429 25.9595 98.2718 25.4313C97.0632 26.9548 95.8445 28.4681 94.6359 29.9915C92.696 32.429 90.746 34.8767 88.8062 37.3142C88.3593 37.8727 87.9124 38.4313 87.4655 38.9899C87.1202 39.4165 87.0491 40.0056 87.4655 40.422C87.821 40.7774 88.5624 40.8485 88.8976 40.422C90.1062 38.8985 91.3249 37.3852 92.5335 35.8618C94.4734 33.4243 96.4234 30.9767 98.3632 28.5392C98.8101 27.9806 99.257 27.422 99.7038 26.8634C100.09 26.3759 100.13 25.604 99.5007 25.2688C98.3023 24.6392 97.1038 23.9993 95.9054 23.3696C93.0312 21.8462 90.157 20.3329 87.2726 18.8095C83.789 16.9712 80.3054 15.1329 76.832 13.2845C73.8155 11.6899 70.8093 10.0954 67.7929 8.51103C66.3202 7.729 64.8679 6.9165 63.3749 6.17509C63.3546 6.16493 63.3343 6.15478 63.314 6.14462C62.9484 5.95165 62.3695 5.95165 62.0851 6.30712C60.8765 7.83056 59.6577 9.354 58.4491 10.8774C56.5093 13.3251 54.5593 15.7727 52.6194 18.2204C52.1726 18.779 51.7257 19.3376 51.2788 19.9063C50.8929 20.3938 50.8523 21.1657 51.482 21.5009C52.6804 22.1306 53.8788 22.7602 55.0773 23.4001C57.9515 24.9134 60.8257 26.4368 63.7101 27.9501C67.1937 29.7884 70.6773 31.6267 74.1507 33.4548C77.1671 35.0392 80.1734 36.6337 83.1898 38.2181C84.6624 38.9899 86.1148 39.8126 87.6077 40.5438C87.628 40.554 87.6484 40.5642 87.6687 40.5743C88.8265 41.1938 89.8523 39.4368 88.6945 38.8274Z"
        fill="white" fill-opacity="0.5" />
    <path
        d="M51.492 19.7438C50.2936 20.3735 49.0951 21.0032 47.8967 21.6431C45.0225 23.1563 42.1483 24.6798 39.2639 26.1931C35.7803 28.0313 32.2967 29.8595 28.8233 31.6977C25.8069 33.2821 22.8006 34.8766 19.7842 36.461C18.7787 36.9891 17.7834 37.5173 16.778 38.0454C16.3108 38.2891 15.8131 38.5024 15.3662 38.7868C15.3459 38.797 15.3256 38.8071 15.3053 38.8173C15.7115 38.8681 16.128 38.9188 16.5342 38.9798C15.3256 37.4563 14.1069 35.9431 12.8983 34.4196C10.9584 31.9821 9.00842 29.5345 7.06857 27.097C6.6217 26.5384 6.17482 25.9798 5.72795 25.4212C5.65685 25.9493 5.59592 26.4876 5.52482 27.0157C6.72326 26.386 7.9217 25.7462 9.12014 25.1165C11.9944 23.5931 14.8686 22.0798 17.753 20.5563C21.2365 18.7181 24.7201 16.8798 28.1936 15.0313C31.21 13.4368 34.2162 11.8423 37.2326 10.2579C38.2381 9.72978 39.2334 9.20165 40.2389 8.67353C40.7061 8.42978 41.2037 8.20634 41.6506 7.93212C41.6709 7.92196 41.6912 7.91181 41.7116 7.90165C41.3053 7.85087 40.8889 7.80009 40.4826 7.73915C41.6912 9.26259 42.91 10.786 44.1186 12.3095C46.0584 14.7571 48.0084 17.2048 49.9483 19.6524C50.3951 20.211 50.842 20.7696 51.2889 21.3384C51.6342 21.7649 52.3655 21.6938 52.7209 21.3384C53.1475 20.9118 53.0662 20.3329 52.7209 19.9063C51.5123 18.3829 50.2936 16.8595 49.085 15.336C47.1451 12.8884 45.1951 10.4407 43.2553 7.99306C42.8084 7.43446 42.3615 6.87587 41.9147 6.30712C41.6303 5.95165 41.0514 5.95165 40.6858 6.14462C39.4873 6.77431 38.2889 7.41415 37.0905 8.04384C34.2162 9.56728 31.342 11.0806 28.4576 12.604C24.974 14.4423 21.4904 16.2806 18.017 18.129C15.0006 19.7235 11.9944 21.3181 8.97795 22.9024C7.51545 23.6743 5.99201 24.3954 4.55998 25.2384C4.53967 25.2485 4.51935 25.2587 4.49904 25.2688C3.86935 25.604 3.90998 26.3759 4.29592 26.8634C5.50451 28.3868 6.72326 29.9001 7.93185 31.4235C9.8717 33.861 11.8217 36.3087 13.7615 38.7462C14.2084 39.3048 14.6553 39.8634 15.1022 40.422C15.3865 40.7774 15.9655 40.7774 16.3311 40.5845C17.5295 39.9548 18.728 39.3251 19.9264 38.6852C22.8006 37.172 25.6748 35.6485 28.5592 34.1352C32.0428 32.297 35.5264 30.4587 38.9998 28.6306C42.0162 27.0462 45.0225 25.4516 48.0389 23.8673C49.5014 23.0954 51.0248 22.3845 52.4569 21.5415C52.4772 21.5313 52.4975 21.5212 52.5178 21.511C53.6655 20.8915 52.6397 19.1345 51.492 19.7438Z"
        fill="white" fill-opacity="0.5" />
</svg>