<svg width="240" height="80" viewBox="0 0 240 80" fill="none" xmlns="http://www.w3.org/2000/svg">
<mask id="path-1-inside-1_879_297" fill="white">
<path fill-rule="evenodd" clip-rule="evenodd" d="M93.7354 32.0779V48.4565L92.4776 47.1959V32.0749H87.4436V30.8144H98.7695V32.0749H93.7354V32.0779ZM100.03 30.8173L101.288 32.0779V38.366C101.466 38.1405 101.661 37.9181 101.88 37.6986C103.105 36.4736 104.585 35.8596 106.322 35.8596C108.059 35.8596 109.542 36.4736 110.77 37.7045C111.998 38.9354 112.614 40.4185 112.614 42.1595V48.4594H111.356V42.1595C111.356 40.7655 110.865 39.5761 109.882 38.5943C108.9 37.6126 107.713 37.1202 106.322 37.1202C104.931 37.1202 103.741 37.6126 102.762 38.5943C101.782 39.5761 101.288 40.7655 101.288 42.1595V48.4594H100.03V30.8203V30.8173ZM115.917 42.1566V48.4565H114.659V42.1566C114.659 40.4185 115.274 38.9325 116.503 37.7016C117.731 36.4706 119.214 35.8567 120.951 35.8567H123.469L122.211 37.1172H120.954C119.56 37.1172 118.373 37.6096 117.393 38.5914C116.414 39.5731 115.92 40.7625 115.92 42.1566H115.917ZM122.827 42.7854C122.954 43.9095 123.431 44.8883 124.262 45.7218C125.245 46.7035 126.432 47.1959 127.823 47.1959C129.214 47.1959 130.403 46.7035 131.386 45.7218C131.889 45.2175 132.262 44.6599 132.507 44.0459H133.842C133.558 44.9951 133.037 45.8493 132.283 46.6027C131.048 47.8366 129.563 48.4535 127.829 48.4535C126.094 48.4535 124.609 47.8395 123.38 46.6086C122.152 45.3777 121.537 43.8947 121.537 42.1536C121.537 40.4125 122.152 38.9295 123.38 37.6986C124.609 36.4677 126.091 35.8537 127.829 35.8537C129.566 35.8537 131.048 36.4677 132.277 37.6986C133.505 38.9295 134.12 40.4125 134.12 42.1536C134.12 42.3642 134.111 42.5748 134.094 42.7824H122.83L122.827 42.7854ZM132.821 41.5248C132.697 40.4007 132.217 39.4219 131.386 38.5884C130.403 37.6066 129.217 37.1143 127.823 37.1143C126.429 37.1143 125.242 37.6066 124.262 38.5884C123.431 39.4189 122.954 40.3977 122.827 41.5248H132.821ZM136.751 42.7854C136.879 43.9095 137.355 44.8883 138.187 45.7218C139.169 46.7035 140.356 47.1959 141.75 47.1959C143.144 47.1959 144.331 46.7035 145.313 45.7218C145.816 45.2175 146.189 44.6599 146.432 44.0459H147.767C147.482 44.9951 146.962 45.8493 146.207 46.6027C144.973 47.8366 143.487 48.4535 141.753 48.4535C140.019 48.4535 138.533 47.8395 137.305 46.6086C136.077 45.3777 135.461 43.8947 135.461 42.1536C135.461 40.4125 136.077 38.9295 137.305 37.6986C138.533 36.4677 140.016 35.8537 141.753 35.8537C143.49 35.8537 144.973 36.4677 146.201 37.6986C147.429 38.9295 148.045 40.4125 148.045 42.1536C148.045 42.3642 148.036 42.5748 148.021 42.7824H136.757L136.751 42.7854ZM146.745 41.5248C146.618 40.4007 146.142 39.4219 145.31 38.5884C144.328 37.6066 143.141 37.1143 141.747 37.1143C140.353 37.1143 139.166 37.6066 138.184 38.5884C137.352 39.4189 136.876 40.3977 136.748 41.5248H146.743H146.745ZM155.624 47.1959H165.692V48.4565H154.366V30.8173H165.692V32.0779H155.624V39.0066H165.692L164.434 40.2672H155.624V47.1959ZM167.104 32.0749V30.8144H168.361V32.0749H167.104ZM168.361 35.8537V48.4535H167.104V35.8537H168.361ZM181.176 45.9472C180.998 46.1726 180.806 46.3921 180.596 46.6027C179.362 47.8366 177.876 48.4535 176.142 48.4535C174.408 48.4535 172.922 47.8395 171.694 46.6086C170.466 45.3777 169.85 43.8947 169.85 42.1536C169.85 40.4125 170.466 38.9295 171.694 37.6986C172.922 36.4677 174.405 35.8537 176.142 35.8537C177.879 35.8537 179.362 36.4677 180.59 37.6986C181.818 38.9295 182.434 40.4125 182.434 42.1536V47.1929C182.434 48.931 181.818 50.417 180.59 51.648C179.362 52.8789 177.879 53.4928 176.142 53.4928C174.405 53.4928 172.925 52.8759 171.7 51.6391L172.582 50.7581C173.564 51.7399 174.751 52.2323 176.145 52.2323C177.539 52.2323 178.726 51.7399 179.708 50.7581C180.691 49.7764 181.179 48.587 181.179 47.1929V45.9442L181.176 45.9472ZM176.142 37.1143C174.748 37.1143 173.561 37.6066 172.579 38.5884C171.596 39.5702 171.108 40.7596 171.108 42.1536C171.108 43.5476 171.599 44.737 172.579 45.7188C173.561 46.7006 174.748 47.1929 176.142 47.1929C177.536 47.1929 178.723 46.7006 179.705 45.7188C180.688 44.737 181.176 43.5476 181.176 42.1536C181.176 40.7596 180.685 39.5702 179.705 38.5884C178.723 37.6066 177.536 37.1143 176.142 37.1143ZM184.449 30.8144L185.707 32.0749V38.363C185.882 38.1376 186.08 37.9151 186.299 37.6956C187.524 36.4706 189.004 35.8567 190.741 35.8567C192.478 35.8567 193.961 36.4706 195.189 37.7016C196.417 38.9325 197.033 40.4155 197.033 42.1566V48.4565H195.775V42.1566C195.775 40.7625 195.284 39.5731 194.304 38.5914C193.322 37.6096 192.135 37.1172 190.741 37.1172C189.347 37.1172 188.16 37.6096 187.178 38.5914C186.195 39.5731 185.707 40.7625 185.707 42.1566V48.4565H184.449V30.8173V30.8144ZM204.801 47.1929H206.059L207.317 48.4535H204.801C203.064 48.4535 201.582 47.8395 200.353 46.6086C199.125 45.3777 198.51 43.8947 198.51 42.1536V30.8144H199.767V35.8537H206.059V37.1143H199.767V42.1536C199.767 43.5476 200.259 44.737 201.238 45.7188C202.221 46.7006 203.408 47.1929 204.801 47.1929ZM224.967 30.8144V32.0749H217.101C216.145 32.0749 215.328 32.4131 214.654 33.0893C213.979 33.7656 213.641 34.5813 213.641 35.5393C213.641 36.4973 213.979 37.313 214.654 37.9893C215.328 38.6655 216.145 39.0037 217.101 39.0037H220.247C221.546 39.0037 222.659 39.4664 223.582 40.3888C224.506 41.3142 224.967 42.4265 224.967 43.7286C224.967 45.0307 224.506 46.143 223.582 47.0684C222.659 47.9938 221.546 48.4535 220.247 48.4535H212.381V47.1929H220.247C221.203 47.1929 222.02 46.8548 222.694 46.1785C223.369 45.5023 223.707 44.6866 223.707 43.7286C223.707 42.7705 223.369 41.9549 222.694 41.2786C222.02 40.6024 221.203 40.2642 220.247 40.2642H217.101C215.802 40.2642 214.689 39.8015 213.766 38.8791C212.842 37.9537 212.381 36.8414 212.381 35.5393C212.381 34.2372 212.842 33.1249 213.766 32.1995C214.689 31.2741 215.802 30.8144 217.101 30.8144H224.967ZM226.53 32.0749V30.8144H227.788V32.0749H226.53ZM227.788 35.8537V48.4535H226.53V35.8537H227.788ZM234.334 41.1066L238.386 35.8537H239.996L235.136 42.1536L239.996 48.4535H238.386L234.334 43.2006L230.283 48.4535H228.673L233.529 42.1536L228.673 35.8537H230.283L234.334 41.1066ZM25.046 67.9553C24.6643 67.724 24.2499 67.5341 23.9155 67.2494C23.6876 67.0536 23.5278 66.7422 23.4213 66.4486C23.3502 66.2588 23.3562 65.974 23.4509 65.802C23.6847 65.3808 23.9481 64.9596 24.2766 64.6156C24.7027 64.1706 25.2857 64.1973 25.8451 64.3041C26.4932 64.4257 27.0318 64.7609 27.5053 65.2651C27.7421 64.9389 28.0617 64.7401 28.4405 64.8261C28.775 64.9033 29.0827 65.0901 29.4024 65.2206C29.5059 65.2622 29.6154 65.3066 29.722 65.3037C30.1393 65.3037 30.5151 65.4045 30.8348 65.6863C31.1455 65.9592 31.2816 66.2914 31.1899 66.6087C31.3734 66.8134 31.5184 66.9617 31.6397 67.1278C31.6545 67.1486 31.5302 67.3295 31.4858 67.3236C31.252 67.2909 31.0242 67.2257 30.8022 67.1189C30.2103 67.2405 29.6658 67.1486 29.1922 66.7215C29.136 66.671 29.0502 66.6443 28.9732 66.6295C28.6536 66.5643 28.334 66.5079 27.9848 66.4426C27.9049 67.1545 27.4254 67.5104 26.7004 67.5964C26.656 67.6024 26.5997 67.6113 26.5672 67.6409C26.1174 68.074 25.5758 68.0147 25.0283 67.9464L25.0371 67.9553H25.046ZM35.419 28.7767C34.2352 28.7856 33.2586 29.7555 33.2615 30.9211C33.2645 32.0245 34.1908 32.9203 35.3272 32.9232C36.511 32.9232 37.4995 31.9563 37.4965 30.7995C37.4936 29.6724 36.5643 28.7678 35.419 28.7767ZM53.1906 44.1438C52.0867 44.1438 51.0983 45.1553 51.1012 46.2853C51.1042 47.4362 51.8944 48.3052 52.9479 48.3141C54.0873 48.326 55.0492 47.3175 55.0462 46.1163C55.0462 45.004 54.2353 44.1438 53.1906 44.1409V44.1438ZM42.9183 56.0881C42.9272 57.1055 43.7765 57.8885 44.8656 57.8796C46.0346 57.8707 47.0201 56.9453 47.0172 55.8627C47.0172 54.8424 46.1737 54.0683 45.0757 54.0712C43.9127 54.0772 42.9094 55.0144 42.9183 56.0852V56.0881ZM27.8516 54.6407C27.7954 55.7678 28.7661 56.7941 29.9469 56.8563C30.9827 56.9097 31.8173 56.189 31.8765 55.1924C31.9416 54.0861 30.9472 53.0509 29.7634 52.9945C28.7483 52.9471 27.9019 53.6767 27.8546 54.6437L27.8516 54.6407ZM14.1581 21.5276C13.001 22.0971 12.344 23.067 12.2877 24.3691C12.2374 25.5229 13.1193 26.0924 14.1581 25.5793C15.3123 25.0098 15.8894 24.0251 16.0019 22.9187C16.0137 21.6137 15.1703 21.0264 14.1552 21.5276H14.1581ZM40.4797 20.8603C41.4119 20.3175 41.5332 19.0895 40.7756 18.3273C40.018 17.565 38.7099 17.4968 37.8132 18.176C37.0585 18.7455 36.9194 19.7183 37.4965 20.4658C37.9286 21.0234 38.5323 21.2251 39.4379 21.2577C39.654 21.1776 40.1038 21.0827 40.4797 20.8632V20.8603ZM51.045 51.1408C51.045 50.1679 50.2755 49.4115 49.2989 49.4204C48.2424 49.4293 47.3042 50.3666 47.319 51.3988C47.3338 52.3895 48.0826 53.125 49.0681 53.1132C50.1424 53.1013 51.045 52.1996 51.042 51.1408H51.045ZM28.8608 17.5502C29.2869 16.6455 28.8963 15.815 27.9286 15.5748C26.8868 15.3167 25.4899 16.0968 25.1526 17.129C24.8803 17.9565 25.2532 18.6535 26.0996 18.8819C26.2564 18.9234 26.4251 18.9353 26.5879 18.959C27.5379 18.9412 28.4761 18.3658 28.8637 17.5502H28.8608ZM48.8757 27.525C47.8843 27.525 47.1681 28.2487 47.1651 29.2631C47.1651 30.2479 48.0855 31.1317 49.1184 31.1317C50.0832 31.1317 50.8023 30.4139 50.7994 29.45C50.7964 28.4059 49.9174 27.528 48.8757 27.525ZM30.8407 61.3143C30.8466 61.5605 30.8052 61.8186 30.8673 62.0499C31.1988 63.2571 32.7791 63.9156 33.8978 63.3342C34.6288 62.9516 34.9277 62.0944 34.5489 61.3618C34.1642 60.6143 33.516 60.2406 32.6903 60.1961C31.8913 60.1516 31.2609 60.4423 30.8821 61.1868C30.8673 61.2283 30.8555 61.2728 30.8407 61.3143ZM32.3737 72.3362C32.862 72.2354 33.2763 72.0099 33.4095 71.4879C33.5397 70.9777 33.2734 70.5833 32.9153 70.2718C32.0629 69.5333 31.0686 69.2782 29.9765 69.5659C28.9644 69.8328 28.7335 70.7345 29.4675 71.4879C30.086 72.1256 30.8762 72.3688 31.8084 72.4104C31.9534 72.3926 32.1665 72.3777 32.3737 72.3362ZM57.8607 10.1973C57.3457 9.14139 55.5464 8.15962 54.3803 8.29606C53.5517 8.39394 53.2173 9.02868 53.6878 9.71977C54.4543 10.8498 55.5671 11.4104 56.7035 11.535C57.8547 11.532 58.2454 10.9833 57.8607 10.1973ZM21.5538 62.9813C21.32 61.9224 20.2606 60.9821 19.1803 60.8754C18.3162 60.7923 17.7716 61.3529 17.8811 62.213C18.0262 63.3312 19.281 64.4287 20.4085 64.4257C21.249 64.4228 21.7373 63.8088 21.5538 62.9813ZM19.2839 10.3486C18.4701 10.5443 17.7835 10.9744 17.1827 11.5498C16.7684 11.9502 16.4132 12.3922 16.2771 12.9676C16.1676 13.4362 16.3896 13.7684 16.8631 13.8367C17.0347 13.8634 17.2212 13.8574 17.3899 13.8218C18.3665 13.6261 19.1596 13.104 19.8078 12.3655C20.0593 12.0778 20.2842 11.7367 20.4233 11.3808C20.6838 10.7253 20.373 10.3159 19.5769 10.3011C19.5355 10.307 19.4053 10.3189 19.281 10.3486H19.2839ZM28.5145 58.9356C27.6089 59.0868 27.0851 59.8372 27.3426 60.7182C27.5734 61.5071 28.1623 61.9491 28.9377 62.1152C29.7397 62.2872 30.4027 62.047 30.8436 61.3114C30.8584 61.2698 30.8703 61.2253 30.8851 61.1838C31.1307 59.7245 29.6658 58.7428 28.5175 58.9356H28.5145ZM63.5606 26.3771C63.9897 26.6382 64.4662 26.7301 64.9042 26.4424C65.3422 26.1547 65.4458 25.6742 65.3925 25.1818C65.3067 24.3721 64.9131 23.7196 64.2679 23.2391C63.8447 22.9276 63.3535 22.7526 62.8355 22.9988C62.3591 23.2242 62.2466 23.6751 62.217 24.2475C62.3028 25.1195 62.7349 25.8729 63.5606 26.3742V26.3771ZM16.798 47.7031C16.0167 47.2107 15.1495 47.54 14.8684 48.4149C14.6139 49.2069 14.9424 50.2509 15.6142 50.7433C16.0611 51.0725 16.5494 51.2268 17.0732 50.9539C17.6029 50.681 17.7746 50.1857 17.8219 49.6488C17.7805 48.8243 17.4994 48.145 16.798 47.7031ZM56.5822 39.2617C55.7446 39.2617 55.0344 40.024 55.0344 40.9286C55.0344 41.8778 55.6914 42.6311 56.523 42.64C57.3724 42.6519 58.0767 41.8896 58.0856 40.9553C58.0945 40.0269 57.4138 39.2617 56.5792 39.2617H56.5822ZM39.364 59.2025C38.6152 59.8313 38.6655 60.8605 39.4764 61.4063C39.9233 61.7059 40.4234 61.78 40.9384 61.6614C42.1222 61.3825 42.572 60.1309 41.7937 59.2885C41.4652 58.9326 41.0213 58.8021 40.6129 58.7902C40.1038 58.7902 39.7073 58.9178 39.364 59.2055V59.2025ZM34.5962 76.0853C35.1645 75.848 35.2355 75.3734 34.8123 74.9285C34.7324 74.8425 34.6436 74.7595 34.5459 74.6972C33.5989 74.0832 32.566 73.8934 31.4651 74.1247C31.1129 74.1989 30.7519 74.3502 30.669 74.7446C30.5832 75.1628 30.8851 75.4268 31.1869 75.6404C31.8676 76.1179 32.646 76.284 33.4776 76.373C33.8505 76.2811 34.2441 76.2336 34.5933 76.0853H34.5962ZM53.1403 73.0214C53.6612 72.3837 53.451 71.8082 52.6431 71.6659C51.9654 71.5472 51.3084 71.6748 50.7195 71.9803C50.2696 72.2146 49.8257 72.5231 49.4854 72.8968C49.0089 73.4158 49.2693 74.0209 49.9618 74.1514C50.1246 74.1811 50.2903 74.1841 50.3584 74.19C51.4268 74.187 52.6076 73.6709 53.1403 73.0214ZM51.264 61.7355C51.6931 60.9347 51.2906 60.0923 50.3969 59.9114C49.7044 59.769 49.1125 60.0033 48.6153 60.4838C48.1743 60.9109 48.0086 61.5249 48.2128 62.0054C48.4584 62.5868 48.9497 62.7677 49.6097 62.7974C50.2933 62.741 50.9 62.4177 51.267 61.7355H51.264ZM64.5076 59.4665C63.4659 59.6385 62.3709 60.9021 62.3531 61.9491C62.3413 62.6342 62.7911 63.002 63.4629 62.8567C64.4721 62.6342 65.505 61.3707 65.5109 60.3474C65.5139 59.7275 65.1055 59.3686 64.5076 59.4665ZM74.0904 50.0997C73.9484 49.6014 73.5607 49.4649 73.1286 49.7467C73.0398 49.8031 72.951 49.8683 72.8829 49.9484C72.0691 50.8738 71.6932 51.9535 71.8087 53.1873C71.8353 53.4721 71.9211 53.7687 72.2319 53.8755C72.5485 53.9852 72.806 53.831 73.025 53.6055C73.7856 52.8136 74.0993 51.8407 74.1822 50.7255C74.1555 50.5475 74.1496 50.3162 74.0875 50.1026L74.0904 50.0997ZM43.9867 39.0956C43.1462 39.0808 42.4684 39.763 42.4625 40.635C42.4566 41.421 43.1343 42.1002 43.9363 42.115C44.765 42.1299 45.4486 41.4536 45.4546 40.6113C45.4605 39.7837 44.8064 39.1075 43.9867 39.0926V39.0956ZM68.9113 41.9756C68.5858 41.3557 67.9199 41.2549 67.3843 41.6998C66.6266 42.3286 66.4905 43.871 67.1268 44.6273C67.5174 45.093 68.1182 45.1226 68.5621 44.7014C69.0327 44.2565 69.1925 43.6871 69.2665 43.0375C69.1511 42.6816 69.08 42.3019 68.9084 41.9786L68.9113 41.9756ZM20.9116 68.5189C20.6039 67.7685 20.0297 67.2553 19.3106 66.938C18.9554 66.7808 18.5411 66.6888 18.1534 66.6829C17.6444 66.677 17.4076 67.0566 17.5142 67.5608C17.7213 68.5248 19.1626 69.6193 20.2102 69.6074C20.8672 69.5985 21.1691 69.1447 20.9116 68.5219V68.5189ZM71.3677 36.2393C70.9771 35.7262 70.394 35.6609 69.9975 36.088C69.2872 36.8562 69.4233 38.6893 70.2431 39.3477C70.6426 39.671 71.1102 39.6206 71.4298 39.2172C71.7465 38.8168 71.8323 38.3422 71.8531 37.8499C71.859 37.2804 71.6637 36.6338 71.3677 36.2393ZM14.0427 28.3377C13.6343 28.1479 13.1549 28.2932 12.7435 28.7292C12.2433 29.2572 12.0273 29.8919 12.1398 30.6156C12.2789 31.5144 13.0927 31.8406 13.8267 31.2919C14.4067 30.8589 14.6553 30.2508 14.6967 29.5271C14.6672 29.0377 14.5547 28.572 14.0457 28.3347L14.0427 28.3377ZM15.3774 41.8244C14.7885 41.068 13.7941 41.1896 13.4123 42.0706C13.1845 42.5955 13.1933 43.1324 13.4212 43.6574C13.6668 44.2239 14.1552 44.5709 14.6346 44.5383C15.1436 44.5027 15.5668 44.0964 15.7296 43.4735C15.7651 43.3371 15.7651 43.1947 15.774 43.1294C15.774 42.5985 15.6615 42.1833 15.3804 41.8244H15.3774ZM12.6458 60.2169C12.048 60.0894 11.6722 60.4216 11.7225 61.0326C11.7994 61.9906 12.7672 63.1533 13.6905 63.3995C14.241 63.5448 14.6316 63.2423 14.6287 62.6698C14.6287 61.7118 13.584 60.4186 12.6458 60.2199V60.2169ZM42.936 63.5715C42.2642 64.1232 42.3678 65.0694 43.1462 65.449C43.7617 65.7486 44.3655 65.6685 44.9396 65.3155C45.4042 65.0308 45.6588 64.5355 45.57 64.0965C45.4605 63.5448 45.0639 63.2957 44.5638 63.1652C44.4395 63.1325 44.3063 63.1325 44.179 63.1177C43.7055 63.1177 43.2941 63.2779 42.936 63.5715ZM46.5229 33.5491C45.7771 33.552 45.1912 34.1512 45.1793 34.9224C45.1675 35.6728 45.8186 36.3223 46.5851 36.3283C47.3427 36.3342 47.9375 35.741 47.9375 34.9787C47.9375 34.1897 47.2983 33.5431 46.52 33.5491H46.5229ZM52.6076 24.0696C52.5898 23.2361 51.8293 22.5242 50.9681 22.5331C50.2519 22.542 49.7576 23.0285 49.7547 23.7344C49.7547 24.5174 50.5478 25.2649 51.3735 25.2589C52.0779 25.256 52.6194 24.731 52.6046 24.0696H52.6076ZM37.0526 4.2385C37.2272 4.11096 37.4137 3.84401 37.3989 3.65418C37.387 3.48808 37.1325 3.28046 36.9372 3.19741C36.2476 2.9008 35.5226 2.94529 34.8123 3.10546C34.4039 3.19741 33.9984 3.35461 33.6344 3.55927C33.4509 3.66308 33.2408 3.95079 33.2615 4.13172C33.2793 4.31265 33.5456 4.53214 33.7498 4.60925C34.0961 4.74273 34.4808 4.77535 34.7057 4.82281C35.6291 4.77832 36.3986 4.7101 37.0496 4.2385H37.0526ZM8.35459 45.1226C7.85444 44.6243 7.2803 44.7519 7.00803 45.4044C6.69433 46.1548 6.93405 47.3828 7.50818 47.9641C7.9817 48.4416 8.59135 48.3467 8.85178 47.7298C8.96424 47.4628 8.9968 47.1633 9.03823 46.9853C8.9968 46.2112 8.83403 45.6002 8.35459 45.1226ZM56.5289 57.4733C56.6029 56.7169 56.0376 56.1682 55.283 56.2691C54.6881 56.3492 54.2471 56.6754 53.969 57.1885C53.4925 58.0635 53.9601 58.9474 54.8834 58.9563C55.6707 58.9622 56.452 58.2593 56.5289 57.4733ZM37.5439 74.9226C38.1032 74.6824 38.1624 74.1247 37.7126 73.7243C37.0408 73.1311 35.5906 72.9947 34.83 73.4574C34.3329 73.7569 34.2855 74.2434 34.7265 74.6201C35.2118 75.0323 35.8008 75.1362 36.5969 75.1806C36.8011 75.1273 37.1947 75.0709 37.5439 74.9226ZM34.9751 36.8444C34.9632 36.1384 34.4009 35.5779 33.7084 35.5838C32.9804 35.5927 32.4062 36.177 32.4122 36.9037C32.421 37.6096 32.9804 38.1643 33.6818 38.1613C34.4098 38.1583 34.9839 37.571 34.9751 36.8444ZM60.5893 35.0054C60.3496 34.4359 59.8554 34.1304 59.3434 34.2075C58.8255 34.2876 58.4466 34.7236 58.4082 35.3465C58.3934 35.5838 58.4555 35.8418 58.5413 36.0702C58.7603 36.6427 59.3315 36.9689 59.8583 36.8562C60.3673 36.7494 60.7254 36.2363 60.755 35.6134C60.7018 35.4088 60.6692 35.1982 60.5863 35.0054H60.5893ZM28.2186 3.26266C28.3192 3.18258 28.4169 3.09063 28.4968 2.98979C28.6477 2.79996 28.5944 2.63979 28.3606 2.60123C28.1298 2.56564 27.8753 2.53301 27.6592 2.5953C26.7773 2.85038 25.8954 3.11436 25.0371 3.43469C24.6613 3.57706 24.3298 3.85587 23.9984 4.09909C23.9096 4.16434 23.8119 4.35417 23.8474 4.41646C23.9007 4.5173 24.0576 4.56773 24.1789 4.61815C24.2381 4.64485 24.318 4.62112 24.389 4.62112C25.413 4.62112 27.4136 3.9063 28.2186 3.2597V3.26266ZM44.3536 10.7312C45.0254 10.4583 45.1379 9.78799 44.5785 9.33418C43.9275 8.80622 43.1787 8.71724 42.4122 9.03758C41.7375 9.31935 41.6694 9.98375 42.2406 10.4435C42.6342 10.7609 43.0988 10.8736 43.7203 10.8914C43.8535 10.8587 44.1169 10.8291 44.3536 10.7342V10.7312ZM25.4633 21.762C24.7856 21.7827 24.1641 22.3018 24.025 22.9691C23.9066 23.5416 24.2351 24.0488 24.8004 24.1615C25.6142 24.3217 26.4962 23.5979 26.4991 22.7675C26.4991 22.1683 26.0611 21.7412 25.4633 21.759V21.762ZM51.7937 18.6802C51.9417 19.4751 52.9598 20.095 53.7381 19.8637C54.2057 19.7243 54.4573 19.3001 54.3566 18.8167C54.2116 18.1285 53.4984 17.5709 52.7704 17.5769C52.1045 17.5828 51.6783 18.0633 51.7937 18.6802ZM64.9279 47.2256C64.5816 47.0417 64.262 47.1277 63.9661 47.3383C63.4482 47.7001 63.1818 48.5573 63.3919 49.1505C63.6198 49.7882 64.2472 49.987 64.7858 49.5776C65.2209 49.2484 65.4103 48.7916 65.4251 48.3883C65.431 47.7654 65.2564 47.4006 64.9308 47.2256H64.9279ZM19.9291 70.2184C19.8433 70.3816 19.8906 70.6989 20.0001 70.868C20.518 71.654 21.2757 72.0871 22.2108 72.1582C22.4062 72.1731 22.714 72.0693 22.7879 71.9239C22.8738 71.7608 22.8205 71.4464 22.711 71.2744C22.2079 70.4913 21.4414 70.1028 20.4381 69.9337C20.302 70.0019 20.012 70.0553 19.9261 70.2155L19.9291 70.2184ZM25.046 67.9583C24.9898 67.9642 24.9336 67.9791 24.8773 67.9731C24.5548 67.9435 24.2203 67.8871 24.0428 68.2579C23.9214 68.51 24.099 68.8511 24.46 69.118C24.5074 69.1536 24.5666 69.1773 24.6051 69.2159C24.6495 69.2634 24.7027 69.3197 24.7175 69.379C24.8833 70.1057 25.5225 70.61 26.2535 70.5239C26.4488 70.5002 26.7063 70.3638 26.7862 70.2036C26.8572 70.0642 26.73 69.8121 26.6619 69.6223C26.6353 69.5422 26.5465 69.468 26.4695 69.4176C26.1677 69.2218 25.8836 69.029 25.8214 68.6227C25.8036 68.4952 25.6409 68.3795 25.5255 68.2816C25.3716 68.157 25.1999 68.0591 25.0342 67.9494L25.0431 67.9583H25.046ZM15.1614 67.1011C14.8033 66.2765 14.1966 65.6833 13.3768 65.3126C13.2821 65.2681 13.1756 65.2414 13.072 65.2266C12.7139 65.1761 12.5245 65.3511 12.563 65.7071C12.5778 65.8465 12.6133 65.9888 12.6784 66.1134C13.0276 66.7956 13.5426 67.3206 14.2203 67.6765C14.3949 67.7685 14.5932 67.8159 14.6849 67.8486C15.1939 67.8723 15.3626 67.5608 15.1614 67.0981V67.1011ZM58.0116 7.4359C58.0678 7.30836 57.9938 7.05328 57.8873 6.93464C57.18 6.13084 56.2773 5.6711 55.2149 5.55839C55.0432 5.54059 54.768 5.62364 54.7029 5.74822C54.6378 5.86983 54.7236 6.1516 54.839 6.27618C55.5641 7.05922 56.4727 7.49523 57.6061 7.65836C57.7156 7.60497 57.9554 7.56345 58.0086 7.4359H58.0116ZM72.59 30.6631C72.2644 30.3635 71.93 30.4258 71.7376 30.7847C71.3707 31.4699 71.7199 32.9054 72.3591 33.3503C72.6758 33.5698 72.9925 33.5046 73.1463 33.1516C73.2411 32.9292 73.2736 32.6771 73.3091 32.5376C73.2558 31.7635 73.099 31.1347 72.59 30.6631ZM27.9552 74.0921C27.674 74.1277 27.3485 74.1188 27.2508 74.454C27.1532 74.7802 27.3988 74.9879 27.6267 75.154C28.26 75.6137 28.9703 75.8391 29.7575 75.7709C30.015 75.7472 30.3524 75.6997 30.3672 75.4001C30.379 75.1866 30.2103 74.9048 30.0357 74.7535C29.5059 74.3027 28.8578 74.1188 28.1683 74.0891C28.0972 74.0891 28.0262 74.0802 27.9552 74.0891V74.0921ZM37.6682 78.5886C37.8221 78.5442 38.0381 78.3692 38.047 78.2416C38.0559 78.1111 37.8724 77.9094 37.7274 77.8382C36.7892 77.3874 35.8008 77.3162 34.8004 77.5772C34.6288 77.6217 34.4927 77.8026 34.3417 77.9213C34.4749 78.0755 34.5785 78.3098 34.7413 78.3662C35.3272 78.559 35.9339 78.6895 36.44 78.82C36.9342 78.731 37.313 78.6925 37.6711 78.5886H37.6682ZM46.6147 69.3108C47.0882 68.8451 46.9491 68.249 46.3246 68.0236C45.8896 67.8663 45.4634 67.9138 45.0491 68.0947C44.5638 68.3024 44.253 68.7443 44.324 69.121C44.398 69.5036 44.8331 69.7735 45.4575 69.7765C45.8511 69.7706 46.2743 69.643 46.6147 69.3108ZM63.7737 18.9323C63.6879 19.6946 64.5491 20.7802 65.3067 20.8573C65.6618 20.8929 65.8749 20.7357 65.9371 20.3916C66.0732 19.6145 65.1232 18.4429 64.3419 18.4311C64.0164 18.4251 63.8122 18.6061 63.7767 18.9353L63.7737 18.9323ZM35.5344 55.9576C34.9366 55.9576 34.4512 56.4114 34.4631 56.9572C34.4749 57.5029 35.0106 57.9834 35.6202 57.9864C36.2092 57.9894 36.6797 57.5623 36.6827 57.0224C36.6827 56.4381 36.1648 55.9547 35.5374 55.9576H35.5344ZM1.78456 45.093C1.70762 44.9595 1.52709 44.8824 1.39391 44.7786C1.30513 44.9239 1.14828 45.0633 1.14236 45.2116C1.12164 45.7307 1.08021 46.2646 1.18083 46.7658C1.29329 47.3383 1.53597 47.884 1.74905 48.4327C1.78456 48.5277 1.95621 48.6315 2.05092 48.6226C2.1397 48.6107 2.25808 48.4654 2.28471 48.3586C2.35278 48.0976 2.37646 47.8247 2.39717 47.6734C2.3439 46.6946 2.22552 45.8493 1.78456 45.09V45.093ZM37.3782 51.7132C37.3634 52.2441 37.8487 52.7187 38.4051 52.7246C38.9792 52.7306 39.4468 52.2946 39.4498 51.7458C39.4527 51.1941 39.0088 50.7552 38.4288 50.7403C37.8605 50.7255 37.39 51.1586 37.3752 51.7132H37.3782ZM26.4163 60.4275C26.4251 59.8194 25.8214 59.2411 25.1614 59.2262C24.6909 59.2144 24.3239 59.5525 24.3239 59.9974C24.3239 60.6025 24.9128 61.1631 25.561 61.172C26.0611 61.1779 26.4133 60.8754 26.4192 60.4304L26.4163 60.4275ZM75.3304 46.5463C75.36 46.7688 75.3571 47.0001 75.4251 47.2107C75.4784 47.3768 75.6205 47.5133 75.7211 47.6616C75.875 47.5489 76.0881 47.4717 76.168 47.3205C76.5882 46.5463 76.7243 45.7158 76.5586 44.8438C76.5438 44.7637 76.5113 44.6837 76.4698 44.6125C76.3307 44.3663 76.1532 44.3366 75.9608 44.5442C75.8424 44.6718 75.7241 44.826 75.6767 44.9862C75.5258 45.4934 75.4074 46.0095 75.2742 46.5196C75.292 46.5285 75.3097 46.5345 75.3275 46.5434L75.3304 46.5463ZM4.72628 28.5661C4.85946 28.6224 5.16724 28.4415 5.30042 28.2843C5.81832 27.6703 6.0906 26.9466 6.05508 26.1339C6.04916 25.9708 5.93078 25.7276 5.80945 25.6831C5.68515 25.6386 5.44543 25.7513 5.33001 25.8699C4.77067 26.4424 4.53983 27.1661 4.43625 28.0915C4.49248 28.1953 4.56055 28.4979 4.72628 28.5691V28.5661ZM23.2763 34.344C22.7406 34.3351 22.27 34.8363 22.2671 35.4177C22.2641 35.9753 22.6548 36.4054 23.1638 36.4024C23.7172 36.3995 24.1552 35.919 24.1552 35.3198C24.1552 34.7859 23.7646 34.3529 23.2792 34.344H23.2763ZM6.43094 62.1419C6.56115 61.341 4.87425 58.4195 4.06928 58.0902C3.93906 58.9445 5.7325 62.0025 6.43094 62.1419ZM72.0395 19.3861C71.9478 19.3031 71.7879 19.2972 71.6607 19.2527C71.6281 19.4039 71.5453 19.5671 71.5749 19.7065C71.7258 20.4806 72.1194 21.1391 72.6136 21.7353C72.7557 21.9073 72.9273 22.0556 73.1049 22.1891C73.1759 22.2425 73.321 22.2721 73.392 22.2336C73.463 22.198 73.4808 22.0615 73.5222 21.9726C73.2766 20.9493 72.809 20.0772 72.0395 19.3861ZM23.1579 47.184C22.7021 47.187 22.3647 47.5518 22.3618 48.0442C22.3559 48.6018 22.785 49.0793 23.2999 49.0912C23.7675 49.1031 24.1345 48.7264 24.1375 48.2311C24.1434 47.6675 23.6847 47.1781 23.1579 47.184ZM63.0634 10.1054C63.5872 10.9566 64.3123 11.5825 65.2416 11.9591C65.3067 11.9858 65.3777 12.0036 65.4488 12.0036C65.6293 12.0036 65.724 11.9147 65.6648 11.7337C65.6234 11.6002 65.5612 11.4668 65.4813 11.3511C65.0107 10.6778 64.4011 10.1617 63.6731 9.78799C63.5369 9.71977 63.386 9.68418 63.2943 9.65155C62.9776 9.65155 62.8918 9.82655 63.0664 10.1054H63.0634ZM58.0856 4.84061C57.1001 4.09909 56.008 3.58003 54.8124 3.28936C54.6911 3.2597 54.5549 3.30122 54.401 3.31012C54.8154 4.09316 57.6121 5.40712 58.3638 5.15501C58.2513 5.02747 58.1833 4.91476 58.0856 4.84061ZM33.078 7.77107C33.4243 7.44777 33.3533 7.08888 32.9093 6.92278C32.4595 6.75371 32.0245 6.84863 31.6013 7.02066C31.1662 7.19862 30.9087 7.51006 30.9591 7.777C31.0064 8.04395 31.3675 8.22488 31.8676 8.22191C32.2997 8.19522 32.7318 8.0914 33.078 7.77107ZM11.1957 51.5946C10.7814 51.2831 10.37 51.4374 10.2723 51.9416C10.1717 52.4577 10.37 52.8937 10.7163 53.2645C10.9086 53.4721 11.1572 53.6115 11.4443 53.4958C11.7343 53.3772 11.7994 53.1102 11.7994 52.8195C11.7905 52.3183 11.5982 51.9001 11.1957 51.5975V51.5946ZM28.4553 11.8613C28.1949 12.2409 28.3192 12.6206 28.7572 12.7481C29.2544 12.8934 29.6924 12.7392 30.0712 12.4248C30.2961 12.2409 30.4678 11.9977 30.3435 11.6833C30.2162 11.36 29.9232 11.3007 29.6894 11.2918C29.1419 11.2977 28.6891 11.5231 28.4553 11.8642V11.8613ZM23.0129 7.07998C23.0869 6.98803 23.1283 6.7893 23.078 6.70329C23.0247 6.61431 22.8353 6.54905 22.7169 6.56388C21.9179 6.6677 21.2342 7.01176 20.7222 7.64946C20.6512 7.73844 20.595 7.91047 20.6364 7.99352C20.6867 8.09437 20.8465 8.14479 20.9294 8.19818C21.7906 8.04691 22.4979 7.73548 23.0158 7.07998H23.0129ZM22.9655 42.6578C23.4094 42.6667 23.7764 42.2782 23.7794 41.8036C23.7794 41.3201 23.4006 40.8901 22.9685 40.8841C22.5334 40.8782 22.1635 41.2727 22.1576 41.7502C22.1517 42.2426 22.5157 42.6519 22.9655 42.6608V42.6578ZM22.4417 61.7355C22.7791 61.6821 22.9744 61.427 22.9448 61.08C22.9034 60.555 22.3055 60.0538 21.7788 60.0953C21.4414 60.122 21.2194 60.3652 21.2224 60.7093C21.2283 61.2787 21.8794 61.8245 22.4417 61.7355ZM10.8642 13.5401C10.148 13.6528 8.55288 15.5392 8.59431 16.251C9.37857 16.1057 11.0122 14.1392 10.8642 13.5401ZM36.7478 63.9986C36.733 63.5982 36.3216 63.2779 35.8363 63.2868C35.4071 63.2957 35.0727 63.5685 35.0668 63.9156C35.0609 64.3338 35.4722 64.6719 35.9783 64.666C36.4193 64.663 36.7596 64.3634 36.7478 63.9986ZM32.1784 43.7167C32.5897 43.7315 32.933 43.4112 32.9478 42.9989C32.9626 42.5837 32.6104 42.21 32.205 42.207C31.7907 42.207 31.4681 42.5273 31.4592 42.9485C31.4533 43.3638 31.7699 43.7019 32.1784 43.7167ZM8.4345 58.3542C8.54696 58.4373 8.75708 58.4847 8.87546 58.4343C8.9672 58.3957 9.03823 58.1792 9.03231 58.0457C8.9968 57.4822 8.73341 57.0254 8.27469 56.7021C8.17407 56.6309 7.9817 56.5864 7.88996 56.6369C7.78046 56.6962 7.73606 56.8712 7.69759 56.9424C7.76862 57.5682 7.99946 58.0279 8.43746 58.3542H8.4345ZM39.8227 69.5273C39.8286 69.2011 39.4231 68.9163 38.9556 68.9134C38.4939 68.9134 38.118 69.1714 38.1091 69.4977C38.1003 69.821 38.4702 70.0939 38.9348 70.1057C39.4083 70.1176 39.8197 69.8506 39.8227 69.5244V69.5273ZM72.3354 61.78C72.9007 61.5397 74.2561 59.2203 74.1881 58.6063C73.608 58.8762 72.2644 61.1779 72.3354 61.78ZM17.9729 64.9329C18.041 65.366 18.6062 65.8494 19.0353 65.8435C19.3194 65.8405 19.4822 65.6566 19.4408 65.3867C19.3757 64.9566 18.8104 64.4791 18.3754 64.485C18.0824 64.488 17.9285 64.66 17.9729 64.9359V64.9329ZM42.0304 14.4091C42.0304 14.0977 41.6753 13.8218 41.2699 13.8129C40.8585 13.804 40.5329 14.0383 40.5211 14.3557C40.5063 14.6849 40.8614 14.9638 41.2965 14.9667C41.7138 14.9697 42.0334 14.7294 42.0304 14.4091ZM42.3797 76.6073C42.6312 76.4887 42.6194 76.2544 42.3974 76.1031C42.0393 75.8569 41.0657 75.9162 40.7371 76.2069C40.5389 76.3819 40.5448 76.5777 40.7815 76.6815C40.9917 76.7764 41.2284 76.809 41.5037 76.8832C41.7818 76.7971 42.0985 76.7378 42.3797 76.6044V76.6073ZM28.775 78.9416C30.015 79.4814 31.3142 79.7721 32.6667 79.8047C31.4207 79.2738 30.1274 78.9772 28.775 78.9416ZM60.6603 53.1428C60.6544 52.8255 60.4472 52.609 60.1631 52.6179C59.811 52.6297 59.4529 53.045 59.4617 53.4276C59.4706 53.739 59.6807 53.9585 59.9678 53.9496C60.3259 53.9377 60.6722 53.5403 60.6633 53.1428H60.6603ZM33.0396 0.608042C31.8143 0.658465 30.6868 0.886851 29.5119 1.34659C30.2044 1.55718 32.6519 1.04109 33.0396 0.608042ZM50.8378 2.03768C50.4413 1.60464 48.7189 1.15676 48.2157 1.35549C48.5383 1.7915 50.3791 2.272 50.8378 2.03768ZM77.8253 28.9902C77.4672 27.4835 76.9493 26.0301 76.2834 24.6331C76.6415 26.1399 77.1564 27.5932 77.8253 28.9902ZM41.773 46.2557C41.7818 45.9472 41.5599 45.704 41.261 45.6921C40.9443 45.6802 40.6898 45.9205 40.6868 46.2349C40.6839 46.5345 40.9177 46.7777 41.2195 46.7777C41.5273 46.7777 41.7641 46.5582 41.773 46.2557ZM14.8181 57.3042C14.5606 57.3102 14.4748 57.4763 14.4807 57.7076C14.4896 58.0784 14.8684 58.5262 15.1762 58.4728C15.3271 58.4462 15.4485 58.2682 15.5254 58.2059C15.5106 57.7106 15.1377 57.2953 14.8181 57.3042ZM30.5063 77.9865C30.2044 77.5149 29.0354 77.2154 28.5826 77.4912C28.8371 77.9747 30.0919 78.295 30.5063 77.9865ZM6.38654 21.581C6.90445 21.4565 7.46083 20.5221 7.3247 20.009C6.82455 20.0772 6.20898 21.1065 6.38654 21.581ZM23.5485 54.2344C23.5367 54.5458 23.8119 54.8394 24.1167 54.8335C24.3801 54.8276 24.5311 54.6763 24.5488 54.4183C24.5695 54.1157 24.2795 53.8191 23.9777 53.8161C23.7409 53.8161 23.5544 53.9971 23.5456 54.2344H23.5485ZM38.0263 1.39108C38.3992 1.72031 39.3995 1.72328 39.8552 1.37922C39.4083 1.04109 38.4051 1.05888 38.0263 1.39108ZM0.213082 39.327C0.0295947 40.0655 0.0266353 40.7655 0.248596 41.5545C0.588935 40.9879 0.5623 39.671 0.213082 39.327ZM38.8165 79.7721C39.3136 80.0865 40.5241 80.0746 41.0479 79.7424C40.2636 79.5378 39.577 79.5645 38.8165 79.7721ZM4.8417 34.2936C4.96896 34.1749 5.1554 34.08 5.20571 33.9347C5.27674 33.7241 5.28266 33.472 5.25011 33.2495C5.21459 33.0181 5.00151 32.9796 4.88017 33.1753C4.76179 33.3681 4.7026 33.5995 4.60494 33.8516C4.68781 34.0029 4.76771 34.1482 4.84762 34.2906L4.8417 34.2936ZM47.8103 77.4171C47.8517 77.3726 47.8399 77.2035 47.7985 77.1768C47.4936 76.981 46.6354 77.251 46.4667 77.5802C46.7893 77.77 47.5676 77.687 47.8103 77.4171ZM24.0191 28.6402C23.8001 28.5869 23.5663 28.8686 23.5663 29.1207C23.5663 29.3669 23.7024 29.4915 23.9362 29.5004C24.1819 29.5093 24.4009 29.272 24.3949 28.8953C24.3091 28.833 24.1789 28.6758 24.0191 28.6373V28.6402ZM4.46585 52.9471C4.50432 53.0212 4.63454 53.045 4.72036 53.0924C4.75587 53.0094 4.83578 52.9115 4.81506 52.8433C4.7322 52.5526 4.63158 52.2649 4.5132 51.989C4.48656 51.9238 4.36522 51.8971 4.28532 51.8526C4.23797 51.9386 4.19061 52.0217 4.11367 52.1581C4.22613 52.4191 4.32675 52.692 4.46289 52.9471H4.46585ZM64.0933 68.5011C63.6524 68.4625 63.1285 68.8985 63.0723 69.379C63.5724 69.3701 64.0815 68.9223 64.0933 68.5011ZM0.426164 32.4724C0.284109 33.3355 0.142055 34.1957 0 35.0588C0.0591895 35.0677 0.118379 35.0796 0.177568 35.0885C0.319623 34.2253 0.464637 33.3592 0.606692 32.4961C0.544543 32.4872 0.485354 32.4813 0.423205 32.4724H0.426164ZM77.7661 39.146C77.5027 39.4515 77.4938 40.1278 77.7631 40.5668C78.0295 40.1782 78.0206 39.4841 77.7661 39.146ZM1.74313 53.7509C2.20185 54.8691 2.65761 55.9873 3.11633 57.1055C3.14888 57.0936 3.17847 57.0788 3.21103 57.0669C2.75823 55.9487 2.30543 54.8305 1.85263 53.7094C1.81712 53.7242 1.7816 53.7361 1.74609 53.7509H1.74313ZM65.3422 15.3849C65.3807 15.3108 65.4724 15.1921 65.4517 15.1684C65.2593 14.946 65.0522 14.7413 64.8391 14.5396C64.8332 14.5337 64.6556 14.6909 64.6586 14.6968C64.8332 14.943 65.0196 15.1803 65.2031 15.4176C65.2505 15.4057 65.2949 15.3938 65.3422 15.3849ZM61.7908 7.02362C62.2525 7.46853 62.7497 7.86598 63.3505 8.10623C63.3742 8.07064 63.3978 8.03505 63.4245 8.00242C62.9095 7.63463 62.3946 7.26387 61.8796 6.89608C61.85 6.93761 61.8204 6.97913 61.7908 7.02362ZM46.0109 6.19609C45.9162 6.10415 45.8304 5.94991 45.7239 5.93211C45.5167 5.89949 45.3007 5.94398 45.0876 5.97067C45.0757 5.97067 45.0521 6.13381 45.0787 6.14864C45.2504 6.25838 45.4338 6.34736 45.644 6.46007C45.786 6.35626 45.8985 6.27618 46.0109 6.19609ZM76.0762 55.5839L77.0854 52.8878C77.0499 52.8759 77.0144 52.8611 76.9789 52.8462C76.6415 53.739 76.3071 54.6318 75.9697 55.5246C76.0052 55.5424 76.0407 55.5631 76.0762 55.5809V55.5839ZM5.87751 40.6676C5.97222 40.5163 6.13203 40.3651 6.13795 40.2079C6.14387 40.0625 5.98701 39.9113 5.90119 39.76C5.79761 39.8905 5.69403 40.024 5.56085 40.1901C5.68811 40.3799 5.78281 40.5223 5.87751 40.6646V40.6676ZM41.8795 0.172031C42.4951 0.222454 43.1107 0.275843 43.7233 0.326266C43.7292 0.269911 43.7321 0.21059 43.7381 0.154235C43.1225 0.103812 42.5069 0.050423 41.8943 0C41.8884 0.0563551 41.8854 0.115676 41.8795 0.172031ZM15.9456 17.2328C15.7799 17.393 15.6319 17.5739 15.478 17.7489C15.5432 17.7993 15.6053 17.8913 15.6704 17.8972C15.8805 17.9091 16.1558 17.6065 16.141 17.3366C16.0936 17.3099 15.9634 17.215 15.9427 17.2358L15.9456 17.2328ZM13.5781 36.0732C13.4745 36.1918 13.3176 36.3016 13.2851 36.435C13.2644 36.53 13.4183 36.6634 13.4952 36.7791C13.6165 36.6812 13.7408 36.5833 13.9184 36.4439C13.7616 36.2749 13.6698 36.174 13.5781 36.0732ZM28.8519 71.221C28.6951 71.1201 28.5471 70.9955 28.3784 70.9273C28.331 70.9066 28.2186 71.043 28.1387 71.1083C28.2807 71.2269 28.4228 71.3485 28.6092 71.5057C28.7246 71.3722 28.7868 71.2951 28.8519 71.221ZM22.3174 75.1391C22.5541 75.4506 22.856 75.6167 23.2526 75.5633C23.0069 75.2578 22.7051 75.0946 22.3174 75.1391ZM68.568 65.535C68.9616 65.3244 69.1747 65.0397 69.1629 64.6185C68.8936 64.9418 68.6805 65.1969 68.4704 65.452C68.5029 65.4787 68.5355 65.5083 68.568 65.535ZM13.4419 10.2062C13.7852 9.91256 14.1315 9.62189 14.4748 9.32825C14.4481 9.29562 14.4186 9.263 14.3919 9.23037C14.0427 9.52104 13.6964 9.81172 13.3472 10.1024C13.3798 10.138 13.4094 10.1736 13.4419 10.2062ZM54.3566 13.9642C54.4602 14.0739 54.5727 14.1778 54.7029 14.2519C54.7266 14.2667 54.8302 14.1451 54.8982 14.0888C54.7917 13.982 54.6852 13.8752 54.5372 13.7269C54.4454 13.8456 54.3478 13.9553 54.3566 13.9642ZM68.7101 57.1441C69.0416 57.0462 69.1274 56.8534 69.0652 56.5153C68.7219 56.6398 68.6243 56.8267 68.7101 57.1441ZM57.3724 71.7074C57.7157 71.7489 57.8636 71.657 57.9524 71.3485C57.6091 71.304 57.47 71.393 57.3724 71.7074ZM73.2884 26.5343C73.2115 26.3416 73.1315 26.1488 73.0546 25.953C72.9925 25.9797 72.9303 26.0034 72.8711 26.0301C72.951 26.2229 73.0309 26.4157 73.1108 26.6085C73.17 26.5848 73.2322 26.5581 73.2914 26.5343H73.2884Z"/>
</mask>
<path fill-rule="evenodd" clip-rule="evenodd" d="M93.7354 32.0779V48.4565L92.4776 47.1959V32.0749H87.4436V30.8144H98.7695V32.0749H93.7354V32.0779ZM100.03 30.8173L101.288 32.0779V38.366C101.466 38.1405 101.661 37.9181 101.88 37.6986C103.105 36.4736 104.585 35.8596 106.322 35.8596C108.059 35.8596 109.542 36.4736 110.77 37.7045C111.998 38.9354 112.614 40.4185 112.614 42.1595V48.4594H111.356V42.1595C111.356 40.7655 110.865 39.5761 109.882 38.5943C108.9 37.6126 107.713 37.1202 106.322 37.1202C104.931 37.1202 103.741 37.6126 102.762 38.5943C101.782 39.5761 101.288 40.7655 101.288 42.1595V48.4594H100.03V30.8203V30.8173ZM115.917 42.1566V48.4565H114.659V42.1566C114.659 40.4185 115.274 38.9325 116.503 37.7016C117.731 36.4706 119.214 35.8567 120.951 35.8567H123.469L122.211 37.1172H120.954C119.56 37.1172 118.373 37.6096 117.393 38.5914C116.414 39.5731 115.92 40.7625 115.92 42.1566H115.917ZM122.827 42.7854C122.954 43.9095 123.431 44.8883 124.262 45.7218C125.245 46.7035 126.432 47.1959 127.823 47.1959C129.214 47.1959 130.403 46.7035 131.386 45.7218C131.889 45.2175 132.262 44.6599 132.507 44.0459H133.842C133.558 44.9951 133.037 45.8493 132.283 46.6027C131.048 47.8366 129.563 48.4535 127.829 48.4535C126.094 48.4535 124.609 47.8395 123.38 46.6086C122.152 45.3777 121.537 43.8947 121.537 42.1536C121.537 40.4125 122.152 38.9295 123.38 37.6986C124.609 36.4677 126.091 35.8537 127.829 35.8537C129.566 35.8537 131.048 36.4677 132.277 37.6986C133.505 38.9295 134.12 40.4125 134.12 42.1536C134.12 42.3642 134.111 42.5748 134.094 42.7824H122.83L122.827 42.7854ZM132.821 41.5248C132.697 40.4007 132.217 39.4219 131.386 38.5884C130.403 37.6066 129.217 37.1143 127.823 37.1143C126.429 37.1143 125.242 37.6066 124.262 38.5884C123.431 39.4189 122.954 40.3977 122.827 41.5248H132.821ZM136.751 42.7854C136.879 43.9095 137.355 44.8883 138.187 45.7218C139.169 46.7035 140.356 47.1959 141.75 47.1959C143.144 47.1959 144.331 46.7035 145.313 45.7218C145.816 45.2175 146.189 44.6599 146.432 44.0459H147.767C147.482 44.9951 146.962 45.8493 146.207 46.6027C144.973 47.8366 143.487 48.4535 141.753 48.4535C140.019 48.4535 138.533 47.8395 137.305 46.6086C136.077 45.3777 135.461 43.8947 135.461 42.1536C135.461 40.4125 136.077 38.9295 137.305 37.6986C138.533 36.4677 140.016 35.8537 141.753 35.8537C143.49 35.8537 144.973 36.4677 146.201 37.6986C147.429 38.9295 148.045 40.4125 148.045 42.1536C148.045 42.3642 148.036 42.5748 148.021 42.7824H136.757L136.751 42.7854ZM146.745 41.5248C146.618 40.4007 146.142 39.4219 145.31 38.5884C144.328 37.6066 143.141 37.1143 141.747 37.1143C140.353 37.1143 139.166 37.6066 138.184 38.5884C137.352 39.4189 136.876 40.3977 136.748 41.5248H146.743H146.745ZM155.624 47.1959H165.692V48.4565H154.366V30.8173H165.692V32.0779H155.624V39.0066H165.692L164.434 40.2672H155.624V47.1959ZM167.104 32.0749V30.8144H168.361V32.0749H167.104ZM168.361 35.8537V48.4535H167.104V35.8537H168.361ZM181.176 45.9472C180.998 46.1726 180.806 46.3921 180.596 46.6027C179.362 47.8366 177.876 48.4535 176.142 48.4535C174.408 48.4535 172.922 47.8395 171.694 46.6086C170.466 45.3777 169.85 43.8947 169.85 42.1536C169.85 40.4125 170.466 38.9295 171.694 37.6986C172.922 36.4677 174.405 35.8537 176.142 35.8537C177.879 35.8537 179.362 36.4677 180.59 37.6986C181.818 38.9295 182.434 40.4125 182.434 42.1536V47.1929C182.434 48.931 181.818 50.417 180.59 51.648C179.362 52.8789 177.879 53.4928 176.142 53.4928C174.405 53.4928 172.925 52.8759 171.7 51.6391L172.582 50.7581C173.564 51.7399 174.751 52.2323 176.145 52.2323C177.539 52.2323 178.726 51.7399 179.708 50.7581C180.691 49.7764 181.179 48.587 181.179 47.1929V45.9442L181.176 45.9472ZM176.142 37.1143C174.748 37.1143 173.561 37.6066 172.579 38.5884C171.596 39.5702 171.108 40.7596 171.108 42.1536C171.108 43.5476 171.599 44.737 172.579 45.7188C173.561 46.7006 174.748 47.1929 176.142 47.1929C177.536 47.1929 178.723 46.7006 179.705 45.7188C180.688 44.737 181.176 43.5476 181.176 42.1536C181.176 40.7596 180.685 39.5702 179.705 38.5884C178.723 37.6066 177.536 37.1143 176.142 37.1143ZM184.449 30.8144L185.707 32.0749V38.363C185.882 38.1376 186.08 37.9151 186.299 37.6956C187.524 36.4706 189.004 35.8567 190.741 35.8567C192.478 35.8567 193.961 36.4706 195.189 37.7016C196.417 38.9325 197.033 40.4155 197.033 42.1566V48.4565H195.775V42.1566C195.775 40.7625 195.284 39.5731 194.304 38.5914C193.322 37.6096 192.135 37.1172 190.741 37.1172C189.347 37.1172 188.16 37.6096 187.178 38.5914C186.195 39.5731 185.707 40.7625 185.707 42.1566V48.4565H184.449V30.8173V30.8144ZM204.801 47.1929H206.059L207.317 48.4535H204.801C203.064 48.4535 201.582 47.8395 200.353 46.6086C199.125 45.3777 198.51 43.8947 198.51 42.1536V30.8144H199.767V35.8537H206.059V37.1143H199.767V42.1536C199.767 43.5476 200.259 44.737 201.238 45.7188C202.221 46.7006 203.408 47.1929 204.801 47.1929ZM224.967 30.8144V32.0749H217.101C216.145 32.0749 215.328 32.4131 214.654 33.0893C213.979 33.7656 213.641 34.5813 213.641 35.5393C213.641 36.4973 213.979 37.313 214.654 37.9893C215.328 38.6655 216.145 39.0037 217.101 39.0037H220.247C221.546 39.0037 222.659 39.4664 223.582 40.3888C224.506 41.3142 224.967 42.4265 224.967 43.7286C224.967 45.0307 224.506 46.143 223.582 47.0684C222.659 47.9938 221.546 48.4535 220.247 48.4535H212.381V47.1929H220.247C221.203 47.1929 222.02 46.8548 222.694 46.1785C223.369 45.5023 223.707 44.6866 223.707 43.7286C223.707 42.7705 223.369 41.9549 222.694 41.2786C222.02 40.6024 221.203 40.2642 220.247 40.2642H217.101C215.802 40.2642 214.689 39.8015 213.766 38.8791C212.842 37.9537 212.381 36.8414 212.381 35.5393C212.381 34.2372 212.842 33.1249 213.766 32.1995C214.689 31.2741 215.802 30.8144 217.101 30.8144H224.967ZM226.53 32.0749V30.8144H227.788V32.0749H226.53ZM227.788 35.8537V48.4535H226.53V35.8537H227.788ZM234.334 41.1066L238.386 35.8537H239.996L235.136 42.1536L239.996 48.4535H238.386L234.334 43.2006L230.283 48.4535H228.673L233.529 42.1536L228.673 35.8537H230.283L234.334 41.1066ZM25.046 67.9553C24.6643 67.724 24.2499 67.5341 23.9155 67.2494C23.6876 67.0536 23.5278 66.7422 23.4213 66.4486C23.3502 66.2588 23.3562 65.974 23.4509 65.802C23.6847 65.3808 23.9481 64.9596 24.2766 64.6156C24.7027 64.1706 25.2857 64.1973 25.8451 64.3041C26.4932 64.4257 27.0318 64.7609 27.5053 65.2651C27.7421 64.9389 28.0617 64.7401 28.4405 64.8261C28.775 64.9033 29.0827 65.0901 29.4024 65.2206C29.5059 65.2622 29.6154 65.3066 29.722 65.3037C30.1393 65.3037 30.5151 65.4045 30.8348 65.6863C31.1455 65.9592 31.2816 66.2914 31.1899 66.6087C31.3734 66.8134 31.5184 66.9617 31.6397 67.1278C31.6545 67.1486 31.5302 67.3295 31.4858 67.3236C31.252 67.2909 31.0242 67.2257 30.8022 67.1189C30.2103 67.2405 29.6658 67.1486 29.1922 66.7215C29.136 66.671 29.0502 66.6443 28.9732 66.6295C28.6536 66.5643 28.334 66.5079 27.9848 66.4426C27.9049 67.1545 27.4254 67.5104 26.7004 67.5964C26.656 67.6024 26.5997 67.6113 26.5672 67.6409C26.1174 68.074 25.5758 68.0147 25.0283 67.9464L25.0371 67.9553H25.046ZM35.419 28.7767C34.2352 28.7856 33.2586 29.7555 33.2615 30.9211C33.2645 32.0245 34.1908 32.9203 35.3272 32.9232C36.511 32.9232 37.4995 31.9563 37.4965 30.7995C37.4936 29.6724 36.5643 28.7678 35.419 28.7767ZM53.1906 44.1438C52.0867 44.1438 51.0983 45.1553 51.1012 46.2853C51.1042 47.4362 51.8944 48.3052 52.9479 48.3141C54.0873 48.326 55.0492 47.3175 55.0462 46.1163C55.0462 45.004 54.2353 44.1438 53.1906 44.1409V44.1438ZM42.9183 56.0881C42.9272 57.1055 43.7765 57.8885 44.8656 57.8796C46.0346 57.8707 47.0201 56.9453 47.0172 55.8627C47.0172 54.8424 46.1737 54.0683 45.0757 54.0712C43.9127 54.0772 42.9094 55.0144 42.9183 56.0852V56.0881ZM27.8516 54.6407C27.7954 55.7678 28.7661 56.7941 29.9469 56.8563C30.9827 56.9097 31.8173 56.189 31.8765 55.1924C31.9416 54.0861 30.9472 53.0509 29.7634 52.9945C28.7483 52.9471 27.9019 53.6767 27.8546 54.6437L27.8516 54.6407ZM14.1581 21.5276C13.001 22.0971 12.344 23.067 12.2877 24.3691C12.2374 25.5229 13.1193 26.0924 14.1581 25.5793C15.3123 25.0098 15.8894 24.0251 16.0019 22.9187C16.0137 21.6137 15.1703 21.0264 14.1552 21.5276H14.1581ZM40.4797 20.8603C41.4119 20.3175 41.5332 19.0895 40.7756 18.3273C40.018 17.565 38.7099 17.4968 37.8132 18.176C37.0585 18.7455 36.9194 19.7183 37.4965 20.4658C37.9286 21.0234 38.5323 21.2251 39.4379 21.2577C39.654 21.1776 40.1038 21.0827 40.4797 20.8632V20.8603ZM51.045 51.1408C51.045 50.1679 50.2755 49.4115 49.2989 49.4204C48.2424 49.4293 47.3042 50.3666 47.319 51.3988C47.3338 52.3895 48.0826 53.125 49.0681 53.1132C50.1424 53.1013 51.045 52.1996 51.042 51.1408H51.045ZM28.8608 17.5502C29.2869 16.6455 28.8963 15.815 27.9286 15.5748C26.8868 15.3167 25.4899 16.0968 25.1526 17.129C24.8803 17.9565 25.2532 18.6535 26.0996 18.8819C26.2564 18.9234 26.4251 18.9353 26.5879 18.959C27.5379 18.9412 28.4761 18.3658 28.8637 17.5502H28.8608ZM48.8757 27.525C47.8843 27.525 47.1681 28.2487 47.1651 29.2631C47.1651 30.2479 48.0855 31.1317 49.1184 31.1317C50.0832 31.1317 50.8023 30.4139 50.7994 29.45C50.7964 28.4059 49.9174 27.528 48.8757 27.525ZM30.8407 61.3143C30.8466 61.5605 30.8052 61.8186 30.8673 62.0499C31.1988 63.2571 32.7791 63.9156 33.8978 63.3342C34.6288 62.9516 34.9277 62.0944 34.5489 61.3618C34.1642 60.6143 33.516 60.2406 32.6903 60.1961C31.8913 60.1516 31.2609 60.4423 30.8821 61.1868C30.8673 61.2283 30.8555 61.2728 30.8407 61.3143ZM32.3737 72.3362C32.862 72.2354 33.2763 72.0099 33.4095 71.4879C33.5397 70.9777 33.2734 70.5833 32.9153 70.2718C32.0629 69.5333 31.0686 69.2782 29.9765 69.5659C28.9644 69.8328 28.7335 70.7345 29.4675 71.4879C30.086 72.1256 30.8762 72.3688 31.8084 72.4104C31.9534 72.3926 32.1665 72.3777 32.3737 72.3362ZM57.8607 10.1973C57.3457 9.14139 55.5464 8.15962 54.3803 8.29606C53.5517 8.39394 53.2173 9.02868 53.6878 9.71977C54.4543 10.8498 55.5671 11.4104 56.7035 11.535C57.8547 11.532 58.2454 10.9833 57.8607 10.1973ZM21.5538 62.9813C21.32 61.9224 20.2606 60.9821 19.1803 60.8754C18.3162 60.7923 17.7716 61.3529 17.8811 62.213C18.0262 63.3312 19.281 64.4287 20.4085 64.4257C21.249 64.4228 21.7373 63.8088 21.5538 62.9813ZM19.2839 10.3486C18.4701 10.5443 17.7835 10.9744 17.1827 11.5498C16.7684 11.9502 16.4132 12.3922 16.2771 12.9676C16.1676 13.4362 16.3896 13.7684 16.8631 13.8367C17.0347 13.8634 17.2212 13.8574 17.3899 13.8218C18.3665 13.6261 19.1596 13.104 19.8078 12.3655C20.0593 12.0778 20.2842 11.7367 20.4233 11.3808C20.6838 10.7253 20.373 10.3159 19.5769 10.3011C19.5355 10.307 19.4053 10.3189 19.281 10.3486H19.2839ZM28.5145 58.9356C27.6089 59.0868 27.0851 59.8372 27.3426 60.7182C27.5734 61.5071 28.1623 61.9491 28.9377 62.1152C29.7397 62.2872 30.4027 62.047 30.8436 61.3114C30.8584 61.2698 30.8703 61.2253 30.8851 61.1838C31.1307 59.7245 29.6658 58.7428 28.5175 58.9356H28.5145ZM63.5606 26.3771C63.9897 26.6382 64.4662 26.7301 64.9042 26.4424C65.3422 26.1547 65.4458 25.6742 65.3925 25.1818C65.3067 24.3721 64.9131 23.7196 64.2679 23.2391C63.8447 22.9276 63.3535 22.7526 62.8355 22.9988C62.3591 23.2242 62.2466 23.6751 62.217 24.2475C62.3028 25.1195 62.7349 25.8729 63.5606 26.3742V26.3771ZM16.798 47.7031C16.0167 47.2107 15.1495 47.54 14.8684 48.4149C14.6139 49.2069 14.9424 50.2509 15.6142 50.7433C16.0611 51.0725 16.5494 51.2268 17.0732 50.9539C17.6029 50.681 17.7746 50.1857 17.8219 49.6488C17.7805 48.8243 17.4994 48.145 16.798 47.7031ZM56.5822 39.2617C55.7446 39.2617 55.0344 40.024 55.0344 40.9286C55.0344 41.8778 55.6914 42.6311 56.523 42.64C57.3724 42.6519 58.0767 41.8896 58.0856 40.9553C58.0945 40.0269 57.4138 39.2617 56.5792 39.2617H56.5822ZM39.364 59.2025C38.6152 59.8313 38.6655 60.8605 39.4764 61.4063C39.9233 61.7059 40.4234 61.78 40.9384 61.6614C42.1222 61.3825 42.572 60.1309 41.7937 59.2885C41.4652 58.9326 41.0213 58.8021 40.6129 58.7902C40.1038 58.7902 39.7073 58.9178 39.364 59.2055V59.2025ZM34.5962 76.0853C35.1645 75.848 35.2355 75.3734 34.8123 74.9285C34.7324 74.8425 34.6436 74.7595 34.5459 74.6972C33.5989 74.0832 32.566 73.8934 31.4651 74.1247C31.1129 74.1989 30.7519 74.3502 30.669 74.7446C30.5832 75.1628 30.8851 75.4268 31.1869 75.6404C31.8676 76.1179 32.646 76.284 33.4776 76.373C33.8505 76.2811 34.2441 76.2336 34.5933 76.0853H34.5962ZM53.1403 73.0214C53.6612 72.3837 53.451 71.8082 52.6431 71.6659C51.9654 71.5472 51.3084 71.6748 50.7195 71.9803C50.2696 72.2146 49.8257 72.5231 49.4854 72.8968C49.0089 73.4158 49.2693 74.0209 49.9618 74.1514C50.1246 74.1811 50.2903 74.1841 50.3584 74.19C51.4268 74.187 52.6076 73.6709 53.1403 73.0214ZM51.264 61.7355C51.6931 60.9347 51.2906 60.0923 50.3969 59.9114C49.7044 59.769 49.1125 60.0033 48.6153 60.4838C48.1743 60.9109 48.0086 61.5249 48.2128 62.0054C48.4584 62.5868 48.9497 62.7677 49.6097 62.7974C50.2933 62.741 50.9 62.4177 51.267 61.7355H51.264ZM64.5076 59.4665C63.4659 59.6385 62.3709 60.9021 62.3531 61.9491C62.3413 62.6342 62.7911 63.002 63.4629 62.8567C64.4721 62.6342 65.505 61.3707 65.5109 60.3474C65.5139 59.7275 65.1055 59.3686 64.5076 59.4665ZM74.0904 50.0997C73.9484 49.6014 73.5607 49.4649 73.1286 49.7467C73.0398 49.8031 72.951 49.8683 72.8829 49.9484C72.0691 50.8738 71.6932 51.9535 71.8087 53.1873C71.8353 53.4721 71.9211 53.7687 72.2319 53.8755C72.5485 53.9852 72.806 53.831 73.025 53.6055C73.7856 52.8136 74.0993 51.8407 74.1822 50.7255C74.1555 50.5475 74.1496 50.3162 74.0875 50.1026L74.0904 50.0997ZM43.9867 39.0956C43.1462 39.0808 42.4684 39.763 42.4625 40.635C42.4566 41.421 43.1343 42.1002 43.9363 42.115C44.765 42.1299 45.4486 41.4536 45.4546 40.6113C45.4605 39.7837 44.8064 39.1075 43.9867 39.0926V39.0956ZM68.9113 41.9756C68.5858 41.3557 67.9199 41.2549 67.3843 41.6998C66.6266 42.3286 66.4905 43.871 67.1268 44.6273C67.5174 45.093 68.1182 45.1226 68.5621 44.7014C69.0327 44.2565 69.1925 43.6871 69.2665 43.0375C69.1511 42.6816 69.08 42.3019 68.9084 41.9786L68.9113 41.9756ZM20.9116 68.5189C20.6039 67.7685 20.0297 67.2553 19.3106 66.938C18.9554 66.7808 18.5411 66.6888 18.1534 66.6829C17.6444 66.677 17.4076 67.0566 17.5142 67.5608C17.7213 68.5248 19.1626 69.6193 20.2102 69.6074C20.8672 69.5985 21.1691 69.1447 20.9116 68.5219V68.5189ZM71.3677 36.2393C70.9771 35.7262 70.394 35.6609 69.9975 36.088C69.2872 36.8562 69.4233 38.6893 70.2431 39.3477C70.6426 39.671 71.1102 39.6206 71.4298 39.2172C71.7465 38.8168 71.8323 38.3422 71.8531 37.8499C71.859 37.2804 71.6637 36.6338 71.3677 36.2393ZM14.0427 28.3377C13.6343 28.1479 13.1549 28.2932 12.7435 28.7292C12.2433 29.2572 12.0273 29.8919 12.1398 30.6156C12.2789 31.5144 13.0927 31.8406 13.8267 31.2919C14.4067 30.8589 14.6553 30.2508 14.6967 29.5271C14.6672 29.0377 14.5547 28.572 14.0457 28.3347L14.0427 28.3377ZM15.3774 41.8244C14.7885 41.068 13.7941 41.1896 13.4123 42.0706C13.1845 42.5955 13.1933 43.1324 13.4212 43.6574C13.6668 44.2239 14.1552 44.5709 14.6346 44.5383C15.1436 44.5027 15.5668 44.0964 15.7296 43.4735C15.7651 43.3371 15.7651 43.1947 15.774 43.1294C15.774 42.5985 15.6615 42.1833 15.3804 41.8244H15.3774ZM12.6458 60.2169C12.048 60.0894 11.6722 60.4216 11.7225 61.0326C11.7994 61.9906 12.7672 63.1533 13.6905 63.3995C14.241 63.5448 14.6316 63.2423 14.6287 62.6698C14.6287 61.7118 13.584 60.4186 12.6458 60.2199V60.2169ZM42.936 63.5715C42.2642 64.1232 42.3678 65.0694 43.1462 65.449C43.7617 65.7486 44.3655 65.6685 44.9396 65.3155C45.4042 65.0308 45.6588 64.5355 45.57 64.0965C45.4605 63.5448 45.0639 63.2957 44.5638 63.1652C44.4395 63.1325 44.3063 63.1325 44.179 63.1177C43.7055 63.1177 43.2941 63.2779 42.936 63.5715ZM46.5229 33.5491C45.7771 33.552 45.1912 34.1512 45.1793 34.9224C45.1675 35.6728 45.8186 36.3223 46.5851 36.3283C47.3427 36.3342 47.9375 35.741 47.9375 34.9787C47.9375 34.1897 47.2983 33.5431 46.52 33.5491H46.5229ZM52.6076 24.0696C52.5898 23.2361 51.8293 22.5242 50.9681 22.5331C50.2519 22.542 49.7576 23.0285 49.7547 23.7344C49.7547 24.5174 50.5478 25.2649 51.3735 25.2589C52.0779 25.256 52.6194 24.731 52.6046 24.0696H52.6076ZM37.0526 4.2385C37.2272 4.11096 37.4137 3.84401 37.3989 3.65418C37.387 3.48808 37.1325 3.28046 36.9372 3.19741C36.2476 2.9008 35.5226 2.94529 34.8123 3.10546C34.4039 3.19741 33.9984 3.35461 33.6344 3.55927C33.4509 3.66308 33.2408 3.95079 33.2615 4.13172C33.2793 4.31265 33.5456 4.53214 33.7498 4.60925C34.0961 4.74273 34.4808 4.77535 34.7057 4.82281C35.6291 4.77832 36.3986 4.7101 37.0496 4.2385H37.0526ZM8.35459 45.1226C7.85444 44.6243 7.2803 44.7519 7.00803 45.4044C6.69433 46.1548 6.93405 47.3828 7.50818 47.9641C7.9817 48.4416 8.59135 48.3467 8.85178 47.7298C8.96424 47.4628 8.9968 47.1633 9.03823 46.9853C8.9968 46.2112 8.83403 45.6002 8.35459 45.1226ZM56.5289 57.4733C56.6029 56.7169 56.0376 56.1682 55.283 56.2691C54.6881 56.3492 54.2471 56.6754 53.969 57.1885C53.4925 58.0635 53.9601 58.9474 54.8834 58.9563C55.6707 58.9622 56.452 58.2593 56.5289 57.4733ZM37.5439 74.9226C38.1032 74.6824 38.1624 74.1247 37.7126 73.7243C37.0408 73.1311 35.5906 72.9947 34.83 73.4574C34.3329 73.7569 34.2855 74.2434 34.7265 74.6201C35.2118 75.0323 35.8008 75.1362 36.5969 75.1806C36.8011 75.1273 37.1947 75.0709 37.5439 74.9226ZM34.9751 36.8444C34.9632 36.1384 34.4009 35.5779 33.7084 35.5838C32.9804 35.5927 32.4062 36.177 32.4122 36.9037C32.421 37.6096 32.9804 38.1643 33.6818 38.1613C34.4098 38.1583 34.9839 37.571 34.9751 36.8444ZM60.5893 35.0054C60.3496 34.4359 59.8554 34.1304 59.3434 34.2075C58.8255 34.2876 58.4466 34.7236 58.4082 35.3465C58.3934 35.5838 58.4555 35.8418 58.5413 36.0702C58.7603 36.6427 59.3315 36.9689 59.8583 36.8562C60.3673 36.7494 60.7254 36.2363 60.755 35.6134C60.7018 35.4088 60.6692 35.1982 60.5863 35.0054H60.5893ZM28.2186 3.26266C28.3192 3.18258 28.4169 3.09063 28.4968 2.98979C28.6477 2.79996 28.5944 2.63979 28.3606 2.60123C28.1298 2.56564 27.8753 2.53301 27.6592 2.5953C26.7773 2.85038 25.8954 3.11436 25.0371 3.43469C24.6613 3.57706 24.3298 3.85587 23.9984 4.09909C23.9096 4.16434 23.8119 4.35417 23.8474 4.41646C23.9007 4.5173 24.0576 4.56773 24.1789 4.61815C24.2381 4.64485 24.318 4.62112 24.389 4.62112C25.413 4.62112 27.4136 3.9063 28.2186 3.2597V3.26266ZM44.3536 10.7312C45.0254 10.4583 45.1379 9.78799 44.5785 9.33418C43.9275 8.80622 43.1787 8.71724 42.4122 9.03758C41.7375 9.31935 41.6694 9.98375 42.2406 10.4435C42.6342 10.7609 43.0988 10.8736 43.7203 10.8914C43.8535 10.8587 44.1169 10.8291 44.3536 10.7342V10.7312ZM25.4633 21.762C24.7856 21.7827 24.1641 22.3018 24.025 22.9691C23.9066 23.5416 24.2351 24.0488 24.8004 24.1615C25.6142 24.3217 26.4962 23.5979 26.4991 22.7675C26.4991 22.1683 26.0611 21.7412 25.4633 21.759V21.762ZM51.7937 18.6802C51.9417 19.4751 52.9598 20.095 53.7381 19.8637C54.2057 19.7243 54.4573 19.3001 54.3566 18.8167C54.2116 18.1285 53.4984 17.5709 52.7704 17.5769C52.1045 17.5828 51.6783 18.0633 51.7937 18.6802ZM64.9279 47.2256C64.5816 47.0417 64.262 47.1277 63.9661 47.3383C63.4482 47.7001 63.1818 48.5573 63.3919 49.1505C63.6198 49.7882 64.2472 49.987 64.7858 49.5776C65.2209 49.2484 65.4103 48.7916 65.4251 48.3883C65.431 47.7654 65.2564 47.4006 64.9308 47.2256H64.9279ZM19.9291 70.2184C19.8433 70.3816 19.8906 70.6989 20.0001 70.868C20.518 71.654 21.2757 72.0871 22.2108 72.1582C22.4062 72.1731 22.714 72.0693 22.7879 71.9239C22.8738 71.7608 22.8205 71.4464 22.711 71.2744C22.2079 70.4913 21.4414 70.1028 20.4381 69.9337C20.302 70.0019 20.012 70.0553 19.9261 70.2155L19.9291 70.2184ZM25.046 67.9583C24.9898 67.9642 24.9336 67.9791 24.8773 67.9731C24.5548 67.9435 24.2203 67.8871 24.0428 68.2579C23.9214 68.51 24.099 68.8511 24.46 69.118C24.5074 69.1536 24.5666 69.1773 24.6051 69.2159C24.6495 69.2634 24.7027 69.3197 24.7175 69.379C24.8833 70.1057 25.5225 70.61 26.2535 70.5239C26.4488 70.5002 26.7063 70.3638 26.7862 70.2036C26.8572 70.0642 26.73 69.8121 26.6619 69.6223C26.6353 69.5422 26.5465 69.468 26.4695 69.4176C26.1677 69.2218 25.8836 69.029 25.8214 68.6227C25.8036 68.4952 25.6409 68.3795 25.5255 68.2816C25.3716 68.157 25.1999 68.0591 25.0342 67.9494L25.0431 67.9583H25.046ZM15.1614 67.1011C14.8033 66.2765 14.1966 65.6833 13.3768 65.3126C13.2821 65.2681 13.1756 65.2414 13.072 65.2266C12.7139 65.1761 12.5245 65.3511 12.563 65.7071C12.5778 65.8465 12.6133 65.9888 12.6784 66.1134C13.0276 66.7956 13.5426 67.3206 14.2203 67.6765C14.3949 67.7685 14.5932 67.8159 14.6849 67.8486C15.1939 67.8723 15.3626 67.5608 15.1614 67.0981V67.1011ZM58.0116 7.4359C58.0678 7.30836 57.9938 7.05328 57.8873 6.93464C57.18 6.13084 56.2773 5.6711 55.2149 5.55839C55.0432 5.54059 54.768 5.62364 54.7029 5.74822C54.6378 5.86983 54.7236 6.1516 54.839 6.27618C55.5641 7.05922 56.4727 7.49523 57.6061 7.65836C57.7156 7.60497 57.9554 7.56345 58.0086 7.4359H58.0116ZM72.59 30.6631C72.2644 30.3635 71.93 30.4258 71.7376 30.7847C71.3707 31.4699 71.7199 32.9054 72.3591 33.3503C72.6758 33.5698 72.9925 33.5046 73.1463 33.1516C73.2411 32.9292 73.2736 32.6771 73.3091 32.5376C73.2558 31.7635 73.099 31.1347 72.59 30.6631ZM27.9552 74.0921C27.674 74.1277 27.3485 74.1188 27.2508 74.454C27.1532 74.7802 27.3988 74.9879 27.6267 75.154C28.26 75.6137 28.9703 75.8391 29.7575 75.7709C30.015 75.7472 30.3524 75.6997 30.3672 75.4001C30.379 75.1866 30.2103 74.9048 30.0357 74.7535C29.5059 74.3027 28.8578 74.1188 28.1683 74.0891C28.0972 74.0891 28.0262 74.0802 27.9552 74.0891V74.0921ZM37.6682 78.5886C37.8221 78.5442 38.0381 78.3692 38.047 78.2416C38.0559 78.1111 37.8724 77.9094 37.7274 77.8382C36.7892 77.3874 35.8008 77.3162 34.8004 77.5772C34.6288 77.6217 34.4927 77.8026 34.3417 77.9213C34.4749 78.0755 34.5785 78.3098 34.7413 78.3662C35.3272 78.559 35.9339 78.6895 36.44 78.82C36.9342 78.731 37.313 78.6925 37.6711 78.5886H37.6682ZM46.6147 69.3108C47.0882 68.8451 46.9491 68.249 46.3246 68.0236C45.8896 67.8663 45.4634 67.9138 45.0491 68.0947C44.5638 68.3024 44.253 68.7443 44.324 69.121C44.398 69.5036 44.8331 69.7735 45.4575 69.7765C45.8511 69.7706 46.2743 69.643 46.6147 69.3108ZM63.7737 18.9323C63.6879 19.6946 64.5491 20.7802 65.3067 20.8573C65.6618 20.8929 65.8749 20.7357 65.9371 20.3916C66.0732 19.6145 65.1232 18.4429 64.3419 18.4311C64.0164 18.4251 63.8122 18.6061 63.7767 18.9353L63.7737 18.9323ZM35.5344 55.9576C34.9366 55.9576 34.4512 56.4114 34.4631 56.9572C34.4749 57.5029 35.0106 57.9834 35.6202 57.9864C36.2092 57.9894 36.6797 57.5623 36.6827 57.0224C36.6827 56.4381 36.1648 55.9547 35.5374 55.9576H35.5344ZM1.78456 45.093C1.70762 44.9595 1.52709 44.8824 1.39391 44.7786C1.30513 44.9239 1.14828 45.0633 1.14236 45.2116C1.12164 45.7307 1.08021 46.2646 1.18083 46.7658C1.29329 47.3383 1.53597 47.884 1.74905 48.4327C1.78456 48.5277 1.95621 48.6315 2.05092 48.6226C2.1397 48.6107 2.25808 48.4654 2.28471 48.3586C2.35278 48.0976 2.37646 47.8247 2.39717 47.6734C2.3439 46.6946 2.22552 45.8493 1.78456 45.09V45.093ZM37.3782 51.7132C37.3634 52.2441 37.8487 52.7187 38.4051 52.7246C38.9792 52.7306 39.4468 52.2946 39.4498 51.7458C39.4527 51.1941 39.0088 50.7552 38.4288 50.7403C37.8605 50.7255 37.39 51.1586 37.3752 51.7132H37.3782ZM26.4163 60.4275C26.4251 59.8194 25.8214 59.2411 25.1614 59.2262C24.6909 59.2144 24.3239 59.5525 24.3239 59.9974C24.3239 60.6025 24.9128 61.1631 25.561 61.172C26.0611 61.1779 26.4133 60.8754 26.4192 60.4304L26.4163 60.4275ZM75.3304 46.5463C75.36 46.7688 75.3571 47.0001 75.4251 47.2107C75.4784 47.3768 75.6205 47.5133 75.7211 47.6616C75.875 47.5489 76.0881 47.4717 76.168 47.3205C76.5882 46.5463 76.7243 45.7158 76.5586 44.8438C76.5438 44.7637 76.5113 44.6837 76.4698 44.6125C76.3307 44.3663 76.1532 44.3366 75.9608 44.5442C75.8424 44.6718 75.7241 44.826 75.6767 44.9862C75.5258 45.4934 75.4074 46.0095 75.2742 46.5196C75.292 46.5285 75.3097 46.5345 75.3275 46.5434L75.3304 46.5463ZM4.72628 28.5661C4.85946 28.6224 5.16724 28.4415 5.30042 28.2843C5.81832 27.6703 6.0906 26.9466 6.05508 26.1339C6.04916 25.9708 5.93078 25.7276 5.80945 25.6831C5.68515 25.6386 5.44543 25.7513 5.33001 25.8699C4.77067 26.4424 4.53983 27.1661 4.43625 28.0915C4.49248 28.1953 4.56055 28.4979 4.72628 28.5691V28.5661ZM23.2763 34.344C22.7406 34.3351 22.27 34.8363 22.2671 35.4177C22.2641 35.9753 22.6548 36.4054 23.1638 36.4024C23.7172 36.3995 24.1552 35.919 24.1552 35.3198C24.1552 34.7859 23.7646 34.3529 23.2792 34.344H23.2763ZM6.43094 62.1419C6.56115 61.341 4.87425 58.4195 4.06928 58.0902C3.93906 58.9445 5.7325 62.0025 6.43094 62.1419ZM72.0395 19.3861C71.9478 19.3031 71.7879 19.2972 71.6607 19.2527C71.6281 19.4039 71.5453 19.5671 71.5749 19.7065C71.7258 20.4806 72.1194 21.1391 72.6136 21.7353C72.7557 21.9073 72.9273 22.0556 73.1049 22.1891C73.1759 22.2425 73.321 22.2721 73.392 22.2336C73.463 22.198 73.4808 22.0615 73.5222 21.9726C73.2766 20.9493 72.809 20.0772 72.0395 19.3861ZM23.1579 47.184C22.7021 47.187 22.3647 47.5518 22.3618 48.0442C22.3559 48.6018 22.785 49.0793 23.2999 49.0912C23.7675 49.1031 24.1345 48.7264 24.1375 48.2311C24.1434 47.6675 23.6847 47.1781 23.1579 47.184ZM63.0634 10.1054C63.5872 10.9566 64.3123 11.5825 65.2416 11.9591C65.3067 11.9858 65.3777 12.0036 65.4488 12.0036C65.6293 12.0036 65.724 11.9147 65.6648 11.7337C65.6234 11.6002 65.5612 11.4668 65.4813 11.3511C65.0107 10.6778 64.4011 10.1617 63.6731 9.78799C63.5369 9.71977 63.386 9.68418 63.2943 9.65155C62.9776 9.65155 62.8918 9.82655 63.0664 10.1054H63.0634ZM58.0856 4.84061C57.1001 4.09909 56.008 3.58003 54.8124 3.28936C54.6911 3.2597 54.5549 3.30122 54.401 3.31012C54.8154 4.09316 57.6121 5.40712 58.3638 5.15501C58.2513 5.02747 58.1833 4.91476 58.0856 4.84061ZM33.078 7.77107C33.4243 7.44777 33.3533 7.08888 32.9093 6.92278C32.4595 6.75371 32.0245 6.84863 31.6013 7.02066C31.1662 7.19862 30.9087 7.51006 30.9591 7.777C31.0064 8.04395 31.3675 8.22488 31.8676 8.22191C32.2997 8.19522 32.7318 8.0914 33.078 7.77107ZM11.1957 51.5946C10.7814 51.2831 10.37 51.4374 10.2723 51.9416C10.1717 52.4577 10.37 52.8937 10.7163 53.2645C10.9086 53.4721 11.1572 53.6115 11.4443 53.4958C11.7343 53.3772 11.7994 53.1102 11.7994 52.8195C11.7905 52.3183 11.5982 51.9001 11.1957 51.5975V51.5946ZM28.4553 11.8613C28.1949 12.2409 28.3192 12.6206 28.7572 12.7481C29.2544 12.8934 29.6924 12.7392 30.0712 12.4248C30.2961 12.2409 30.4678 11.9977 30.3435 11.6833C30.2162 11.36 29.9232 11.3007 29.6894 11.2918C29.1419 11.2977 28.6891 11.5231 28.4553 11.8642V11.8613ZM23.0129 7.07998C23.0869 6.98803 23.1283 6.7893 23.078 6.70329C23.0247 6.61431 22.8353 6.54905 22.7169 6.56388C21.9179 6.6677 21.2342 7.01176 20.7222 7.64946C20.6512 7.73844 20.595 7.91047 20.6364 7.99352C20.6867 8.09437 20.8465 8.14479 20.9294 8.19818C21.7906 8.04691 22.4979 7.73548 23.0158 7.07998H23.0129ZM22.9655 42.6578C23.4094 42.6667 23.7764 42.2782 23.7794 41.8036C23.7794 41.3201 23.4006 40.8901 22.9685 40.8841C22.5334 40.8782 22.1635 41.2727 22.1576 41.7502C22.1517 42.2426 22.5157 42.6519 22.9655 42.6608V42.6578ZM22.4417 61.7355C22.7791 61.6821 22.9744 61.427 22.9448 61.08C22.9034 60.555 22.3055 60.0538 21.7788 60.0953C21.4414 60.122 21.2194 60.3652 21.2224 60.7093C21.2283 61.2787 21.8794 61.8245 22.4417 61.7355ZM10.8642 13.5401C10.148 13.6528 8.55288 15.5392 8.59431 16.251C9.37857 16.1057 11.0122 14.1392 10.8642 13.5401ZM36.7478 63.9986C36.733 63.5982 36.3216 63.2779 35.8363 63.2868C35.4071 63.2957 35.0727 63.5685 35.0668 63.9156C35.0609 64.3338 35.4722 64.6719 35.9783 64.666C36.4193 64.663 36.7596 64.3634 36.7478 63.9986ZM32.1784 43.7167C32.5897 43.7315 32.933 43.4112 32.9478 42.9989C32.9626 42.5837 32.6104 42.21 32.205 42.207C31.7907 42.207 31.4681 42.5273 31.4592 42.9485C31.4533 43.3638 31.7699 43.7019 32.1784 43.7167ZM8.4345 58.3542C8.54696 58.4373 8.75708 58.4847 8.87546 58.4343C8.9672 58.3957 9.03823 58.1792 9.03231 58.0457C8.9968 57.4822 8.73341 57.0254 8.27469 56.7021C8.17407 56.6309 7.9817 56.5864 7.88996 56.6369C7.78046 56.6962 7.73606 56.8712 7.69759 56.9424C7.76862 57.5682 7.99946 58.0279 8.43746 58.3542H8.4345ZM39.8227 69.5273C39.8286 69.2011 39.4231 68.9163 38.9556 68.9134C38.4939 68.9134 38.118 69.1714 38.1091 69.4977C38.1003 69.821 38.4702 70.0939 38.9348 70.1057C39.4083 70.1176 39.8197 69.8506 39.8227 69.5244V69.5273ZM72.3354 61.78C72.9007 61.5397 74.2561 59.2203 74.1881 58.6063C73.608 58.8762 72.2644 61.1779 72.3354 61.78ZM17.9729 64.9329C18.041 65.366 18.6062 65.8494 19.0353 65.8435C19.3194 65.8405 19.4822 65.6566 19.4408 65.3867C19.3757 64.9566 18.8104 64.4791 18.3754 64.485C18.0824 64.488 17.9285 64.66 17.9729 64.9359V64.9329ZM42.0304 14.4091C42.0304 14.0977 41.6753 13.8218 41.2699 13.8129C40.8585 13.804 40.5329 14.0383 40.5211 14.3557C40.5063 14.6849 40.8614 14.9638 41.2965 14.9667C41.7138 14.9697 42.0334 14.7294 42.0304 14.4091ZM42.3797 76.6073C42.6312 76.4887 42.6194 76.2544 42.3974 76.1031C42.0393 75.8569 41.0657 75.9162 40.7371 76.2069C40.5389 76.3819 40.5448 76.5777 40.7815 76.6815C40.9917 76.7764 41.2284 76.809 41.5037 76.8832C41.7818 76.7971 42.0985 76.7378 42.3797 76.6044V76.6073ZM28.775 78.9416C30.015 79.4814 31.3142 79.7721 32.6667 79.8047C31.4207 79.2738 30.1274 78.9772 28.775 78.9416ZM60.6603 53.1428C60.6544 52.8255 60.4472 52.609 60.1631 52.6179C59.811 52.6297 59.4529 53.045 59.4617 53.4276C59.4706 53.739 59.6807 53.9585 59.9678 53.9496C60.3259 53.9377 60.6722 53.5403 60.6633 53.1428H60.6603ZM33.0396 0.608042C31.8143 0.658465 30.6868 0.886851 29.5119 1.34659C30.2044 1.55718 32.6519 1.04109 33.0396 0.608042ZM50.8378 2.03768C50.4413 1.60464 48.7189 1.15676 48.2157 1.35549C48.5383 1.7915 50.3791 2.272 50.8378 2.03768ZM77.8253 28.9902C77.4672 27.4835 76.9493 26.0301 76.2834 24.6331C76.6415 26.1399 77.1564 27.5932 77.8253 28.9902ZM41.773 46.2557C41.7818 45.9472 41.5599 45.704 41.261 45.6921C40.9443 45.6802 40.6898 45.9205 40.6868 46.2349C40.6839 46.5345 40.9177 46.7777 41.2195 46.7777C41.5273 46.7777 41.7641 46.5582 41.773 46.2557ZM14.8181 57.3042C14.5606 57.3102 14.4748 57.4763 14.4807 57.7076C14.4896 58.0784 14.8684 58.5262 15.1762 58.4728C15.3271 58.4462 15.4485 58.2682 15.5254 58.2059C15.5106 57.7106 15.1377 57.2953 14.8181 57.3042ZM30.5063 77.9865C30.2044 77.5149 29.0354 77.2154 28.5826 77.4912C28.8371 77.9747 30.0919 78.295 30.5063 77.9865ZM6.38654 21.581C6.90445 21.4565 7.46083 20.5221 7.3247 20.009C6.82455 20.0772 6.20898 21.1065 6.38654 21.581ZM23.5485 54.2344C23.5367 54.5458 23.8119 54.8394 24.1167 54.8335C24.3801 54.8276 24.5311 54.6763 24.5488 54.4183C24.5695 54.1157 24.2795 53.8191 23.9777 53.8161C23.7409 53.8161 23.5544 53.9971 23.5456 54.2344H23.5485ZM38.0263 1.39108C38.3992 1.72031 39.3995 1.72328 39.8552 1.37922C39.4083 1.04109 38.4051 1.05888 38.0263 1.39108ZM0.213082 39.327C0.0295947 40.0655 0.0266353 40.7655 0.248596 41.5545C0.588935 40.9879 0.5623 39.671 0.213082 39.327ZM38.8165 79.7721C39.3136 80.0865 40.5241 80.0746 41.0479 79.7424C40.2636 79.5378 39.577 79.5645 38.8165 79.7721ZM4.8417 34.2936C4.96896 34.1749 5.1554 34.08 5.20571 33.9347C5.27674 33.7241 5.28266 33.472 5.25011 33.2495C5.21459 33.0181 5.00151 32.9796 4.88017 33.1753C4.76179 33.3681 4.7026 33.5995 4.60494 33.8516C4.68781 34.0029 4.76771 34.1482 4.84762 34.2906L4.8417 34.2936ZM47.8103 77.4171C47.8517 77.3726 47.8399 77.2035 47.7985 77.1768C47.4936 76.981 46.6354 77.251 46.4667 77.5802C46.7893 77.77 47.5676 77.687 47.8103 77.4171ZM24.0191 28.6402C23.8001 28.5869 23.5663 28.8686 23.5663 29.1207C23.5663 29.3669 23.7024 29.4915 23.9362 29.5004C24.1819 29.5093 24.4009 29.272 24.3949 28.8953C24.3091 28.833 24.1789 28.6758 24.0191 28.6373V28.6402ZM4.46585 52.9471C4.50432 53.0212 4.63454 53.045 4.72036 53.0924C4.75587 53.0094 4.83578 52.9115 4.81506 52.8433C4.7322 52.5526 4.63158 52.2649 4.5132 51.989C4.48656 51.9238 4.36522 51.8971 4.28532 51.8526C4.23797 51.9386 4.19061 52.0217 4.11367 52.1581C4.22613 52.4191 4.32675 52.692 4.46289 52.9471H4.46585ZM64.0933 68.5011C63.6524 68.4625 63.1285 68.8985 63.0723 69.379C63.5724 69.3701 64.0815 68.9223 64.0933 68.5011ZM0.426164 32.4724C0.284109 33.3355 0.142055 34.1957 0 35.0588C0.0591895 35.0677 0.118379 35.0796 0.177568 35.0885C0.319623 34.2253 0.464637 33.3592 0.606692 32.4961C0.544543 32.4872 0.485354 32.4813 0.423205 32.4724H0.426164ZM77.7661 39.146C77.5027 39.4515 77.4938 40.1278 77.7631 40.5668C78.0295 40.1782 78.0206 39.4841 77.7661 39.146ZM1.74313 53.7509C2.20185 54.8691 2.65761 55.9873 3.11633 57.1055C3.14888 57.0936 3.17847 57.0788 3.21103 57.0669C2.75823 55.9487 2.30543 54.8305 1.85263 53.7094C1.81712 53.7242 1.7816 53.7361 1.74609 53.7509H1.74313ZM65.3422 15.3849C65.3807 15.3108 65.4724 15.1921 65.4517 15.1684C65.2593 14.946 65.0522 14.7413 64.8391 14.5396C64.8332 14.5337 64.6556 14.6909 64.6586 14.6968C64.8332 14.943 65.0196 15.1803 65.2031 15.4176C65.2505 15.4057 65.2949 15.3938 65.3422 15.3849ZM61.7908 7.02362C62.2525 7.46853 62.7497 7.86598 63.3505 8.10623C63.3742 8.07064 63.3978 8.03505 63.4245 8.00242C62.9095 7.63463 62.3946 7.26387 61.8796 6.89608C61.85 6.93761 61.8204 6.97913 61.7908 7.02362ZM46.0109 6.19609C45.9162 6.10415 45.8304 5.94991 45.7239 5.93211C45.5167 5.89949 45.3007 5.94398 45.0876 5.97067C45.0757 5.97067 45.0521 6.13381 45.0787 6.14864C45.2504 6.25838 45.4338 6.34736 45.644 6.46007C45.786 6.35626 45.8985 6.27618 46.0109 6.19609ZM76.0762 55.5839L77.0854 52.8878C77.0499 52.8759 77.0144 52.8611 76.9789 52.8462C76.6415 53.739 76.3071 54.6318 75.9697 55.5246C76.0052 55.5424 76.0407 55.5631 76.0762 55.5809V55.5839ZM5.87751 40.6676C5.97222 40.5163 6.13203 40.3651 6.13795 40.2079C6.14387 40.0625 5.98701 39.9113 5.90119 39.76C5.79761 39.8905 5.69403 40.024 5.56085 40.1901C5.68811 40.3799 5.78281 40.5223 5.87751 40.6646V40.6676ZM41.8795 0.172031C42.4951 0.222454 43.1107 0.275843 43.7233 0.326266C43.7292 0.269911 43.7321 0.21059 43.7381 0.154235C43.1225 0.103812 42.5069 0.050423 41.8943 0C41.8884 0.0563551 41.8854 0.115676 41.8795 0.172031ZM15.9456 17.2328C15.7799 17.393 15.6319 17.5739 15.478 17.7489C15.5432 17.7993 15.6053 17.8913 15.6704 17.8972C15.8805 17.9091 16.1558 17.6065 16.141 17.3366C16.0936 17.3099 15.9634 17.215 15.9427 17.2358L15.9456 17.2328ZM13.5781 36.0732C13.4745 36.1918 13.3176 36.3016 13.2851 36.435C13.2644 36.53 13.4183 36.6634 13.4952 36.7791C13.6165 36.6812 13.7408 36.5833 13.9184 36.4439C13.7616 36.2749 13.6698 36.174 13.5781 36.0732ZM28.8519 71.221C28.6951 71.1201 28.5471 70.9955 28.3784 70.9273C28.331 70.9066 28.2186 71.043 28.1387 71.1083C28.2807 71.2269 28.4228 71.3485 28.6092 71.5057C28.7246 71.3722 28.7868 71.2951 28.8519 71.221ZM22.3174 75.1391C22.5541 75.4506 22.856 75.6167 23.2526 75.5633C23.0069 75.2578 22.7051 75.0946 22.3174 75.1391ZM68.568 65.535C68.9616 65.3244 69.1747 65.0397 69.1629 64.6185C68.8936 64.9418 68.6805 65.1969 68.4704 65.452C68.5029 65.4787 68.5355 65.5083 68.568 65.535ZM13.4419 10.2062C13.7852 9.91256 14.1315 9.62189 14.4748 9.32825C14.4481 9.29562 14.4186 9.263 14.3919 9.23037C14.0427 9.52104 13.6964 9.81172 13.3472 10.1024C13.3798 10.138 13.4094 10.1736 13.4419 10.2062ZM54.3566 13.9642C54.4602 14.0739 54.5727 14.1778 54.7029 14.2519C54.7266 14.2667 54.8302 14.1451 54.8982 14.0888C54.7917 13.982 54.6852 13.8752 54.5372 13.7269C54.4454 13.8456 54.3478 13.9553 54.3566 13.9642ZM68.7101 57.1441C69.0416 57.0462 69.1274 56.8534 69.0652 56.5153C68.7219 56.6398 68.6243 56.8267 68.7101 57.1441ZM57.3724 71.7074C57.7157 71.7489 57.8636 71.657 57.9524 71.3485C57.6091 71.304 57.47 71.393 57.3724 71.7074ZM73.2884 26.5343C73.2115 26.3416 73.1315 26.1488 73.0546 25.953C72.9925 25.9797 72.9303 26.0034 72.8711 26.0301C72.951 26.2229 73.0309 26.4157 73.1108 26.6085C73.17 26.5848 73.2322 26.5581 73.2914 26.5343H73.2884Z" fill="white" stroke="url(#paint0_linear_879_297)" stroke-width="2" mask="url(#path-1-inside-1_879_297)"/>
<defs>
<linearGradient id="paint0_linear_879_297" x1="189.184" y1="42.6531" x2="-0.337216" y2="30.2046" gradientUnits="userSpaceOnUse">
<stop stop-color="#9BC354"/>
<stop offset="1" stop-color="#50AE98"/>
</linearGradient>
</defs>
</svg>
