<svg width="32" height="22" viewBox="0 0 32 22" fill="none" xmlns="http://www.w3.org/2000/svg">
    <path
        d="M27.4099 3.0318C23.699 0.255277 20.1441 0.333057 20.1441 0.333057L19.7807 0.748101C24.1922 2.07165 26.2422 4.01777 26.2422 4.01777C19.9308 0.542811 11.8913 0.567675 5.3265 4.01777C5.3265 4.01777 7.45432 1.96773 12.1253 0.644181L11.8658 0.332738C11.8658 0.332738 8.33668 0.254957 4.60001 3.03148C4.60001 3.03148 0.863342 9.75251 0.863342 18.0304C0.863342 18.0304 3.04312 21.7671 8.77818 21.9488C8.77818 21.9488 9.73833 20.807 10.5168 19.821C7.22097 18.835 5.97552 16.785 5.97552 16.785C8.04596 18.0805 10.1397 18.8914 12.7485 19.4059C16.9933 20.2797 22.2732 19.3814 26.2164 16.785C26.2164 16.785 24.919 18.887 21.5196 19.8471C22.298 20.8073 23.2324 21.923 23.2324 21.923C28.9668 21.7416 31.1466 18.0049 31.1466 18.0308C31.1466 9.75283 27.4099 3.0318 27.4099 3.0318ZM11.1652 15.6176C9.71187 15.6176 8.51838 14.346 8.51838 12.763C8.62453 8.97215 13.7326 8.98395 13.8123 12.763C13.8119 14.346 12.6443 15.6176 11.1652 15.6176ZM20.6369 15.6176C19.1836 15.6176 17.9901 14.346 17.9901 12.763C18.1068 8.97949 23.1511 8.97789 23.284 12.763C23.2837 14.346 22.116 15.6176 20.6369 15.6176Z"
        fill="white" />
</svg>