<svg width="30" height="24" viewBox="0 0 30 24" fill="none" xmlns="http://www.w3.org/2000/svg">
    <path
        d="M29.2914 3.29108C28.2168 3.75728 27.0804 4.06546 25.9175 4.20605C27.1444 3.4731 28.0638 2.32005 28.5051 0.960782C27.3522 1.6471 26.0901 2.13065 24.7738 2.39041C23.8939 1.43624 22.7222 0.801087 21.4425 0.584576C20.1627 0.368066 18.8473 0.582442 17.7025 1.19408C16.5578 1.80572 15.6484 2.78003 15.117 3.9642C14.5856 5.14838 14.4623 6.47543 14.7664 7.73724C12.4353 7.61933 10.155 7.01235 8.07377 5.95572C5.99253 4.89909 4.15685 3.41645 2.68598 1.60412C2.17008 2.50503 1.899 3.52529 1.89968 4.56345C1.89785 5.52757 2.13445 6.47718 2.58842 7.32774C3.04238 8.1783 3.69962 8.9034 4.50161 9.4385C3.56946 9.41314 2.65722 9.16301 1.8425 8.70939V8.78087C1.84948 10.1317 2.32285 11.4387 3.18251 12.4807C4.04218 13.5227 5.23538 14.2358 6.56028 14.4994C6.05027 14.6546 5.52076 14.7364 4.98769 14.7424C4.61869 14.7381 4.2506 14.7047 3.88687 14.6424C4.26416 15.8044 4.9943 16.8199 5.97567 17.5476C6.95704 18.2753 8.14085 18.679 9.36236 18.7025C7.29969 20.3255 4.75306 21.2113 2.12842 21.2187C1.65055 21.2202 1.17305 21.1916 0.698792 21.1329C3.37853 22.8631 6.5014 23.7816 9.69118 23.7777C11.8924 23.8006 14.0761 23.3846 16.1147 22.5541C18.1533 21.7235 20.006 20.4951 21.5646 18.9405C23.1231 17.386 24.3563 15.5364 25.192 13.5C26.0278 11.4635 26.4494 9.28085 26.4322 7.07961C26.4322 6.83657 26.4322 6.57924 26.4322 6.3219C27.554 5.4853 28.5215 4.4597 29.2914 3.29108Z"
        fill="white" />
</svg>