<svg width="17" height="17" viewBox="0 0 17 17" fill="none" xmlns="http://www.w3.org/2000/svg">
<path d="M7.55333 0.887805C7.42836 1.01176 7.32917 1.15922 7.26148 1.3217C7.19379 1.48418 7.15894 1.65845 7.15894 1.83447C7.15894 2.01049 7.19379 2.18476 7.26148 2.34724C7.32917 2.50972 7.42836 2.65719 7.55333 2.78114L11.9533 7.1678L1.83333 7.1678C1.47971 7.1678 1.14057 7.30828 0.890524 7.55833C0.640476 7.80838 0.5 8.14751 0.5 8.50114C0.5 8.85476 0.640476 9.1939 0.890524 9.44395C1.14057 9.69399 1.47971 9.83447 1.83333 9.83447L11.9533 9.83447L7.55333 14.2211C7.30226 14.4722 7.16121 14.8127 7.16121 15.1678C7.16121 15.5229 7.30226 15.8634 7.55333 16.1145C7.80441 16.3655 8.14493 16.5066 8.5 16.5066C8.85507 16.5066 9.1956 16.3655 9.44667 16.1145L16.1133 9.4478C16.2347 9.321 16.3299 9.17147 16.3933 9.0078C16.4639 8.8482 16.5003 8.67563 16.5003 8.50114C16.5003 8.32664 16.4639 8.15407 16.3933 7.99447C16.3299 7.8308 16.2347 7.68127 16.1133 7.55447L9.44667 0.887805C9.32272 0.762834 9.17525 0.663639 9.01277 0.595948C8.85029 0.528256 8.67602 0.493406 8.5 0.493406C8.32398 0.493406 8.14971 0.528256 7.98723 0.595948C7.82475 0.663639 7.67728 0.762834 7.55333 0.887805Z" fill="white"/>
</svg>
